<svg width="454" height="80" viewBox="0 0 454 80" fill="none" xmlns="http://www.w3.org/2000/svg">
<rect width="454" height="80" fill="white"/>
<path d="M152.008 42.208C151.848 42.208 151.645 42.176 151.4 42.112C151.165 42.0587 150.931 41.952 150.696 41.792C150.461 41.6213 150.269 41.3707 150.12 41.04C149.971 40.6987 149.907 40.2507 149.928 39.696C149.949 39.3227 149.971 38.9493 149.992 38.576C150.024 38.2027 150.056 37.8293 150.088 37.456C149.832 37.3173 149.608 37.136 149.416 36.912C149.235 36.688 149.144 36.5067 149.144 36.368C149.144 36.24 149.165 36.144 149.208 36.08C149.261 36.0053 149.357 35.9573 149.496 35.936C149.677 35.904 149.912 35.8667 150.2 35.824C150.264 35.056 150.317 34.2933 150.36 33.536C150.403 32.768 150.429 32 150.44 31.232C150.44 31.0293 150.483 30.832 150.568 30.64C150.653 30.448 150.797 30.352 151 30.352C151.192 30.352 151.395 30.3947 151.608 30.48C151.821 30.5547 152.024 30.6987 152.216 30.912C152.408 31.1147 152.563 31.408 152.68 31.792C152.808 32.176 152.872 32.672 152.872 33.28C152.872 33.44 152.856 33.7227 152.824 34.128C152.803 34.5333 152.771 35.0027 152.728 35.536C153.411 35.472 154.061 35.4133 154.68 35.36C154.723 34.6453 154.76 33.9467 154.792 33.264C154.835 32.5813 154.861 31.904 154.872 31.232C154.872 31.0293 154.915 30.832 155 30.64C155.085 30.448 155.229 30.352 155.432 30.352C155.688 30.352 155.96 30.416 156.248 30.544C156.536 30.6613 156.781 30.8747 156.984 31.184C157.197 31.4827 157.304 31.904 157.304 32.448C157.304 32.7893 157.288 33.232 157.256 33.776C157.224 34.3093 157.187 34.8853 157.144 35.504C157.421 35.6533 157.672 35.8293 157.896 36.032C158.12 36.2347 158.232 36.4213 158.232 36.592C158.232 36.784 158.184 36.9067 158.088 36.96C157.992 37.0133 157.843 37.04 157.64 37.04C157.544 37.04 157.341 37.0507 157.032 37.072C156.979 37.712 156.925 38.3307 156.872 38.928C156.829 39.5253 156.792 40.0587 156.76 40.528C156.749 40.6133 156.744 40.6987 156.744 40.784C156.744 40.8587 156.744 40.928 156.744 40.992C156.744 41.216 156.749 41.4027 156.76 41.552C156.781 41.6907 156.792 41.8293 156.792 41.968C156.792 42.064 156.755 42.128 156.68 42.16C156.616 42.192 156.536 42.208 156.44 42.208C156.28 42.208 156.077 42.1813 155.832 42.128C155.597 42.0853 155.363 41.9947 155.128 41.856C154.893 41.7173 154.701 41.52 154.552 41.264C154.403 41.008 154.339 40.672 154.36 40.256C154.381 39.744 154.408 39.248 154.44 38.768C154.472 38.2773 154.504 37.7973 154.536 37.328C154.205 37.36 153.869 37.392 153.528 37.424C153.197 37.456 152.877 37.488 152.568 37.52C152.525 38.064 152.483 38.5973 152.44 39.12C152.397 39.6427 152.36 40.112 152.328 40.528C152.317 40.6133 152.312 40.6987 152.312 40.784C152.312 40.8587 152.312 40.928 152.312 40.992C152.312 41.216 152.317 41.4027 152.328 41.552C152.349 41.6907 152.36 41.8293 152.36 41.968C152.36 42.064 152.323 42.128 152.248 42.16C152.184 42.192 152.104 42.208 152.008 42.208ZM162.001 42.192C161.703 42.192 161.399 42.1013 161.089 41.92C160.791 41.728 160.508 41.4773 160.241 41.168C159.985 40.848 159.777 40.496 159.617 40.112C159.457 39.728 159.377 39.344 159.377 38.96C159.377 38.2027 159.484 37.4507 159.697 36.704C159.921 35.9573 160.225 35.28 160.609 34.672C161.004 34.064 161.468 33.5787 162.001 33.216C162.535 32.8533 163.111 32.672 163.729 32.672C164.007 32.672 164.311 32.7573 164.641 32.928C164.972 33.088 165.212 33.328 165.361 33.648C165.767 33.84 166.065 34.128 166.257 34.512C166.449 34.896 166.524 35.248 166.481 35.568C166.449 35.824 166.337 36.1173 166.145 36.448C165.953 36.768 165.708 37.0987 165.409 37.44C165.111 37.7707 164.78 38.08 164.417 38.368C164.055 38.6453 163.681 38.8747 163.297 39.056C162.924 39.2267 162.561 39.312 162.209 39.312C162.081 39.312 161.943 39.2693 161.793 39.184C161.825 39.5253 161.921 39.7707 162.081 39.92C162.252 40.0587 162.476 40.128 162.753 40.128C163.159 40.128 163.607 39.984 164.097 39.696C164.588 39.408 165.111 39.024 165.665 38.544C165.911 38.6613 166.097 38.816 166.225 39.008C166.353 39.1893 166.401 39.4187 166.369 39.696C166.327 40.016 166.156 40.3253 165.857 40.624C165.569 40.912 165.201 41.1787 164.753 41.424C164.316 41.6587 163.852 41.8453 163.361 41.984C162.881 42.1227 162.428 42.192 162.001 42.192ZM164.385 34.432C163.969 34.4533 163.591 34.6453 163.249 35.008C162.908 35.3707 162.62 35.8187 162.385 36.352C162.151 36.8747 161.98 37.3973 161.873 37.92C162.225 37.8453 162.556 37.664 162.865 37.376C163.185 37.0773 163.463 36.7413 163.697 36.368C163.943 35.984 164.129 35.616 164.257 35.264C164.385 34.9013 164.428 34.624 164.385 34.432ZM170.435 42.224C170.158 42.224 169.854 42.16 169.523 42.032C169.203 41.9147 168.926 41.7067 168.691 41.408C168.467 41.0987 168.355 40.672 168.355 40.128C168.355 40 168.366 39.7067 168.387 39.248C168.419 38.7893 168.457 38.224 168.499 37.552C168.553 36.88 168.606 36.1653 168.659 35.408C168.723 34.64 168.787 33.888 168.851 33.152C168.915 32.416 168.979 31.7547 169.043 31.168C169.107 30.5707 169.166 30.1173 169.219 29.808C169.241 29.7227 169.294 29.6693 169.379 29.648C169.465 29.616 169.539 29.6 169.603 29.6C169.838 29.6 170.105 29.6693 170.403 29.808C170.713 29.9467 170.974 30.16 171.187 30.448C171.411 30.736 171.502 31.104 171.459 31.552C171.438 31.7867 171.406 32.1547 171.363 32.656C171.321 33.1573 171.267 33.7387 171.203 34.4C171.15 35.0613 171.097 35.76 171.043 36.496C170.99 37.2213 170.937 37.936 170.883 38.64C170.841 39.344 170.803 39.9893 170.771 40.576C170.739 41.152 170.723 41.616 170.723 41.968C170.723 42.0213 170.697 42.0747 170.643 42.128C170.601 42.192 170.531 42.224 170.435 42.224ZM175.435 42.224C175.158 42.224 174.854 42.16 174.523 42.032C174.203 41.9147 173.926 41.7067 173.691 41.408C173.467 41.0987 173.355 40.672 173.355 40.128C173.355 40 173.366 39.7067 173.387 39.248C173.419 38.7893 173.457 38.224 173.499 37.552C173.553 36.88 173.606 36.1653 173.659 35.408C173.723 34.64 173.787 33.888 173.851 33.152C173.915 32.416 173.979 31.7547 174.043 31.168C174.107 30.5707 174.166 30.1173 174.219 29.808C174.241 29.7227 174.294 29.6693 174.379 29.648C174.465 29.616 174.539 29.6 174.603 29.6C174.838 29.6 175.105 29.6693 175.403 29.808C175.713 29.9467 175.974 30.16 176.187 30.448C176.411 30.736 176.502 31.104 176.459 31.552C176.438 31.7867 176.406 32.1547 176.363 32.656C176.321 33.1573 176.267 33.7387 176.203 34.4C176.15 35.0613 176.097 35.76 176.043 36.496C175.99 37.2213 175.937 37.936 175.883 38.64C175.841 39.344 175.803 39.9893 175.771 40.576C175.739 41.152 175.723 41.616 175.723 41.968C175.723 42.0213 175.697 42.0747 175.643 42.128C175.601 42.192 175.531 42.224 175.435 42.224ZM181.779 42.24C181.427 42.24 181.086 42.1707 180.755 42.032C180.435 41.904 180.174 41.68 179.971 41.36C179.459 41.1147 179.065 40.688 178.787 40.08C178.51 39.472 178.371 38.7627 178.371 37.952C178.371 37.248 178.467 36.5813 178.659 35.952C178.851 35.312 179.113 34.7467 179.443 34.256C179.774 33.7653 180.153 33.3813 180.579 33.104C181.017 32.816 181.475 32.672 181.955 32.672C182.361 32.672 182.766 32.7467 183.171 32.896C183.577 33.0347 183.929 33.2907 184.227 33.664C184.75 33.9307 185.15 34.32 185.427 34.832C185.715 35.344 185.859 35.904 185.859 36.512C185.859 37.2907 185.779 38.0267 185.619 38.72C185.459 39.4133 185.214 40.0267 184.883 40.56C184.553 41.0827 184.131 41.4933 183.619 41.792C183.107 42.0907 182.494 42.24 181.779 42.24ZM181.459 40.48C181.779 40.48 182.062 40.3413 182.307 40.064C182.553 39.7867 182.761 39.4347 182.931 39.008C183.102 38.5707 183.23 38.1013 183.315 37.6C183.411 37.0987 183.459 36.624 183.459 36.176C183.459 35.6853 183.401 35.2747 183.283 34.944C183.177 34.6133 183.001 34.448 182.755 34.448C182.435 34.448 182.153 34.5867 181.907 34.864C181.662 35.1413 181.454 35.4987 181.283 35.936C181.113 36.3627 180.979 36.8267 180.883 37.328C180.798 37.8293 180.755 38.304 180.755 38.752C180.755 39.2427 180.814 39.6533 180.931 39.984C181.049 40.3147 181.225 40.48 181.459 40.48ZM190.11 38.368C189.886 38.368 189.652 38.3253 189.406 38.24C189.161 38.1547 188.953 38.032 188.782 37.872C188.612 37.7013 188.526 37.4987 188.526 37.264C188.526 37.1467 188.526 36.9173 188.526 36.576C188.537 36.2347 188.542 35.824 188.542 35.344C188.553 34.8533 188.564 34.336 188.574 33.792C188.596 33.2373 188.617 32.6933 188.638 32.16C188.66 31.616 188.681 31.12 188.702 30.672C188.734 30.2133 188.766 29.8453 188.798 29.568C188.82 29.3653 188.873 29.2373 188.958 29.184C189.054 29.12 189.172 29.088 189.31 29.088C189.577 29.088 189.849 29.152 190.126 29.28C190.414 29.408 190.654 29.5787 190.846 29.792C191.049 30.0053 191.15 30.24 191.15 30.496C191.15 30.6133 191.129 30.8427 191.086 31.184C191.054 31.5253 191.006 31.936 190.942 32.416C190.878 32.8853 190.809 33.3973 190.734 33.952C190.67 34.496 190.606 35.0347 190.542 35.568C190.478 36.1013 190.425 36.5973 190.382 37.056C190.35 37.504 190.334 37.872 190.334 38.16C190.334 38.2027 190.318 38.2507 190.286 38.304C190.254 38.3467 190.196 38.368 190.11 38.368ZM189.854 42.496C189.513 42.496 189.198 42.4587 188.91 42.384C188.633 42.3093 188.414 42.1707 188.254 41.968C188.105 41.7653 188.041 41.472 188.062 41.088C188.073 40.896 188.1 40.688 188.142 40.464C188.185 40.2293 188.318 40.08 188.542 40.016C188.66 39.9947 188.804 39.984 188.974 39.984C189.156 39.9733 189.31 39.968 189.438 39.968C189.726 39.968 190.046 40.016 190.398 40.112C190.569 40.144 190.654 40.208 190.654 40.304C190.654 40.5387 190.617 40.816 190.542 41.136C190.468 41.4453 190.393 41.8773 190.318 42.432C190.158 42.4747 190.004 42.496 189.854 42.496ZM200.643 42.208C200.429 42.208 200.168 42.1493 199.859 42.032C199.56 41.9253 199.293 41.7333 199.059 41.456C198.835 41.1787 198.723 40.8 198.723 40.32C198.723 39.8293 198.749 39.2107 198.803 38.464C198.856 37.7067 198.915 36.88 198.979 35.984C199.053 35.088 199.117 34.176 199.171 33.248C199.224 32.32 199.251 31.4347 199.251 30.592C199.251 30.5067 199.315 30.448 199.443 30.416C199.571 30.3733 199.736 30.352 199.939 30.352C200.152 30.352 200.392 30.416 200.659 30.544C200.936 30.6613 201.176 30.8693 201.379 31.168C201.581 31.456 201.683 31.8667 201.683 32.4C201.683 32.624 201.667 33.008 201.635 33.552C201.613 34.096 201.581 34.7307 201.539 35.456C201.496 36.1813 201.443 36.9387 201.379 37.728C201.325 38.5173 201.267 39.2853 201.203 40.032C201.139 40.768 201.069 41.4133 200.995 41.968C200.973 42.128 200.856 42.208 200.643 42.208ZM204.317 34.128C204.146 34.128 204.002 34.1013 203.885 34.048C203.778 33.9947 203.725 33.8667 203.725 33.664C203.725 33.472 203.805 33.2 203.965 32.848C204.125 32.4853 204.285 32.0373 204.445 31.504C204.605 30.9707 204.685 30.3573 204.685 29.664C204.866 29.6213 205.042 29.6 205.213 29.6C205.97 29.6 206.504 29.728 206.813 29.984C207.122 30.24 207.277 30.5547 207.277 30.928C207.277 31.2587 207.181 31.6107 206.989 31.984C206.797 32.3573 206.546 32.7093 206.237 33.04C205.938 33.36 205.618 33.6213 205.277 33.824C204.936 34.0267 204.616 34.128 204.317 34.128ZM219.555 42.224C219.224 42.224 218.925 42.128 218.659 41.936C218.392 41.7333 218.179 41.472 218.019 41.152C217.859 40.832 217.779 40.496 217.779 40.144C217.779 39.824 217.8 39.4667 217.843 39.072C217.896 38.6773 217.96 38.2827 218.035 37.888C218.109 37.4933 218.189 37.1413 218.275 36.832L218.211 36.8C217.965 37.2907 217.704 37.84 217.427 38.448C217.16 39.056 216.915 39.68 216.691 40.32C216.467 40.96 216.285 41.5733 216.147 42.16C215.827 42.1493 215.517 42.128 215.219 42.096C214.931 42.064 214.712 41.9573 214.563 41.776C214.285 41.6373 214.083 41.424 213.955 41.136C213.827 40.848 213.747 40.5173 213.715 40.144C213.683 39.7707 213.667 39.3973 213.667 39.024C213.667 38.8853 213.677 38.6827 213.699 38.416C213.731 38.1493 213.768 37.8613 213.811 37.552C213.864 37.232 213.917 36.9333 213.971 36.656H213.923C213.475 37.5307 213.048 38.4267 212.643 39.344C212.248 40.2613 211.907 41.2 211.619 42.16C211.299 42.1493 211.037 42.096 210.835 42C210.632 41.904 210.435 41.76 210.243 41.568C209.933 41.3973 209.715 41.1733 209.587 40.896C209.459 40.608 209.395 40.304 209.395 39.984C209.395 39.0027 209.453 37.9147 209.571 36.72C209.699 35.5253 209.896 34.304 210.163 33.056C210.216 32.8427 210.301 32.736 210.419 32.736C210.685 32.736 210.952 32.8 211.219 32.928C211.485 33.056 211.704 33.248 211.875 33.504C212.056 33.76 212.147 34.08 212.147 34.464C212.147 34.5387 212.141 34.624 212.131 34.72C212.12 34.8053 212.104 34.8907 212.083 34.976L211.443 37.984H211.475C211.891 37.0667 212.301 36.2187 212.707 35.44C213.123 34.6507 213.555 34.0053 214.003 33.504C214.099 33.3867 214.243 33.328 214.435 33.328C214.733 33.328 215.053 33.456 215.395 33.712C215.64 33.808 215.827 33.9413 215.955 34.112C216.093 34.272 216.163 34.4427 216.163 34.624C216.163 34.6453 216.163 34.672 216.163 34.704C216.163 34.736 216.157 34.7627 216.147 34.784C215.976 35.4027 215.837 36.064 215.731 36.768C215.624 37.472 215.565 38.1493 215.555 38.8L215.635 38.816C215.976 37.9947 216.328 37.2107 216.691 36.464C217.053 35.7067 217.533 34.944 218.131 34.176C218.216 34.08 218.344 34.032 218.515 34.032C218.824 34.032 219.16 34.16 219.523 34.416C219.768 34.5013 219.971 34.6187 220.131 34.768C220.291 34.9173 220.408 35.072 220.483 35.232C220.323 36.0107 220.189 36.8853 220.083 37.856C219.976 38.816 219.923 39.728 219.923 40.592C219.923 40.8693 219.928 41.136 219.939 41.392C219.96 41.648 219.981 41.8933 220.003 42.128C219.864 42.192 219.715 42.224 219.555 42.224ZM228.827 42.272C228.603 42.272 228.363 42.224 228.107 42.128C227.851 42.0427 227.632 41.888 227.451 41.664C227.27 41.44 227.179 41.1253 227.179 40.72C227.179 40.6773 227.179 40.6347 227.179 40.592C227.179 40.5387 227.184 40.4907 227.195 40.448C227.312 39.3707 227.494 38.0747 227.739 36.56C227.984 35.0453 228.336 33.4027 228.795 31.632C228.688 31.3867 228.566 31.152 228.427 30.928C228.288 30.704 228.219 30.512 228.219 30.352C228.219 30.2453 228.262 30.1707 228.347 30.128C228.432 30.0853 228.523 30.064 228.619 30.064C228.96 30.064 229.307 30.1493 229.659 30.32C230.011 30.4907 230.336 30.7573 230.635 31.12C230.944 31.4827 231.184 31.9467 231.355 32.512L232.843 37.392H232.875C233.11 36.6453 233.328 35.9467 233.531 35.296C233.734 34.6453 233.936 33.9947 234.139 33.344C234.352 32.6933 234.576 32.0053 234.811 31.28C234.907 30.9813 235.03 30.768 235.179 30.64C235.328 30.512 235.499 30.448 235.691 30.448C235.872 30.448 236.091 30.5067 236.347 30.624C236.752 30.7947 237.035 31.072 237.195 31.456C237.355 31.8293 237.414 32.336 237.371 32.976C237.339 33.392 237.323 34 237.323 34.8C237.323 35.3867 237.328 36.032 237.339 36.736C237.36 37.4293 237.387 38.1227 237.419 38.816C237.462 39.5093 237.504 40.1493 237.547 40.736C237.6 41.312 237.659 41.7813 237.723 42.144C237.595 42.1973 237.43 42.224 237.227 42.224C236.896 42.224 236.571 42.1387 236.251 41.968C235.931 41.7973 235.744 41.504 235.691 41.088C235.616 40.48 235.552 39.8027 235.499 39.056C235.456 38.2987 235.435 37.5627 235.435 36.848C235.435 36.336 235.451 35.856 235.483 35.408H235.451L233.499 40.688C233.456 40.8053 233.344 40.864 233.163 40.864C232.918 40.864 232.672 40.784 232.427 40.624C232.054 40.5173 231.835 40.3467 231.771 40.112L230.251 34.992H230.219C230.134 35.408 230.038 35.8773 229.931 36.4C229.835 36.9227 229.739 37.4613 229.643 38.016C229.547 38.5707 229.467 39.104 229.403 39.616C229.339 40.128 229.307 40.576 229.307 40.96C229.307 41.216 229.323 41.4347 229.355 41.616C229.366 41.6587 229.371 41.696 229.371 41.728C229.371 41.76 229.371 41.792 229.371 41.824C229.371 41.9947 229.318 42.112 229.211 42.176C229.104 42.24 228.976 42.272 228.827 42.272ZM242.186 42.224C241.908 42.224 241.615 42.1707 241.306 42.064C241.007 41.9573 240.751 41.8027 240.538 41.6C240.335 41.3973 240.234 41.152 240.234 40.864C240.234 40.6933 240.244 40.3893 240.266 39.952C240.287 39.5147 240.314 39.008 240.346 38.432C240.378 37.8453 240.415 37.2427 240.458 36.624C240.5 35.9947 240.548 35.3973 240.602 34.832C240.655 34.2667 240.703 33.7867 240.746 33.392C240.756 33.3067 240.81 33.2533 240.906 33.232C241.002 33.2 241.082 33.184 241.146 33.184C241.391 33.184 241.663 33.2533 241.962 33.392C242.26 33.5307 242.516 33.7067 242.73 33.92C242.954 34.1333 243.066 34.3573 243.066 34.592C243.066 34.7307 243.044 35.008 243.002 35.424C242.959 35.8293 242.906 36.3147 242.842 36.88C242.788 37.4453 242.73 38.0373 242.666 38.656C242.612 39.2747 242.564 39.8773 242.522 40.464C242.479 41.04 242.458 41.5413 242.458 41.968C242.458 42.0213 242.436 42.0747 242.394 42.128C242.351 42.192 242.282 42.224 242.186 42.224ZM242.41 31.6C242.058 31.6 241.732 31.5627 241.434 31.488C241.146 31.4027 240.916 31.2533 240.746 31.04C240.586 30.8267 240.516 30.5227 240.538 30.128C240.559 29.9253 240.586 29.7067 240.618 29.472C240.66 29.2267 240.799 29.0773 241.034 29.024C241.162 29.0027 241.316 28.9867 241.498 28.976C241.679 28.9653 241.839 28.96 241.978 28.96C242.276 28.96 242.607 29.008 242.97 29.104C243.151 29.1467 243.242 29.216 243.242 29.312C243.242 29.5573 243.204 29.8453 243.13 30.176C243.055 30.5067 242.975 30.96 242.89 31.536C242.719 31.5787 242.559 31.6 242.41 31.6ZM248.302 42.208C247.907 42.208 247.497 42.1547 247.07 42.048C246.654 41.952 246.286 41.7227 245.966 41.36C245.603 41.008 245.353 40.6187 245.214 40.192C245.086 39.7547 245.022 39.2267 245.022 38.608C245.022 37.84 245.113 37.104 245.294 36.4C245.475 35.6853 245.737 35.056 246.078 34.512C246.43 33.9573 246.851 33.52 247.342 33.2C247.833 32.88 248.382 32.72 248.99 32.72C249.299 32.72 249.571 32.752 249.806 32.816C250.041 32.88 250.259 33.0347 250.462 33.28C250.835 33.3867 251.102 33.584 251.262 33.872C251.433 34.16 251.518 34.4587 251.518 34.768C251.518 35.0453 251.443 35.3653 251.294 35.728C251.155 36.08 251.022 36.4427 250.894 36.816C250.862 36.8907 250.83 36.9547 250.798 37.008C250.766 37.0613 250.697 37.088 250.59 37.088C250.473 37.088 250.329 37.0347 250.158 36.928C249.987 36.8107 249.817 36.672 249.646 36.512C249.486 36.352 249.353 36.192 249.246 36.032C249.139 35.872 249.086 35.7493 249.086 35.664C249.097 35.5147 249.145 35.328 249.23 35.104C249.326 34.88 249.454 34.6507 249.614 34.416C249.326 34.3627 249.049 34.4693 248.782 34.736C248.526 35.0027 248.297 35.376 248.094 35.856C247.891 36.3253 247.726 36.8427 247.598 37.408C247.481 37.9733 247.422 38.528 247.422 39.072C247.422 39.2427 247.427 39.4133 247.438 39.584C247.449 39.7547 247.47 39.9147 247.502 40.064C247.673 40.1067 247.854 40.128 248.046 40.128C248.441 40.128 248.787 40.048 249.086 39.888C249.395 39.7173 249.657 39.52 249.87 39.296C250.094 39.072 250.27 38.88 250.398 38.72C250.537 38.5493 250.633 38.464 250.686 38.464C250.899 38.464 251.075 38.544 251.214 38.704C251.353 38.864 251.422 39.0827 251.422 39.36C251.422 39.8613 251.278 40.3307 250.99 40.768C250.702 41.2053 250.323 41.5573 249.854 41.824C249.385 42.08 248.867 42.208 248.302 42.208ZM259.568 42.224C259.077 42.224 258.661 42.0427 258.32 41.68C257.989 41.3067 257.824 40.8533 257.824 40.32C257.824 40.0533 257.84 39.696 257.872 39.248C257.915 38.8 257.979 38.32 258.064 37.808C258.16 37.296 258.288 36.816 258.448 36.368C258 36.816 257.589 37.3493 257.216 37.968C256.853 38.5867 256.517 39.2533 256.208 39.968C255.909 40.6827 255.627 41.4133 255.36 42.16C255.072 42.128 254.843 42.0587 254.672 41.952C254.501 41.8347 254.347 41.6853 254.208 41.504C253.92 41.3013 253.733 41.0773 253.648 40.832C253.563 40.5867 253.52 40.304 253.52 39.984C253.52 39.5893 253.531 39.0773 253.552 38.448C253.584 37.808 253.621 37.1147 253.664 36.368C253.717 35.6213 253.771 34.8747 253.824 34.128C253.888 33.3707 253.952 32.672 254.016 32.032C254.091 31.392 254.165 30.8693 254.24 30.464C254.293 30.144 254.363 29.92 254.448 29.792C254.544 29.664 254.704 29.6 254.928 29.6C255.12 29.6 255.333 29.664 255.568 29.792C255.803 29.9093 256.005 30.096 256.176 30.352C256.347 30.5973 256.432 30.9227 256.432 31.328C256.432 31.3707 256.432 31.4187 256.432 31.472C256.432 31.5253 256.427 31.5787 256.416 31.632L255.728 37.392H255.76C256.048 36.7307 256.363 36.1227 256.704 35.568C257.045 35.0133 257.381 34.5707 257.712 34.24C258.043 33.8987 258.341 33.728 258.608 33.728C258.811 33.728 259.019 33.776 259.232 33.872C259.445 33.9573 259.621 34.0907 259.76 34.272C260.037 34.3787 260.245 34.5387 260.384 34.752C260.533 34.9547 260.592 35.1627 260.56 35.376C260.496 35.8027 260.416 36.3307 260.32 36.96C260.235 37.5893 260.155 38.2667 260.08 38.992C260.016 39.7173 259.984 40.432 259.984 41.136C259.984 41.3067 259.989 41.4773 260 41.648C260.021 41.8187 260.037 41.9787 260.048 42.128C259.888 42.192 259.728 42.224 259.568 42.224ZM264.593 42.224C264.262 42.224 263.947 42.1653 263.649 42.048C263.361 41.9413 263.126 41.728 262.945 41.408C262.614 41.2267 262.385 41.024 262.257 40.8C262.139 40.5653 262.081 40.304 262.081 40.016C262.081 39.3973 262.225 38.848 262.513 38.368C262.811 37.888 263.206 37.5093 263.697 37.232C264.187 36.9547 264.726 36.816 265.313 36.816C265.558 36.816 265.793 36.832 266.017 36.864C266.251 36.8853 266.491 36.9547 266.737 37.072C266.769 36.8587 266.806 36.592 266.849 36.272C266.891 35.952 266.913 35.6533 266.913 35.376C266.913 35.1307 266.886 34.928 266.833 34.768C266.79 34.5973 266.699 34.512 266.561 34.512C266.379 34.512 266.209 34.5707 266.049 34.688C265.889 34.7947 265.729 34.928 265.569 35.088C265.419 35.2373 265.259 35.3707 265.089 35.488C264.929 35.5947 264.753 35.648 264.561 35.648C264.347 35.648 264.097 35.5733 263.809 35.424C263.531 35.2747 263.291 35.0987 263.089 34.896C262.886 34.6827 262.785 34.496 262.785 34.336C262.785 34.2293 262.886 34.0853 263.089 33.904C263.291 33.7227 263.563 33.536 263.905 33.344C264.246 33.152 264.625 32.992 265.041 32.864C265.457 32.7253 265.878 32.656 266.305 32.656C266.582 32.656 266.854 32.6933 267.121 32.768C267.387 32.8427 267.638 32.9653 267.873 33.136C268.385 33.2853 268.753 33.5253 268.977 33.856C269.211 34.1867 269.329 34.6667 269.329 35.296C269.329 35.488 269.307 35.824 269.265 36.304C269.233 36.784 269.19 37.344 269.137 37.984C269.083 38.6133 269.025 39.2693 268.961 39.952C268.95 40.208 268.977 40.5067 269.041 40.848C269.115 41.1787 269.153 41.4667 269.153 41.712C269.153 41.8613 269.126 41.984 269.073 42.08C269.019 42.176 268.918 42.224 268.769 42.224C268.577 42.224 268.347 42.176 268.081 42.08C267.814 41.9947 267.553 41.872 267.297 41.712C267.041 41.5413 266.833 41.3493 266.673 41.136C266.395 41.4453 266.075 41.7067 265.713 41.92C265.35 42.1227 264.977 42.224 264.593 42.224ZM264.753 40.224C264.923 40.224 265.131 40.176 265.377 40.08C265.622 39.984 265.862 39.8667 266.097 39.728C266.331 39.5787 266.518 39.4347 266.657 39.296L266.689 38.8C266.507 38.6187 266.294 38.528 266.049 38.528C265.814 38.528 265.574 38.608 265.329 38.768C265.083 38.9173 264.875 39.104 264.705 39.328C264.534 39.5413 264.449 39.7493 264.449 39.952C264.449 40.0587 264.475 40.1333 264.529 40.176C264.593 40.208 264.667 40.224 264.753 40.224ZM273.564 42.192C273.265 42.192 272.961 42.1013 272.652 41.92C272.353 41.728 272.07 41.4773 271.804 41.168C271.548 40.848 271.34 40.496 271.18 40.112C271.02 39.728 270.94 39.344 270.94 38.96C270.94 38.2027 271.046 37.4507 271.26 36.704C271.484 35.9573 271.788 35.28 272.172 34.672C272.566 34.064 273.03 33.5787 273.564 33.216C274.097 32.8533 274.673 32.672 275.292 32.672C275.569 32.672 275.873 32.7573 276.204 32.928C276.534 33.088 276.774 33.328 276.924 33.648C277.329 33.84 277.628 34.128 277.82 34.512C278.012 34.896 278.086 35.248 278.044 35.568C278.012 35.824 277.9 36.1173 277.708 36.448C277.516 36.768 277.27 37.0987 276.972 37.44C276.673 37.7707 276.342 38.08 275.98 38.368C275.617 38.6453 275.244 38.8747 274.86 39.056C274.486 39.2267 274.124 39.312 273.772 39.312C273.644 39.312 273.505 39.2693 273.356 39.184C273.388 39.5253 273.484 39.7707 273.644 39.92C273.814 40.0587 274.038 40.128 274.316 40.128C274.721 40.128 275.169 39.984 275.66 39.696C276.15 39.408 276.673 39.024 277.228 38.544C277.473 38.6613 277.66 38.816 277.788 39.008C277.916 39.1893 277.964 39.4187 277.932 39.696C277.889 40.016 277.718 40.3253 277.42 40.624C277.132 40.912 276.764 41.1787 276.316 41.424C275.878 41.6587 275.414 41.8453 274.924 41.984C274.444 42.1227 273.99 42.192 273.564 42.192ZM275.948 34.432C275.532 34.4533 275.153 34.6453 274.812 35.008C274.47 35.3707 274.182 35.8187 273.948 36.352C273.713 36.8747 273.542 37.3973 273.436 37.92C273.788 37.8453 274.118 37.664 274.428 37.376C274.748 37.0773 275.025 36.7413 275.26 36.368C275.505 35.984 275.692 35.616 275.82 35.264C275.948 34.9013 275.99 34.624 275.948 34.432ZM281.998 42.224C281.721 42.224 281.417 42.16 281.086 42.032C280.766 41.9147 280.489 41.7067 280.254 41.408C280.03 41.0987 279.918 40.672 279.918 40.128C279.918 40 279.929 39.7067 279.95 39.248C279.982 38.7893 280.019 38.224 280.062 37.552C280.115 36.88 280.169 36.1653 280.222 35.408C280.286 34.64 280.35 33.888 280.414 33.152C280.478 32.416 280.542 31.7547 280.606 31.168C280.67 30.5707 280.729 30.1173 280.782 29.808C280.803 29.7227 280.857 29.6693 280.942 29.648C281.027 29.616 281.102 29.6 281.166 29.6C281.401 29.6 281.667 29.6693 281.966 29.808C282.275 29.9467 282.537 30.16 282.75 30.448C282.974 30.736 283.065 31.104 283.022 31.552C283.001 31.7867 282.969 32.1547 282.926 32.656C282.883 33.1573 282.83 33.7387 282.766 34.4C282.713 35.0613 282.659 35.76 282.606 36.496C282.553 37.2213 282.499 37.936 282.446 38.64C282.403 39.344 282.366 39.9893 282.334 40.576C282.302 41.152 282.286 41.616 282.286 41.968C282.286 42.0213 282.259 42.0747 282.206 42.128C282.163 42.192 282.094 42.224 281.998 42.224ZM286.214 37.264C286.043 37.264 285.851 37.216 285.638 37.12C285.425 37.024 285.222 36.9067 285.03 36.768C284.838 36.6187 284.678 36.4747 284.55 36.336C284.422 36.1973 284.358 36.0907 284.358 36.016C284.358 35.8347 284.422 35.7173 284.55 35.664C284.689 35.6107 284.849 35.584 285.03 35.584C285.521 35.584 285.985 35.5787 286.422 35.568C286.859 35.5573 287.222 35.552 287.51 35.552C287.798 35.5413 287.963 35.536 288.006 35.536C288.337 35.536 288.651 35.6107 288.95 35.76C289.249 35.8987 289.494 36.064 289.686 36.256C289.878 36.4373 289.974 36.5973 289.974 36.736C289.974 36.8533 289.915 36.96 289.798 37.056C289.691 37.152 289.515 37.2053 289.27 37.216C288.758 37.2373 288.321 37.2533 287.958 37.264C287.606 37.264 287.291 37.264 287.014 37.264H286.214ZM294.308 42.24C294.009 42.2293 293.716 42.16 293.428 42.032C293.14 41.904 292.905 41.7067 292.724 41.44C292.425 41.2587 292.201 41.0293 292.052 40.752C291.902 40.464 291.844 40.1333 291.876 39.76C291.95 38.9707 292.025 38.128 292.1 37.232C292.185 36.3253 292.265 35.328 292.34 34.24C292.425 33.152 292.494 31.936 292.548 30.592C292.569 30.5067 292.633 30.448 292.74 30.416C292.857 30.384 292.985 30.3627 293.124 30.352C293.38 30.352 293.646 30.4427 293.924 30.624C294.201 30.8053 294.436 31.0773 294.628 31.44C294.82 31.8027 294.916 32.256 294.916 32.8C294.916 33.7813 294.852 34.8747 294.724 36.08C294.596 37.2853 294.468 38.6187 294.34 40.08H294.388C294.729 39.8347 295.097 39.616 295.492 39.424C295.886 39.232 296.265 39.136 296.628 39.136C296.841 39.136 297.081 39.1947 297.348 39.312C297.614 39.4187 297.849 39.5627 298.052 39.744C298.254 39.9147 298.356 40.1067 298.356 40.32C298.356 40.4587 298.292 40.5547 298.164 40.608L294.308 42.24ZM302.311 42.224C302.033 42.224 301.74 42.1707 301.431 42.064C301.132 41.9573 300.876 41.8027 300.663 41.6C300.46 41.3973 300.359 41.152 300.359 40.864C300.359 40.6933 300.369 40.3893 300.391 39.952C300.412 39.5147 300.439 39.008 300.471 38.432C300.503 37.8453 300.54 37.2427 300.583 36.624C300.625 35.9947 300.673 35.3973 300.727 34.832C300.78 34.2667 300.828 33.7867 300.871 33.392C300.881 33.3067 300.935 33.2533 301.031 33.232C301.127 33.2 301.207 33.184 301.271 33.184C301.516 33.184 301.788 33.2533 302.087 33.392C302.385 33.5307 302.641 33.7067 302.855 33.92C303.079 34.1333 303.191 34.3573 303.191 34.592C303.191 34.7307 303.169 35.008 303.127 35.424C303.084 35.8293 303.031 36.3147 302.967 36.88C302.913 37.4453 302.855 38.0373 302.791 38.656C302.737 39.2747 302.689 39.8773 302.647 40.464C302.604 41.04 302.583 41.5413 302.583 41.968C302.583 42.0213 302.561 42.0747 302.519 42.128C302.476 42.192 302.407 42.224 302.311 42.224ZM302.535 31.6C302.183 31.6 301.857 31.5627 301.559 31.488C301.271 31.4027 301.041 31.2533 300.871 31.04C300.711 30.8267 300.641 30.5227 300.663 30.128C300.684 29.9253 300.711 29.7067 300.743 29.472C300.785 29.2267 300.924 29.0773 301.159 29.024C301.287 29.0027 301.441 28.9867 301.623 28.976C301.804 28.9653 301.964 28.96 302.103 28.96C302.401 28.96 302.732 29.008 303.095 29.104C303.276 29.1467 303.367 29.216 303.367 29.312C303.367 29.5573 303.329 29.8453 303.255 30.176C303.18 30.5067 303.1 30.96 303.015 31.536C302.844 31.5787 302.684 31.6 302.535 31.6Z" fill="#EE5334"/>
<path d="M160.824 56.056C160.776 56.056 160.725 56.032 160.672 55.984C160.619 55.936 160.573 55.88 160.536 55.816C160.499 55.752 160.48 55.696 160.48 55.648C160.48 55.5893 160.512 55.4507 160.576 55.232C160.64 55.008 160.72 54.7227 160.816 54.376C160.917 54.0293 161.013 53.6453 161.104 53.224C161.003 53.2453 160.915 53.264 160.84 53.28C160.765 53.296 160.699 53.304 160.64 53.304C160.528 53.304 160.435 53.2613 160.36 53.176C160.285 53.0907 160.248 53.016 160.248 52.952C160.248 52.872 160.328 52.8027 160.488 52.744C160.653 52.6853 160.907 52.624 161.248 52.56C161.36 51.8613 161.483 51.32 161.616 50.936C161.755 50.5467 161.917 50.2747 162.104 50.12C162.296 49.9653 162.52 49.888 162.776 49.888C162.968 49.888 163.133 49.9413 163.272 50.048C163.411 50.1493 163.515 50.2853 163.584 50.456C163.659 50.6213 163.696 50.8 163.696 50.992C163.696 51.0933 163.677 51.184 163.64 51.264C163.603 51.3387 163.544 51.376 163.464 51.376C163.336 51.376 163.232 51.232 163.152 50.944C163.12 50.8053 163.069 50.6987 163 50.624C162.931 50.5493 162.853 50.512 162.768 50.512C162.715 50.512 162.659 50.5333 162.6 50.576C162.541 50.6187 162.477 50.704 162.408 50.832C162.339 50.96 162.267 51.1547 162.192 51.416C162.117 51.6773 162.037 52.024 161.952 52.456C162.069 52.44 162.181 52.4293 162.288 52.424C162.4 52.4187 162.501 52.416 162.592 52.416C162.741 52.416 162.861 52.4347 162.952 52.472C163.048 52.5093 163.096 52.5653 163.096 52.64C163.096 52.688 163.067 52.736 163.008 52.784C162.955 52.832 162.835 52.88 162.648 52.928C162.467 52.976 162.184 53.0267 161.8 53.08C161.421 54.616 161.163 55.5307 161.024 55.824C160.949 55.9787 160.883 56.056 160.824 56.056ZM164.576 56.056C164.48 56.056 164.405 56.0027 164.352 55.896C164.298 55.7893 164.272 55.696 164.272 55.616C164.272 55.4933 164.296 55.3573 164.344 55.208C164.392 55.0533 164.445 54.8773 164.504 54.68C164.562 54.4773 164.616 54.2427 164.664 53.976C164.712 53.7093 164.736 53.4 164.736 53.048C164.736 52.9467 164.73 52.8347 164.72 52.712C164.714 52.584 164.712 52.4693 164.712 52.368C164.712 52.288 164.725 52.2187 164.752 52.16C164.784 52.1013 164.829 52.072 164.888 52.072C165.016 52.072 165.12 52.1467 165.2 52.296C165.285 52.4453 165.328 52.6053 165.328 52.776C165.328 52.9093 165.32 53.0293 165.304 53.136C165.768 52.432 166.208 52.08 166.624 52.08C166.885 52.08 167.016 52.144 167.016 52.272C167.016 52.336 166.986 52.3973 166.928 52.456C166.874 52.5147 166.781 52.5733 166.648 52.632C166.466 52.7173 166.301 52.8267 166.152 52.96C166.002 53.0933 165.858 53.2747 165.72 53.504C165.586 53.728 165.45 54.0213 165.312 54.384C165.178 54.7467 165.032 55.1973 164.872 55.736C164.84 55.8427 164.797 55.9227 164.744 55.976C164.69 56.0293 164.634 56.056 164.576 56.056ZM169.373 56.04C169.095 56.04 168.85 55.984 168.637 55.872C168.429 55.7547 168.263 55.5973 168.141 55.4C168.023 55.2027 167.965 54.9787 167.965 54.728C167.965 54.5147 167.999 54.288 168.069 54.048C168.143 53.808 168.245 53.5733 168.373 53.344C168.506 53.1093 168.658 52.896 168.829 52.704C169.005 52.512 169.191 52.36 169.389 52.248C169.586 52.1307 169.791 52.072 170.005 52.072C170.165 52.072 170.317 52.1147 170.461 52.2C170.61 52.28 170.743 52.3867 170.861 52.52C170.983 52.6533 171.079 52.7973 171.149 52.952C171.218 53.1067 171.253 53.2533 171.253 53.392C171.253 53.568 171.202 53.7173 171.101 53.84C170.999 53.9627 170.869 54.064 170.709 54.144C170.549 54.2187 170.375 54.2747 170.189 54.312C170.007 54.344 169.837 54.36 169.677 54.36C169.33 54.36 169.005 54.3173 168.701 54.232C168.626 54.4667 168.589 54.6747 168.589 54.856C168.589 55.0427 168.645 55.1867 168.757 55.288C168.874 55.3893 169.066 55.44 169.333 55.44C169.525 55.44 169.711 55.416 169.893 55.368C170.074 55.32 170.229 55.2747 170.357 55.232C170.49 55.184 170.573 55.16 170.605 55.16C170.743 55.16 170.813 55.2133 170.813 55.32C170.813 55.3893 170.767 55.4667 170.677 55.552C170.586 55.6373 170.469 55.7173 170.325 55.792C170.181 55.8613 170.023 55.92 169.853 55.968C169.687 56.016 169.527 56.04 169.373 56.04ZM169.613 53.848C169.885 53.848 170.122 53.8053 170.325 53.72C170.527 53.6293 170.629 53.512 170.629 53.368C170.629 53.272 170.597 53.1733 170.533 53.072C170.474 52.9653 170.399 52.8773 170.309 52.808C170.218 52.7387 170.13 52.704 170.045 52.704C169.847 52.704 169.642 52.808 169.429 53.016C169.215 53.2187 169.034 53.472 168.885 53.776C169.098 53.824 169.341 53.848 169.613 53.848ZM173.974 56.04C173.697 56.04 173.451 55.984 173.238 55.872C173.03 55.7547 172.865 55.5973 172.742 55.4C172.625 55.2027 172.566 54.9787 172.566 54.728C172.566 54.5147 172.601 54.288 172.67 54.048C172.745 53.808 172.846 53.5733 172.974 53.344C173.107 53.1093 173.259 52.896 173.43 52.704C173.606 52.512 173.793 52.36 173.99 52.248C174.187 52.1307 174.393 52.072 174.606 52.072C174.766 52.072 174.918 52.1147 175.062 52.2C175.211 52.28 175.345 52.3867 175.462 52.52C175.585 52.6533 175.681 52.7973 175.75 52.952C175.819 53.1067 175.854 53.2533 175.854 53.392C175.854 53.568 175.803 53.7173 175.702 53.84C175.601 53.9627 175.47 54.064 175.31 54.144C175.15 54.2187 174.977 54.2747 174.79 54.312C174.609 54.344 174.438 54.36 174.278 54.36C173.931 54.36 173.606 54.3173 173.302 54.232C173.227 54.4667 173.19 54.6747 173.19 54.856C173.19 55.0427 173.246 55.1867 173.358 55.288C173.475 55.3893 173.667 55.44 173.934 55.44C174.126 55.44 174.313 55.416 174.494 55.368C174.675 55.32 174.83 55.2747 174.958 55.232C175.091 55.184 175.174 55.16 175.206 55.16C175.345 55.16 175.414 55.2133 175.414 55.32C175.414 55.3893 175.369 55.4667 175.278 55.552C175.187 55.6373 175.07 55.7173 174.926 55.792C174.782 55.8613 174.625 55.92 174.454 55.968C174.289 56.016 174.129 56.04 173.974 56.04ZM174.214 53.848C174.486 53.848 174.723 53.8053 174.926 53.72C175.129 53.6293 175.23 53.512 175.23 53.368C175.23 53.272 175.198 53.1733 175.134 53.072C175.075 52.9653 175.001 52.8773 174.91 52.808C174.819 52.7387 174.731 52.704 174.646 52.704C174.449 52.704 174.243 52.808 174.03 53.016C173.817 53.2187 173.635 53.472 173.486 53.776C173.699 53.824 173.942 53.848 174.214 53.848ZM177.656 56.04C177.608 56.04 177.552 56.0133 177.488 55.96C177.424 55.9013 177.368 55.8373 177.32 55.768C177.272 55.6933 177.248 55.6347 177.248 55.592C177.248 55.5653 177.269 55.4613 177.312 55.28C177.36 55.0987 177.418 54.8587 177.488 54.56C177.557 54.2613 177.632 53.928 177.712 53.56C177.792 53.1867 177.866 52.7973 177.936 52.392C178.005 51.9813 178.061 51.576 178.104 51.176C178.152 50.7707 178.176 50.392 178.176 50.04C178.176 49.9653 178.186 49.912 178.208 49.88C178.229 49.848 178.274 49.832 178.344 49.832C178.392 49.832 178.453 49.8693 178.528 49.944C178.608 50.0133 178.68 50.1013 178.744 50.208C178.808 50.3093 178.84 50.408 178.84 50.504C178.84 50.872 178.816 51.264 178.768 51.68C178.72 52.0907 178.656 52.504 178.576 52.92C178.496 53.3307 178.408 53.7227 178.312 54.096C178.221 54.4693 178.13 54.8027 178.04 55.096C177.954 55.3893 177.877 55.6213 177.808 55.792C177.738 55.9573 177.688 56.04 177.656 56.04ZM181.113 56.04C180.953 56.04 180.787 55.992 180.617 55.896C180.451 55.7947 180.313 55.6693 180.201 55.52C180.089 55.3707 180.033 55.2213 180.033 55.072C180.033 54.8373 180.083 54.584 180.185 54.312C180.286 54.04 180.422 53.7733 180.593 53.512C180.763 53.2453 180.95 53.0053 181.153 52.792C181.355 52.5733 181.561 52.4 181.769 52.272C181.982 52.1387 182.177 52.072 182.353 52.072C182.593 52.072 182.814 52.192 183.017 52.432C183.113 52.5493 183.187 52.6613 183.241 52.768C183.294 52.8693 183.321 52.9707 183.321 53.072C183.321 53.1733 183.305 53.2747 183.273 53.376C183.246 53.4773 183.195 53.5813 183.121 53.688C183.185 53.768 183.217 53.8373 183.217 53.896C183.217 54.0933 183.182 54.352 183.113 54.672C183.049 54.9867 182.985 55.376 182.921 55.84C182.905 55.9733 182.857 56.04 182.777 56.04C182.713 56.04 182.657 56.008 182.609 55.944C182.566 55.8747 182.531 55.7893 182.505 55.688C182.483 55.5867 182.465 55.4853 182.449 55.384C182.438 55.2827 182.433 55.2 182.433 55.136C181.958 55.7387 181.518 56.04 181.113 56.04ZM181.081 55.376C181.251 55.376 181.435 55.2987 181.633 55.144C181.835 54.9893 182.025 54.7813 182.201 54.52C182.377 54.2533 182.505 53.9573 182.585 53.632C182.601 53.5573 182.646 53.5067 182.721 53.48C182.721 52.984 182.622 52.736 182.425 52.736C182.291 52.736 182.147 52.7947 181.993 52.912C181.838 53.024 181.686 53.1733 181.537 53.36C181.387 53.5413 181.249 53.7387 181.121 53.952C180.993 54.1653 180.891 54.3707 180.817 54.568C180.742 54.7653 180.705 54.9333 180.705 55.072C180.705 55.1627 180.742 55.2373 180.817 55.296C180.891 55.3493 180.979 55.376 181.081 55.376ZM185.335 56.04C185.281 56.04 185.22 56.0133 185.151 55.96C185.087 55.9013 185.031 55.832 184.983 55.752C184.935 55.672 184.911 55.6027 184.911 55.544C184.911 55.5067 184.94 55.4027 184.999 55.232C185.057 55.056 185.127 54.832 185.207 54.56C185.287 54.288 185.356 53.9867 185.415 53.656C185.473 53.32 185.503 52.976 185.503 52.624C185.503 52.2347 185.559 52.04 185.671 52.04C185.751 52.04 185.831 52.0693 185.911 52.128C185.991 52.1867 186.057 52.2613 186.111 52.352C186.169 52.4373 186.199 52.528 186.199 52.624C186.199 52.72 186.177 52.8827 186.135 53.112C186.097 53.3413 186.044 53.5947 185.975 53.872C185.911 54.144 185.839 54.4027 185.759 54.648H185.783C186.06 54.1627 186.3 53.7627 186.503 53.448C186.711 53.1333 186.887 52.8827 187.031 52.696C187.175 52.5093 187.295 52.3733 187.391 52.288C187.492 52.1973 187.575 52.1387 187.639 52.112C187.703 52.0853 187.759 52.072 187.807 52.072C187.945 52.072 188.079 52.1253 188.207 52.232C188.34 52.3333 188.449 52.4613 188.535 52.616C188.62 52.7707 188.663 52.9307 188.663 53.096C188.663 53.2293 188.641 53.416 188.599 53.656C188.556 53.8907 188.497 54.144 188.423 54.416C188.353 54.688 188.271 54.9493 188.175 55.2C188.079 55.4453 187.975 55.648 187.863 55.808C187.756 55.9627 187.647 56.04 187.535 56.04C187.417 56.04 187.359 55.96 187.359 55.8C187.359 55.672 187.391 55.5093 187.455 55.312C187.519 55.1093 187.593 54.8933 187.679 54.664C187.764 54.4293 187.839 54.1973 187.903 53.968C187.967 53.7387 187.999 53.5307 187.999 53.344C187.999 53.248 187.98 53.144 187.943 53.032C187.911 52.9147 187.855 52.856 187.775 52.856C187.727 52.856 187.676 52.8693 187.623 52.896C187.569 52.9227 187.5 52.9867 187.415 53.088C187.329 53.184 187.215 53.336 187.071 53.544C186.927 53.7467 186.74 54.0267 186.511 54.384C186.281 54.7413 185.993 55.1947 185.647 55.744C185.577 55.8507 185.516 55.928 185.463 55.976C185.415 56.0187 185.372 56.04 185.335 56.04ZM191.536 56.04C191.328 56.04 191.126 55.984 190.928 55.872C190.731 55.76 190.568 55.6107 190.44 55.424C190.312 55.2373 190.248 55.032 190.248 54.808C190.248 54.6053 190.291 54.3813 190.376 54.136C190.462 53.8907 190.579 53.648 190.728 53.408C190.878 53.1627 191.048 52.9387 191.24 52.736C191.432 52.5333 191.635 52.3733 191.848 52.256C192.062 52.1333 192.275 52.072 192.488 52.072C192.632 52.072 192.766 52.12 192.888 52.216C193.016 52.3067 193.118 52.416 193.192 52.544C193.272 52.672 193.312 52.7867 193.312 52.888C193.312 52.9413 193.296 52.9813 193.264 53.008C193.232 53.0293 193.195 53.04 193.152 53.04C193.099 53.04 193.043 53.016 192.984 52.968C192.926 52.92 192.862 52.872 192.792 52.824C192.723 52.776 192.64 52.752 192.544 52.752C192.427 52.752 192.299 52.8 192.16 52.896C192.022 52.9867 191.88 53.112 191.736 53.272C191.598 53.4267 191.47 53.5973 191.352 53.784C191.235 53.9653 191.139 54.1493 191.064 54.336C190.995 54.5227 190.96 54.6907 190.96 54.84C190.96 55.0053 191.011 55.136 191.112 55.232C191.219 55.328 191.39 55.376 191.624 55.376C191.88 55.376 192.094 55.3493 192.264 55.296C192.44 55.2373 192.582 55.1813 192.688 55.128C192.8 55.0693 192.891 55.04 192.96 55.04C193.062 55.04 193.112 55.0907 193.112 55.192C193.112 55.272 193.059 55.36 192.952 55.456C192.851 55.552 192.718 55.6453 192.552 55.736C192.392 55.8213 192.222 55.8933 192.04 55.952C191.859 56.0107 191.691 56.04 191.536 56.04ZM196.115 56.04C195.837 56.04 195.592 55.984 195.379 55.872C195.171 55.7547 195.005 55.5973 194.883 55.4C194.765 55.2027 194.707 54.9787 194.707 54.728C194.707 54.5147 194.741 54.288 194.811 54.048C194.885 53.808 194.987 53.5733 195.115 53.344C195.248 53.1093 195.4 52.896 195.571 52.704C195.747 52.512 195.933 52.36 196.131 52.248C196.328 52.1307 196.533 52.072 196.747 52.072C196.907 52.072 197.059 52.1147 197.203 52.2C197.352 52.28 197.485 52.3867 197.603 52.52C197.725 52.6533 197.821 52.7973 197.891 52.952C197.96 53.1067 197.995 53.2533 197.995 53.392C197.995 53.568 197.944 53.7173 197.843 53.84C197.741 53.9627 197.611 54.064 197.451 54.144C197.291 54.2187 197.117 54.2747 196.931 54.312C196.749 54.344 196.579 54.36 196.419 54.36C196.072 54.36 195.747 54.3173 195.443 54.232C195.368 54.4667 195.331 54.6747 195.331 54.856C195.331 55.0427 195.387 55.1867 195.499 55.288C195.616 55.3893 195.808 55.44 196.075 55.44C196.267 55.44 196.453 55.416 196.635 55.368C196.816 55.32 196.971 55.2747 197.099 55.232C197.232 55.184 197.315 55.16 197.347 55.16C197.485 55.16 197.555 55.2133 197.555 55.32C197.555 55.3893 197.509 55.4667 197.419 55.552C197.328 55.6373 197.211 55.7173 197.067 55.792C196.923 55.8613 196.765 55.92 196.595 55.968C196.429 56.016 196.269 56.04 196.115 56.04ZM196.355 53.848C196.627 53.848 196.864 53.8053 197.067 53.72C197.269 53.6293 197.371 53.512 197.371 53.368C197.371 53.272 197.339 53.1733 197.275 53.072C197.216 52.9653 197.141 52.8773 197.051 52.808C196.96 52.7387 196.872 52.704 196.787 52.704C196.589 52.704 196.384 52.808 196.171 53.016C195.957 53.2187 195.776 53.472 195.627 53.776C195.84 53.824 196.083 53.848 196.355 53.848ZM199.724 56.056C199.628 56.056 199.554 56.0027 199.5 55.896C199.447 55.7893 199.42 55.696 199.42 55.616C199.42 55.4933 199.444 55.3573 199.492 55.208C199.54 55.0533 199.594 54.8773 199.652 54.68C199.711 54.4773 199.764 54.2427 199.812 53.976C199.86 53.7093 199.884 53.4 199.884 53.048C199.884 52.9467 199.879 52.8347 199.868 52.712C199.863 52.584 199.86 52.4693 199.86 52.368C199.86 52.288 199.874 52.2187 199.9 52.16C199.932 52.1013 199.978 52.072 200.036 52.072C200.164 52.072 200.268 52.1467 200.348 52.296C200.434 52.4453 200.476 52.6053 200.476 52.776C200.476 52.9093 200.468 53.0293 200.452 53.136C200.916 52.432 201.356 52.08 201.772 52.08C202.034 52.08 202.164 52.144 202.164 52.272C202.164 52.336 202.135 52.3973 202.076 52.456C202.023 52.5147 201.93 52.5733 201.796 52.632C201.615 52.7173 201.45 52.8267 201.3 52.96C201.151 53.0933 201.007 53.2747 200.868 53.504C200.735 53.728 200.599 54.0213 200.46 54.384C200.327 54.7467 200.18 55.1973 200.02 55.736C199.988 55.8427 199.946 55.9227 199.892 55.976C199.839 56.0293 199.783 56.056 199.724 56.056ZM207.82 54.432C207.585 54.432 207.383 54.3467 207.212 54.176C207.047 54.0053 206.964 53.8027 206.964 53.568C206.964 53.3333 207.047 53.1333 207.212 52.968C207.383 52.7973 207.585 52.712 207.82 52.712C208.055 52.712 208.257 52.7973 208.428 52.968C208.599 53.1333 208.684 53.3333 208.684 53.568C208.684 53.7227 208.644 53.8667 208.564 54C208.489 54.1333 208.385 54.24 208.252 54.32C208.124 54.3947 207.98 54.432 207.82 54.432ZM214.504 56.056C214.456 56.056 214.405 56.032 214.352 55.984C214.298 55.936 214.253 55.88 214.216 55.816C214.178 55.752 214.16 55.696 214.16 55.648C214.16 55.5893 214.192 55.4507 214.256 55.232C214.32 55.008 214.4 54.7227 214.496 54.376C214.597 54.0293 214.693 53.6453 214.784 53.224C214.682 53.2453 214.594 53.264 214.52 53.28C214.445 53.296 214.378 53.304 214.32 53.304C214.208 53.304 214.114 53.2613 214.04 53.176C213.965 53.0907 213.928 53.016 213.928 52.952C213.928 52.872 214.008 52.8027 214.168 52.744C214.333 52.6853 214.586 52.624 214.928 52.56C215.04 51.8613 215.162 51.32 215.296 50.936C215.434 50.5467 215.597 50.2747 215.784 50.12C215.976 49.9653 216.2 49.888 216.456 49.888C216.648 49.888 216.813 49.9413 216.952 50.048C217.09 50.1493 217.194 50.2853 217.264 50.456C217.338 50.6213 217.376 50.8 217.376 50.992C217.376 51.0933 217.357 51.184 217.32 51.264C217.282 51.3387 217.224 51.376 217.144 51.376C217.016 51.376 216.912 51.232 216.832 50.944C216.8 50.8053 216.749 50.6987 216.68 50.624C216.61 50.5493 216.533 50.512 216.448 50.512C216.394 50.512 216.338 50.5333 216.28 50.576C216.221 50.6187 216.157 50.704 216.088 50.832C216.018 50.96 215.946 51.1547 215.872 51.416C215.797 51.6773 215.717 52.024 215.632 52.456C215.749 52.44 215.861 52.4293 215.968 52.424C216.08 52.4187 216.181 52.416 216.272 52.416C216.421 52.416 216.541 52.4347 216.632 52.472C216.728 52.5093 216.776 52.5653 216.776 52.64C216.776 52.688 216.746 52.736 216.688 52.784C216.634 52.832 216.514 52.88 216.328 52.928C216.146 52.976 215.864 53.0267 215.48 53.08C215.101 54.616 214.842 55.5307 214.704 55.824C214.629 55.9787 214.562 56.056 214.504 56.056ZM218.72 56.04C218.549 56.04 218.394 55.992 218.256 55.896C218.122 55.8 218.016 55.68 217.936 55.536C217.856 55.392 217.816 55.2507 217.816 55.112C217.816 54.9093 217.842 54.6773 217.896 54.416C217.949 54.1493 218.021 53.88 218.112 53.608C218.202 53.3307 218.298 53.0773 218.4 52.848C218.506 52.6187 218.61 52.432 218.712 52.288C218.818 52.144 218.914 52.072 219 52.072C219.096 52.072 219.178 52.1173 219.248 52.208C219.322 52.2933 219.36 52.392 219.36 52.504C219.36 52.5467 219.288 52.7173 219.144 53.016C219.048 53.2133 218.949 53.4373 218.848 53.688C218.752 53.9333 218.669 54.1813 218.6 54.432C218.53 54.6773 218.496 54.9013 218.496 55.104C218.496 55.1893 218.522 55.2613 218.576 55.32C218.629 55.3733 218.693 55.4 218.768 55.4C218.976 55.4 219.218 55.2213 219.496 54.864C219.682 54.624 219.858 54.3573 220.024 54.064C220.189 53.7707 220.336 53.4693 220.464 53.16C220.592 52.8507 220.693 52.5627 220.768 52.296C220.789 52.2107 220.81 52.152 220.832 52.12C220.858 52.088 220.906 52.072 220.976 52.072C221.024 52.072 221.08 52.1067 221.144 52.176C221.213 52.24 221.272 52.32 221.32 52.416C221.368 52.5067 221.392 52.5947 221.392 52.68C221.392 52.7067 221.373 52.7893 221.336 52.928C221.298 53.0613 221.248 53.2293 221.184 53.432C221.125 53.6347 221.061 53.8533 220.992 54.088C220.922 54.3173 220.853 54.5413 220.784 54.76C220.714 54.9787 220.653 55.1733 220.6 55.344C220.552 55.5093 220.517 55.6293 220.496 55.704C220.432 55.928 220.341 56.04 220.224 56.04C220.133 56.04 220.066 56.0027 220.024 55.928C219.986 55.848 219.968 55.7547 219.968 55.648C219.968 55.5573 219.989 55.4293 220.032 55.264C220.074 55.0987 220.117 54.9413 220.16 54.792C219.936 55.1547 219.693 55.4533 219.432 55.688C219.176 55.9227 218.938 56.04 218.72 56.04ZM223.179 56.04C223.131 56.04 223.075 56.0133 223.011 55.96C222.947 55.9013 222.891 55.8373 222.843 55.768C222.795 55.6933 222.771 55.6347 222.771 55.592C222.771 55.5653 222.792 55.4613 222.835 55.28C222.883 55.0987 222.942 54.8587 223.011 54.56C223.08 54.2613 223.155 53.928 223.235 53.56C223.315 53.1867 223.39 52.7973 223.459 52.392C223.528 51.9813 223.584 51.576 223.627 51.176C223.675 50.7707 223.699 50.392 223.699 50.04C223.699 49.9653 223.71 49.912 223.731 49.88C223.752 49.848 223.798 49.832 223.867 49.832C223.915 49.832 223.976 49.8693 224.051 49.944C224.131 50.0133 224.203 50.1013 224.267 50.208C224.331 50.3093 224.363 50.408 224.363 50.504C224.363 50.872 224.339 51.264 224.291 51.68C224.243 52.0907 224.179 52.504 224.099 52.92C224.019 53.3307 223.931 53.7227 223.835 54.096C223.744 54.4693 223.654 54.8027 223.563 55.096C223.478 55.3893 223.4 55.6213 223.331 55.792C223.262 55.9573 223.211 56.04 223.179 56.04ZM226.14 56.04C226.092 56.04 226.036 56.0133 225.972 55.96C225.908 55.9013 225.852 55.8373 225.804 55.768C225.756 55.6933 225.732 55.6347 225.732 55.592C225.732 55.5653 225.753 55.4613 225.796 55.28C225.844 55.0987 225.903 54.8587 225.972 54.56C226.041 54.2613 226.116 53.928 226.196 53.56C226.276 53.1867 226.351 52.7973 226.42 52.392C226.489 51.9813 226.545 51.576 226.588 51.176C226.636 50.7707 226.66 50.392 226.66 50.04C226.66 49.9653 226.671 49.912 226.692 49.88C226.713 49.848 226.759 49.832 226.828 49.832C226.876 49.832 226.937 49.8693 227.012 49.944C227.092 50.0133 227.164 50.1013 227.228 50.208C227.292 50.3093 227.324 50.408 227.324 50.504C227.324 50.872 227.3 51.264 227.252 51.68C227.204 52.0907 227.14 52.504 227.06 52.92C226.98 53.3307 226.892 53.7227 226.796 54.096C226.705 54.4693 226.615 54.8027 226.524 55.096C226.439 55.3893 226.361 55.6213 226.292 55.792C226.223 55.9573 226.172 56.04 226.14 56.04ZM233.52 56.04C233.264 56.04 233.024 55.9973 232.8 55.912C232.576 55.8213 232.395 55.712 232.256 55.584C232.117 55.456 232.048 55.3387 232.048 55.232C232.048 55.1787 232.061 55.128 232.088 55.08C232.12 55.032 232.163 55.008 232.216 55.008C232.296 55.008 232.379 55.0427 232.464 55.112C232.549 55.1813 232.661 55.2507 232.8 55.32C232.939 55.3893 233.125 55.424 233.36 55.424C233.643 55.424 233.859 55.392 234.008 55.328C234.163 55.2587 234.24 55.1573 234.24 55.024C234.24 54.9013 234.163 54.7733 234.008 54.64C233.859 54.5067 233.691 54.3867 233.504 54.28C233.323 54.1733 233.152 54.0427 232.992 53.888C232.837 53.7333 232.76 53.576 232.76 53.416C232.76 53.272 232.824 53.1227 232.952 52.968C233.08 52.8133 233.24 52.6693 233.432 52.536C233.624 52.3973 233.819 52.2853 234.016 52.2C234.219 52.1147 234.392 52.072 234.536 52.072C234.659 52.072 234.776 52.12 234.888 52.216C235.005 52.312 235.101 52.424 235.176 52.552C235.251 52.68 235.288 52.7947 235.288 52.896C235.288 52.9867 235.245 53.032 235.16 53.032C235.101 53.032 235.04 53.008 234.976 52.96C234.912 52.912 234.84 52.8667 234.76 52.824C234.685 52.776 234.603 52.752 234.512 52.752C234.448 52.752 234.36 52.7733 234.248 52.816C234.136 52.8533 234.021 52.9067 233.904 52.976C233.792 53.0453 233.696 53.1227 233.616 53.208C233.536 53.288 233.496 53.368 233.496 53.448C233.496 53.5707 233.741 53.7813 234.232 54.08C234.419 54.1973 234.587 54.3493 234.736 54.536C234.891 54.7173 234.968 54.912 234.968 55.12C234.968 55.2587 234.901 55.4 234.768 55.544C234.635 55.688 234.456 55.808 234.232 55.904C234.013 55.9947 233.776 56.04 233.52 56.04ZM237.758 56.04C237.588 56.04 237.433 56.008 237.294 55.944C237.156 55.8747 237.046 55.7893 236.966 55.688C236.892 55.5867 236.854 55.488 236.854 55.392C236.854 55.1573 236.921 54.84 237.054 54.44C237.193 54.04 237.345 53.544 237.51 52.952C237.388 52.9787 237.284 53 237.198 53.016C237.113 53.032 237.049 53.04 237.006 53.04C236.921 53.04 236.836 52.9973 236.75 52.912C236.67 52.8213 236.63 52.736 236.63 52.656C236.63 52.528 236.977 52.4053 237.67 52.288C237.766 51.8453 237.814 51.4533 237.814 51.112C237.814 50.952 237.868 50.872 237.974 50.872C238.017 50.872 238.078 50.8933 238.158 50.936C238.244 50.9787 238.324 51.0427 238.398 51.128C238.473 51.2133 238.51 51.3227 238.51 51.456C238.51 51.5413 238.497 51.6453 238.47 51.768C238.449 51.8853 238.417 52.0267 238.374 52.192C238.529 52.1813 238.665 52.1707 238.782 52.16C238.905 52.1493 239.012 52.144 239.102 52.144C239.422 52.144 239.582 52.216 239.582 52.36C239.582 52.3867 239.55 52.424 239.486 52.472C239.428 52.5147 239.302 52.5653 239.11 52.624C238.918 52.6773 238.625 52.7387 238.23 52.808C238.209 52.8933 238.172 53.0267 238.118 53.208C238.065 53.3893 238.006 53.592 237.942 53.816C237.878 54.0347 237.817 54.248 237.758 54.456C237.7 54.664 237.649 54.84 237.606 54.984C237.569 55.128 237.55 55.2133 237.55 55.24C237.55 55.3413 237.609 55.392 237.726 55.392C237.838 55.392 237.958 55.376 238.086 55.344C238.214 55.3067 238.34 55.2667 238.462 55.224C238.585 55.176 238.689 55.136 238.774 55.104C238.865 55.0667 238.924 55.048 238.95 55.048C239.046 55.048 239.094 55.0987 239.094 55.2C239.094 55.28 239.049 55.368 238.958 55.464C238.873 55.56 238.758 55.6533 238.614 55.744C238.476 55.8293 238.329 55.9013 238.174 55.96C238.025 56.0133 237.886 56.04 237.758 56.04ZM241.636 56.04C241.476 56.04 241.311 55.992 241.14 55.896C240.975 55.7947 240.836 55.6693 240.724 55.52C240.612 55.3707 240.556 55.2213 240.556 55.072C240.556 54.8373 240.607 54.584 240.708 54.312C240.809 54.04 240.945 53.7733 241.116 53.512C241.287 53.2453 241.473 53.0053 241.676 52.792C241.879 52.5733 242.084 52.4 242.292 52.272C242.505 52.1387 242.7 52.072 242.876 52.072C243.116 52.072 243.337 52.192 243.54 52.432C243.636 52.5493 243.711 52.6613 243.764 52.768C243.817 52.8693 243.844 52.9707 243.844 53.072C243.844 53.1733 243.828 53.2747 243.796 53.376C243.769 53.4773 243.719 53.5813 243.644 53.688C243.708 53.768 243.74 53.8373 243.74 53.896C243.74 54.0933 243.705 54.352 243.636 54.672C243.572 54.9867 243.508 55.376 243.444 55.84C243.428 55.9733 243.38 56.04 243.3 56.04C243.236 56.04 243.18 56.008 243.132 55.944C243.089 55.8747 243.055 55.7893 243.028 55.688C243.007 55.5867 242.988 55.4853 242.972 55.384C242.961 55.2827 242.956 55.2 242.956 55.136C242.481 55.7387 242.041 56.04 241.636 56.04ZM241.604 55.376C241.775 55.376 241.959 55.2987 242.156 55.144C242.359 54.9893 242.548 54.7813 242.724 54.52C242.9 54.2533 243.028 53.9573 243.108 53.632C243.124 53.5573 243.169 53.5067 243.244 53.48C243.244 52.984 243.145 52.736 242.948 52.736C242.815 52.736 242.671 52.7947 242.516 52.912C242.361 53.024 242.209 53.1733 242.06 53.36C241.911 53.5413 241.772 53.7387 241.644 53.952C241.516 54.1653 241.415 54.3707 241.34 54.568C241.265 54.7653 241.228 54.9333 241.228 55.072C241.228 55.1627 241.265 55.2373 241.34 55.296C241.415 55.3493 241.503 55.376 241.604 55.376ZM246.794 56.04C246.586 56.04 246.383 55.984 246.186 55.872C245.989 55.76 245.826 55.6107 245.698 55.424C245.57 55.2373 245.506 55.032 245.506 54.808C245.506 54.6053 245.549 54.3813 245.634 54.136C245.719 53.8907 245.837 53.648 245.986 53.408C246.135 53.1627 246.306 52.9387 246.498 52.736C246.69 52.5333 246.893 52.3733 247.106 52.256C247.319 52.1333 247.533 52.072 247.746 52.072C247.89 52.072 248.023 52.12 248.146 52.216C248.274 52.3067 248.375 52.416 248.45 52.544C248.53 52.672 248.57 52.7867 248.57 52.888C248.57 52.9413 248.554 52.9813 248.522 53.008C248.49 53.0293 248.453 53.04 248.41 53.04C248.357 53.04 248.301 53.016 248.242 52.968C248.183 52.92 248.119 52.872 248.05 52.824C247.981 52.776 247.898 52.752 247.802 52.752C247.685 52.752 247.557 52.8 247.418 52.896C247.279 52.9867 247.138 53.112 246.994 53.272C246.855 53.4267 246.727 53.5973 246.61 53.784C246.493 53.9653 246.397 54.1493 246.322 54.336C246.253 54.5227 246.218 54.6907 246.218 54.84C246.218 55.0053 246.269 55.136 246.37 55.232C246.477 55.328 246.647 55.376 246.882 55.376C247.138 55.376 247.351 55.3493 247.522 55.296C247.698 55.2373 247.839 55.1813 247.946 55.128C248.058 55.0693 248.149 55.04 248.218 55.04C248.319 55.04 248.37 55.0907 248.37 55.192C248.37 55.272 248.317 55.36 248.21 55.456C248.109 55.552 247.975 55.6453 247.81 55.736C247.65 55.8213 247.479 55.8933 247.298 55.952C247.117 56.0107 246.949 56.04 246.794 56.04ZM250.453 56.04C250.399 56.04 250.341 56.0107 250.277 55.952C250.213 55.888 250.157 55.816 250.109 55.736C250.066 55.656 250.045 55.5893 250.045 55.536C250.045 55.4613 250.066 55.3467 250.109 55.192C250.157 55.0373 250.223 54.808 250.309 54.504C250.394 54.2 250.482 53.8613 250.573 53.488C250.663 53.1147 250.746 52.728 250.821 52.328C250.901 51.928 250.965 51.5333 251.013 51.144C251.061 50.7547 251.085 50.392 251.085 50.056C251.085 49.9707 251.095 49.912 251.117 49.88C251.143 49.848 251.197 49.832 251.277 49.832C251.33 49.832 251.394 49.8693 251.469 49.944C251.543 50.0187 251.607 50.1093 251.661 50.216C251.719 50.3227 251.749 50.4267 251.749 50.528C251.749 50.768 251.722 51.0613 251.669 51.408C251.621 51.7493 251.551 52.1227 251.461 52.528C251.37 52.928 251.266 53.336 251.149 53.752C251.031 54.168 250.906 54.568 250.773 54.952C250.89 54.7813 251.037 54.5733 251.213 54.328C251.394 54.0827 251.583 53.8293 251.781 53.568C251.978 53.3067 252.17 53.064 252.357 52.84C252.543 52.6107 252.709 52.4267 252.853 52.288C252.997 52.144 253.098 52.072 253.157 52.072C253.226 52.072 253.293 52.096 253.357 52.144C253.426 52.192 253.482 52.2453 253.525 52.304C253.573 52.3627 253.597 52.4133 253.597 52.456C253.597 52.5093 253.549 52.5867 253.453 52.688C253.357 52.7893 253.239 52.9093 253.101 53.048C252.962 53.1867 252.821 53.336 252.677 53.496C252.538 53.6507 252.421 53.8107 252.325 53.976C252.229 54.1413 252.181 54.3013 252.181 54.456C252.181 54.5573 252.194 54.656 252.221 54.752C252.247 54.8427 252.293 54.9333 252.357 55.024C252.453 55.1573 252.573 55.2747 252.717 55.376C252.861 55.472 252.989 55.5573 253.101 55.632C253.218 55.7067 253.277 55.776 253.277 55.84C253.277 55.9733 253.173 56.04 252.965 56.04C252.927 56.04 252.853 56.0267 252.741 56C252.629 55.968 252.501 55.9093 252.357 55.824C252.213 55.7333 252.071 55.6027 251.933 55.432C251.799 55.256 251.69 55.024 251.605 54.736C251.429 54.9813 251.271 55.1893 251.133 55.36C250.999 55.5307 250.895 55.664 250.821 55.76C250.666 55.9467 250.543 56.04 250.453 56.04ZM259.662 56.04C259.384 56.04 259.139 55.984 258.926 55.872C258.718 55.7547 258.552 55.5973 258.43 55.4C258.312 55.2027 258.254 54.9787 258.254 54.728C258.254 54.5147 258.288 54.288 258.358 54.048C258.432 53.808 258.534 53.5733 258.662 53.344C258.795 53.1093 258.947 52.896 259.118 52.704C259.294 52.512 259.48 52.36 259.678 52.248C259.875 52.1307 260.08 52.072 260.294 52.072C260.454 52.072 260.606 52.1147 260.75 52.2C260.899 52.28 261.032 52.3867 261.15 52.52C261.272 52.6533 261.368 52.7973 261.438 52.952C261.507 53.1067 261.542 53.2533 261.542 53.392C261.542 53.568 261.491 53.7173 261.39 53.84C261.288 53.9627 261.158 54.064 260.998 54.144C260.838 54.2187 260.664 54.2747 260.478 54.312C260.296 54.344 260.126 54.36 259.966 54.36C259.619 54.36 259.294 54.3173 258.99 54.232C258.915 54.4667 258.878 54.6747 258.878 54.856C258.878 55.0427 258.934 55.1867 259.046 55.288C259.163 55.3893 259.355 55.44 259.622 55.44C259.814 55.44 260 55.416 260.182 55.368C260.363 55.32 260.518 55.2747 260.646 55.232C260.779 55.184 260.862 55.16 260.894 55.16C261.032 55.16 261.102 55.2133 261.102 55.32C261.102 55.3893 261.056 55.4667 260.966 55.552C260.875 55.6373 260.758 55.7173 260.614 55.792C260.47 55.8613 260.312 55.92 260.142 55.968C259.976 56.016 259.816 56.04 259.662 56.04ZM259.902 53.848C260.174 53.848 260.411 53.8053 260.614 53.72C260.816 53.6293 260.918 53.512 260.918 53.368C260.918 53.272 260.886 53.1733 260.822 53.072C260.763 52.9653 260.688 52.8773 260.598 52.808C260.507 52.7387 260.419 52.704 260.334 52.704C260.136 52.704 259.931 52.808 259.718 53.016C259.504 53.2187 259.323 53.472 259.174 53.776C259.387 53.824 259.63 53.848 259.902 53.848ZM263.311 56.04C263.258 56.04 263.196 56.0133 263.127 55.96C263.063 55.9013 263.007 55.832 262.959 55.752C262.911 55.672 262.887 55.6027 262.887 55.544C262.887 55.5067 262.916 55.4027 262.975 55.232C263.034 55.056 263.103 54.832 263.183 54.56C263.263 54.288 263.332 53.9867 263.391 53.656C263.45 53.32 263.479 52.976 263.479 52.624C263.479 52.2347 263.535 52.04 263.647 52.04C263.727 52.04 263.807 52.0693 263.887 52.128C263.967 52.1867 264.034 52.2613 264.087 52.352C264.146 52.4373 264.175 52.528 264.175 52.624C264.175 52.72 264.154 52.8827 264.111 53.112C264.074 53.3413 264.02 53.5947 263.951 53.872C263.887 54.144 263.815 54.4027 263.735 54.648H263.759C264.036 54.1627 264.276 53.7627 264.479 53.448C264.687 53.1333 264.863 52.8827 265.007 52.696C265.151 52.5093 265.271 52.3733 265.367 52.288C265.468 52.1973 265.551 52.1387 265.615 52.112C265.679 52.0853 265.735 52.072 265.783 52.072C265.922 52.072 266.055 52.1253 266.183 52.232C266.316 52.3333 266.426 52.4613 266.511 52.616C266.596 52.7707 266.639 52.9307 266.639 53.096C266.639 53.2293 266.618 53.416 266.575 53.656C266.532 53.8907 266.474 54.144 266.399 54.416C266.33 54.688 266.247 54.9493 266.151 55.2C266.055 55.4453 265.951 55.648 265.839 55.808C265.732 55.9627 265.623 56.04 265.511 56.04C265.394 56.04 265.335 55.96 265.335 55.8C265.335 55.672 265.367 55.5093 265.431 55.312C265.495 55.1093 265.57 54.8933 265.655 54.664C265.74 54.4293 265.815 54.1973 265.879 53.968C265.943 53.7387 265.975 53.5307 265.975 53.344C265.975 53.248 265.956 53.144 265.919 53.032C265.887 52.9147 265.831 52.856 265.751 52.856C265.703 52.856 265.652 52.8693 265.599 52.896C265.546 52.9227 265.476 52.9867 265.391 53.088C265.306 53.184 265.191 53.336 265.047 53.544C264.903 53.7467 264.716 54.0267 264.487 54.384C264.258 54.7413 263.97 55.1947 263.623 55.744C263.554 55.8507 263.492 55.928 263.439 55.976C263.391 56.0187 263.348 56.04 263.311 56.04ZM269.193 58.136C268.942 58.136 268.715 58.088 268.513 57.992C268.31 57.896 268.147 57.776 268.025 57.632C267.907 57.488 267.849 57.3493 267.849 57.216C267.849 57.1307 267.875 57.0453 267.929 56.96C267.977 56.8747 268.03 56.832 268.089 56.832C268.137 56.832 268.193 56.8693 268.257 56.944C268.321 57.024 268.395 57.112 268.481 57.208C268.566 57.3093 268.659 57.3973 268.761 57.472C268.867 57.552 268.985 57.592 269.113 57.592C269.251 57.592 269.371 57.5387 269.473 57.432C269.574 57.3307 269.659 57.1973 269.729 57.032C269.803 56.8667 269.865 56.6907 269.913 56.504C269.966 56.3173 270.011 56.1413 270.049 55.976C270.086 55.8107 270.118 55.6773 270.145 55.576C269.729 55.8853 269.39 56.04 269.129 56.04C268.953 56.04 268.79 55.992 268.641 55.896C268.497 55.7947 268.379 55.664 268.289 55.504C268.203 55.344 268.161 55.1707 268.161 54.984C268.161 54.808 268.201 54.5973 268.281 54.352C268.366 54.1013 268.481 53.8453 268.625 53.584C268.774 53.3173 268.942 53.0693 269.129 52.84C269.321 52.6107 269.523 52.4267 269.737 52.288C269.95 52.144 270.163 52.072 270.377 52.072C270.59 52.072 270.763 52.144 270.897 52.288C271.035 52.432 271.137 52.6133 271.201 52.832C271.27 53.0453 271.305 53.2587 271.305 53.472C271.305 53.504 271.302 53.5333 271.297 53.56C271.297 53.5813 271.294 53.6 271.289 53.616C271.353 53.7067 271.385 53.7947 271.385 53.88C271.385 53.9493 271.347 54.064 271.273 54.224C271.198 54.384 271.105 54.608 270.993 54.896C270.881 55.184 270.763 55.5547 270.641 56.008C270.502 56.5467 270.369 56.9707 270.241 57.28C270.113 57.5893 269.966 57.808 269.801 57.936C269.641 58.0693 269.438 58.136 269.193 58.136ZM269.121 55.376C269.254 55.376 269.403 55.3333 269.569 55.248C269.734 55.1627 269.899 55.048 270.065 54.904C270.23 54.7547 270.379 54.584 270.513 54.392C270.651 54.2 270.758 54 270.833 53.792C270.811 53.7173 270.793 53.624 270.777 53.512C270.766 53.3947 270.75 53.2773 270.729 53.16C270.707 53.0373 270.673 52.936 270.625 52.856C270.577 52.776 270.507 52.736 270.417 52.736C270.294 52.736 270.158 52.7893 270.009 52.896C269.865 53.0027 269.721 53.144 269.577 53.32C269.438 53.496 269.31 53.688 269.193 53.896C269.075 54.104 268.982 54.312 268.913 54.52C268.843 54.7227 268.809 54.9067 268.809 55.072C268.809 55.1627 268.838 55.2373 268.897 55.296C268.955 55.3493 269.03 55.376 269.121 55.376ZM274.702 51.56C274.616 51.56 274.52 51.5227 274.414 51.448C274.312 51.3733 274.224 51.288 274.15 51.192C274.075 51.0907 274.038 51.0053 274.038 50.936C274.038 50.8293 274.08 50.728 274.166 50.632C274.251 50.536 274.339 50.488 274.43 50.488C274.483 50.488 274.55 50.5413 274.63 50.648C274.71 50.7493 274.779 50.8693 274.838 51.008C274.896 51.1413 274.926 51.256 274.926 51.352C274.926 51.4053 274.902 51.4533 274.854 51.496C274.806 51.5387 274.755 51.56 274.702 51.56ZM273.262 56.032C273.187 56.032 273.123 56.0027 273.07 55.944C273.016 55.88 272.99 55.808 272.99 55.728C272.99 55.7067 273.008 55.6053 273.046 55.424C273.088 55.2427 273.139 55.0213 273.198 54.76C273.262 54.4933 273.328 54.2133 273.398 53.92C273.472 53.6267 273.542 53.352 273.606 53.096C273.67 52.8347 273.723 52.624 273.766 52.464C273.84 52.2027 273.918 52.072 273.998 52.072C274.067 52.072 274.134 52.1013 274.198 52.16C274.262 52.2187 274.315 52.2907 274.358 52.376C274.4 52.456 274.422 52.536 274.422 52.616C274.422 52.7653 274.384 52.9893 274.31 53.288C274.235 53.5867 274.136 53.9387 274.014 54.344C273.891 54.744 273.755 55.1733 273.606 55.632C273.515 55.8987 273.4 56.032 273.262 56.032ZM276.28 56.04C276.227 56.04 276.165 56.0133 276.096 55.96C276.032 55.9013 275.976 55.832 275.928 55.752C275.88 55.672 275.856 55.6027 275.856 55.544C275.856 55.5067 275.885 55.4027 275.944 55.232C276.003 55.056 276.072 54.832 276.152 54.56C276.232 54.288 276.301 53.9867 276.36 53.656C276.419 53.32 276.448 52.976 276.448 52.624C276.448 52.2347 276.504 52.04 276.616 52.04C276.696 52.04 276.776 52.0693 276.856 52.128C276.936 52.1867 277.003 52.2613 277.056 52.352C277.115 52.4373 277.144 52.528 277.144 52.624C277.144 52.72 277.123 52.8827 277.08 53.112C277.043 53.3413 276.989 53.5947 276.92 53.872C276.856 54.144 276.784 54.4027 276.704 54.648H276.728C277.005 54.1627 277.245 53.7627 277.448 53.448C277.656 53.1333 277.832 52.8827 277.976 52.696C278.12 52.5093 278.24 52.3733 278.336 52.288C278.437 52.1973 278.52 52.1387 278.584 52.112C278.648 52.0853 278.704 52.072 278.752 52.072C278.891 52.072 279.024 52.1253 279.152 52.232C279.285 52.3333 279.395 52.4613 279.48 52.616C279.565 52.7707 279.608 52.9307 279.608 53.096C279.608 53.2293 279.587 53.416 279.544 53.656C279.501 53.8907 279.443 54.144 279.368 54.416C279.299 54.688 279.216 54.9493 279.12 55.2C279.024 55.4453 278.92 55.648 278.808 55.808C278.701 55.9627 278.592 56.04 278.48 56.04C278.363 56.04 278.304 55.96 278.304 55.8C278.304 55.672 278.336 55.5093 278.4 55.312C278.464 55.1093 278.539 54.8933 278.624 54.664C278.709 54.4293 278.784 54.1973 278.848 53.968C278.912 53.7387 278.944 53.5307 278.944 53.344C278.944 53.248 278.925 53.144 278.888 53.032C278.856 52.9147 278.8 52.856 278.72 52.856C278.672 52.856 278.621 52.8693 278.568 52.896C278.515 52.9227 278.445 52.9867 278.36 53.088C278.275 53.184 278.16 53.336 278.016 53.544C277.872 53.7467 277.685 54.0267 277.456 54.384C277.227 54.7413 276.939 55.1947 276.592 55.744C276.523 55.8507 276.461 55.928 276.408 55.976C276.36 56.0187 276.317 56.04 276.28 56.04ZM282.498 56.04C282.22 56.04 281.975 55.984 281.762 55.872C281.554 55.7547 281.388 55.5973 281.266 55.4C281.148 55.2027 281.09 54.9787 281.09 54.728C281.09 54.5147 281.124 54.288 281.194 54.048C281.268 53.808 281.37 53.5733 281.498 53.344C281.631 53.1093 281.783 52.896 281.954 52.704C282.13 52.512 282.316 52.36 282.514 52.248C282.711 52.1307 282.916 52.072 283.13 52.072C283.29 52.072 283.442 52.1147 283.586 52.2C283.735 52.28 283.868 52.3867 283.986 52.52C284.108 52.6533 284.204 52.7973 284.274 52.952C284.343 53.1067 284.378 53.2533 284.378 53.392C284.378 53.568 284.327 53.7173 284.226 53.84C284.124 53.9627 283.994 54.064 283.834 54.144C283.674 54.2187 283.5 54.2747 283.314 54.312C283.132 54.344 282.962 54.36 282.802 54.36C282.455 54.36 282.13 54.3173 281.826 54.232C281.751 54.4667 281.714 54.6747 281.714 54.856C281.714 55.0427 281.77 55.1867 281.882 55.288C281.999 55.3893 282.191 55.44 282.458 55.44C282.65 55.44 282.836 55.416 283.018 55.368C283.199 55.32 283.354 55.2747 283.482 55.232C283.615 55.184 283.698 55.16 283.73 55.16C283.868 55.16 283.938 55.2133 283.938 55.32C283.938 55.3893 283.892 55.4667 283.802 55.552C283.711 55.6373 283.594 55.7173 283.45 55.792C283.306 55.8613 283.148 55.92 282.978 55.968C282.812 56.016 282.652 56.04 282.498 56.04ZM282.738 53.848C283.01 53.848 283.247 53.8053 283.45 53.72C283.652 53.6293 283.754 53.512 283.754 53.368C283.754 53.272 283.722 53.1733 283.658 53.072C283.599 52.9653 283.524 52.8773 283.434 52.808C283.343 52.7387 283.255 52.704 283.17 52.704C282.972 52.704 282.767 52.808 282.554 53.016C282.34 53.2187 282.159 53.472 282.01 53.776C282.223 53.824 282.466 53.848 282.738 53.848ZM287.099 56.04C286.822 56.04 286.576 55.984 286.363 55.872C286.155 55.7547 285.99 55.5973 285.867 55.4C285.75 55.2027 285.691 54.9787 285.691 54.728C285.691 54.5147 285.726 54.288 285.795 54.048C285.87 53.808 285.971 53.5733 286.099 53.344C286.232 53.1093 286.384 52.896 286.555 52.704C286.731 52.512 286.918 52.36 287.115 52.248C287.312 52.1307 287.518 52.072 287.731 52.072C287.891 52.072 288.043 52.1147 288.187 52.2C288.336 52.28 288.47 52.3867 288.587 52.52C288.71 52.6533 288.806 52.7973 288.875 52.952C288.944 53.1067 288.979 53.2533 288.979 53.392C288.979 53.568 288.928 53.7173 288.827 53.84C288.726 53.9627 288.595 54.064 288.435 54.144C288.275 54.2187 288.102 54.2747 287.915 54.312C287.734 54.344 287.563 54.36 287.403 54.36C287.056 54.36 286.731 54.3173 286.427 54.232C286.352 54.4667 286.315 54.6747 286.315 54.856C286.315 55.0427 286.371 55.1867 286.483 55.288C286.6 55.3893 286.792 55.44 287.059 55.44C287.251 55.44 287.438 55.416 287.619 55.368C287.8 55.32 287.955 55.2747 288.083 55.232C288.216 55.184 288.299 55.16 288.331 55.16C288.47 55.16 288.539 55.2133 288.539 55.32C288.539 55.3893 288.494 55.4667 288.403 55.552C288.312 55.6373 288.195 55.7173 288.051 55.792C287.907 55.8613 287.75 55.92 287.579 55.968C287.414 56.016 287.254 56.04 287.099 56.04ZM287.339 53.848C287.611 53.848 287.848 53.8053 288.051 53.72C288.254 53.6293 288.355 53.512 288.355 53.368C288.355 53.272 288.323 53.1733 288.259 53.072C288.2 52.9653 288.126 52.8773 288.035 52.808C287.944 52.7387 287.856 52.704 287.771 52.704C287.574 52.704 287.368 52.808 287.155 53.016C286.942 53.2187 286.76 53.472 286.611 53.776C286.824 53.824 287.067 53.848 287.339 53.848ZM290.709 56.056C290.613 56.056 290.538 56.0027 290.485 55.896C290.431 55.7893 290.405 55.696 290.405 55.616C290.405 55.4933 290.429 55.3573 290.477 55.208C290.525 55.0533 290.578 54.8773 290.637 54.68C290.695 54.4773 290.749 54.2427 290.797 53.976C290.845 53.7093 290.869 53.4 290.869 53.048C290.869 52.9467 290.863 52.8347 290.853 52.712C290.847 52.584 290.845 52.4693 290.845 52.368C290.845 52.288 290.858 52.2187 290.885 52.16C290.917 52.1013 290.962 52.072 291.021 52.072C291.149 52.072 291.253 52.1467 291.333 52.296C291.418 52.4453 291.461 52.6053 291.461 52.776C291.461 52.9093 291.453 53.0293 291.437 53.136C291.901 52.432 292.341 52.08 292.757 52.08C293.018 52.08 293.149 52.144 293.149 52.272C293.149 52.336 293.119 52.3973 293.061 52.456C293.007 52.5147 292.914 52.5733 292.781 52.632C292.599 52.7173 292.434 52.8267 292.285 52.96C292.135 53.0933 291.991 53.2747 291.853 53.504C291.719 53.728 291.583 54.0213 291.445 54.384C291.311 54.7467 291.165 55.1973 291.005 55.736C290.973 55.8427 290.93 55.9227 290.877 55.976C290.823 56.0293 290.767 56.056 290.709 56.056Z" fill="#9343FB"/>
</svg>
