<svg width="300" height="165" viewBox="0 0 300 165" fill="none" xmlns="http://www.w3.org/2000/svg">
<rect x="0.25" y="0.25" width="299.5" height="164.5" rx="8.75" fill="white" stroke="#817878" stroke-width="0.5"/>
<path d="M25.0043 25.8182H27.2614L30.2841 33.196H30.4034L33.4261 25.8182H35.6832V36H33.9134V29.005H33.8189L31.005 35.9702H29.6825L26.8686 28.9901H26.7741V36H25.0043V25.8182ZM40.9432 36.1491C40.1974 36.1491 39.5511 35.9851 39.0043 35.657C38.4574 35.3288 38.0331 34.8698 37.7315 34.2798C37.4332 33.6899 37.2841 33.0005 37.2841 32.2116C37.2841 31.4228 37.4332 30.7318 37.7315 30.1385C38.0331 29.5452 38.4574 29.0845 39.0043 28.7564C39.5511 28.4283 40.1974 28.2642 40.9432 28.2642C41.6889 28.2642 42.3352 28.4283 42.8821 28.7564C43.429 29.0845 43.8516 29.5452 44.1499 30.1385C44.4515 30.7318 44.6023 31.4228 44.6023 32.2116C44.6023 33.0005 44.4515 33.6899 44.1499 34.2798C43.8516 34.8698 43.429 35.3288 42.8821 35.657C42.3352 35.9851 41.6889 36.1491 40.9432 36.1491ZM40.9531 34.7074C41.3575 34.7074 41.6955 34.5964 41.9673 34.3743C42.2391 34.1489 42.4413 33.8473 42.5739 33.4695C42.7098 33.0916 42.7777 32.6707 42.7777 32.2067C42.7777 31.7393 42.7098 31.3168 42.5739 30.9389C42.4413 30.5578 42.2391 30.2545 41.9673 30.0291C41.6955 29.8037 41.3575 29.6911 40.9531 29.6911C40.5388 29.6911 40.1941 29.8037 39.919 30.0291C39.6473 30.2545 39.4434 30.5578 39.3075 30.9389C39.175 31.3168 39.1087 31.7393 39.1087 32.2067C39.1087 32.6707 39.175 33.0916 39.3075 33.4695C39.4434 33.8473 39.6473 34.1489 39.919 34.3743C40.1941 34.5964 40.5388 34.7074 40.9531 34.7074ZM52.1653 30.3821L50.5247 30.5611C50.4783 30.3954 50.3971 30.2396 50.2811 30.0938C50.1684 29.9479 50.0159 29.8303 49.8237 29.7408C49.6315 29.6513 49.3961 29.6065 49.1177 29.6065C48.7432 29.6065 48.4283 29.6877 48.1731 29.8501C47.9212 30.0125 47.7969 30.223 47.8002 30.4815C47.7969 30.7036 47.8781 30.8842 48.0439 31.0234C48.2129 31.1626 48.4913 31.277 48.8791 31.3665L50.1816 31.6449C50.9042 31.8007 51.4411 32.0476 51.7924 32.3857C52.1471 32.7237 52.3261 33.1662 52.3294 33.7131C52.3261 34.1937 52.1852 34.6179 51.9068 34.9858C51.6317 35.3504 51.2489 35.6354 50.7583 35.8409C50.2678 36.0464 49.7044 36.1491 49.068 36.1491C48.1333 36.1491 47.381 35.9536 46.8109 35.5625C46.2408 35.1681 45.9011 34.6196 45.7917 33.9169L47.5467 33.7479C47.6262 34.0926 47.7953 34.3527 48.0538 34.5284C48.3123 34.7041 48.6487 34.7919 49.063 34.7919C49.4906 34.7919 49.8336 34.7041 50.0922 34.5284C50.354 34.3527 50.4849 34.1357 50.4849 33.8771C50.4849 33.6584 50.4004 33.4777 50.2314 33.3352C50.0656 33.1927 49.8071 33.0833 49.4558 33.0071L48.1532 32.7337C47.4208 32.5812 46.8788 32.3243 46.5275 31.9631C46.1762 31.5985 46.0022 31.1378 46.0055 30.581C46.0022 30.1103 46.1298 29.7027 46.3883 29.358C46.6502 29.0099 47.0131 28.7415 47.4771 28.5526C47.9444 28.3603 48.483 28.2642 49.0929 28.2642C49.9877 28.2642 50.6921 28.4548 51.2058 28.8359C51.7228 29.2171 52.0427 29.7325 52.1653 30.3821ZM57.6266 28.3636V29.7557H53.2367V28.3636H57.6266ZM54.3205 26.5341H56.1202V33.7031C56.1202 33.9451 56.1567 34.1307 56.2296 34.2599C56.3058 34.3859 56.4052 34.4721 56.5279 34.5185C56.6505 34.5649 56.7864 34.5881 56.9355 34.5881C57.0482 34.5881 57.151 34.5798 57.2438 34.5632C57.3399 34.5466 57.4128 34.5317 57.4625 34.5185L57.7658 35.9254C57.6697 35.9586 57.5321 35.995 57.3532 36.0348C57.1775 36.0746 56.9621 36.0978 56.7069 36.1044C56.2561 36.1177 55.8501 36.0497 55.4888 35.9006C55.1275 35.7481 54.8408 35.5128 54.6287 35.1946C54.4199 34.8764 54.3172 34.4787 54.3205 34.0014V26.5341ZM69.1023 25.8182H70.9467V32.4702C70.9467 33.1993 70.7744 33.8407 70.4297 34.3942C70.0883 34.9477 69.6077 35.3802 68.9879 35.6918C68.3681 36 67.6439 36.1541 66.8153 36.1541C65.9834 36.1541 65.2576 36 64.6378 35.6918C64.018 35.3802 63.5374 34.9477 63.196 34.3942C62.8546 33.8407 62.6839 33.1993 62.6839 32.4702V25.8182H64.5284V32.3161C64.5284 32.7403 64.6212 33.1181 64.8068 33.4496C64.9957 33.781 65.2609 34.0412 65.6023 34.2301C65.9437 34.4157 66.348 34.5085 66.8153 34.5085C67.2827 34.5085 67.687 34.4157 68.0284 34.2301C68.3731 34.0412 68.6383 33.781 68.8239 33.4496C69.0095 33.1181 69.1023 32.7403 69.1023 32.3161V25.8182ZM78.9075 30.3821L77.2669 30.5611C77.2205 30.3954 77.1393 30.2396 77.0233 30.0938C76.9106 29.9479 76.7581 29.8303 76.5659 29.7408C76.3736 29.6513 76.1383 29.6065 75.8599 29.6065C75.4854 29.6065 75.1705 29.6877 74.9153 29.8501C74.6634 30.0125 74.5391 30.223 74.5424 30.4815C74.5391 30.7036 74.6203 30.8842 74.786 31.0234C74.9551 31.1626 75.2335 31.277 75.6213 31.3665L76.9238 31.6449C77.6464 31.8007 78.1833 32.0476 78.5346 32.3857C78.8893 32.7237 79.0682 33.1662 79.0716 33.7131C79.0682 34.1937 78.9274 34.6179 78.649 34.9858C78.3739 35.3504 77.9911 35.6354 77.5005 35.8409C77.01 36.0464 76.4466 36.1491 75.8102 36.1491C74.8755 36.1491 74.1232 35.9536 73.5531 35.5625C72.983 35.1681 72.6433 34.6196 72.5339 33.9169L74.2889 33.7479C74.3684 34.0926 74.5375 34.3527 74.796 34.5284C75.0545 34.7041 75.3909 34.7919 75.8052 34.7919C76.2328 34.7919 76.5758 34.7041 76.8343 34.5284C77.0962 34.3527 77.2271 34.1357 77.2271 33.8771C77.2271 33.6584 77.1426 33.4777 76.9735 33.3352C76.8078 33.1927 76.5493 33.0833 76.198 33.0071L74.8954 32.7337C74.1629 32.5812 73.621 32.3243 73.2697 31.9631C72.9184 31.5985 72.7444 31.1378 72.7477 30.581C72.7444 30.1103 72.872 29.7027 73.1305 29.358C73.3923 29.0099 73.7553 28.7415 74.2193 28.5526C74.6866 28.3603 75.2252 28.2642 75.835 28.2642C76.7299 28.2642 77.4342 28.4548 77.948 28.8359C78.465 29.2171 78.7849 29.7325 78.9075 30.3821ZM83.9363 36.1491C83.1706 36.1491 82.5094 35.9901 81.9526 35.6719C81.3991 35.3504 80.9732 34.8963 80.6749 34.3097C80.3766 33.7197 80.2275 33.0253 80.2275 32.2266C80.2275 31.4411 80.3766 30.7517 80.6749 30.1584C80.9765 29.5618 81.3974 29.0978 81.9377 28.7663C82.4779 28.4316 83.1126 28.2642 83.8418 28.2642C84.3124 28.2642 84.7566 28.3404 85.1742 28.4929C85.5951 28.642 85.9663 28.8741 86.2878 29.1889C86.6126 29.5038 86.8678 29.9048 87.0534 30.392C87.2391 30.8759 87.3319 31.4527 87.3319 32.1222V32.674H81.0726V31.4609H85.6067C85.6034 31.1162 85.5288 30.8097 85.383 30.5412C85.2372 30.2694 85.0333 30.0556 84.7715 29.8999C84.513 29.7441 84.2114 29.6662 83.8667 29.6662C83.4988 29.6662 83.1756 29.7557 82.8972 29.9347C82.6188 30.1103 82.4017 30.3423 82.2459 30.6307C82.0935 30.9157 82.0156 31.2289 82.0123 31.5703V32.6293C82.0123 33.0734 82.0935 33.4545 82.2559 33.7727C82.4183 34.0876 82.6453 34.3295 82.937 34.4986C83.2286 34.6643 83.57 34.7472 83.9611 34.7472C84.223 34.7472 84.4599 34.7107 84.6721 34.6378C84.8842 34.5616 85.0681 34.4505 85.2239 34.3047C85.3797 34.1589 85.4973 33.9782 85.5769 33.7628L87.2573 33.9517C87.1512 34.3958 86.949 34.7836 86.6507 35.1151C86.3558 35.4432 85.9779 35.6984 85.5172 35.8807C85.0565 36.0597 84.5295 36.1491 83.9363 36.1491ZM91.6882 36.1342C91.0883 36.1342 90.5514 35.9801 90.0774 35.6719C89.6035 35.3636 89.2289 34.9162 88.9538 34.3295C88.6787 33.7429 88.5412 33.0303 88.5412 32.1918C88.5412 31.3433 88.6804 30.6274 88.9588 30.044C89.2405 29.4574 89.62 29.0149 90.0973 28.7166C90.5746 28.415 91.1065 28.2642 91.6932 28.2642C92.1406 28.2642 92.5085 28.3404 92.7969 28.4929C93.0852 28.642 93.3139 28.8227 93.483 29.0348C93.652 29.2436 93.7829 29.4408 93.8757 29.6264H93.9503V25.8182H95.755V36H93.9851V34.7969H93.8757C93.7829 34.9825 93.6487 35.1797 93.473 35.3885C93.2973 35.594 93.0653 35.7696 92.777 35.9155C92.4886 36.0613 92.1257 36.1342 91.6882 36.1342ZM92.1903 34.6577C92.5715 34.6577 92.8963 34.5549 93.1648 34.3494C93.4332 34.1406 93.6371 33.8506 93.7763 33.4794C93.9155 33.1082 93.9851 32.6757 93.9851 32.1818C93.9851 31.688 93.9155 31.2588 93.7763 30.8942C93.6404 30.5296 93.4382 30.2462 93.1697 30.044C92.9046 29.8419 92.5781 29.7408 92.1903 29.7408C91.7893 29.7408 91.4545 29.8452 91.1861 30.054C90.9176 30.2628 90.7154 30.5511 90.5795 30.919C90.4437 31.2869 90.3757 31.7079 90.3757 32.1818C90.3757 32.6591 90.4437 33.085 90.5795 33.4595C90.7188 33.8307 90.9226 34.1241 91.1911 34.3395C91.4628 34.5516 91.7959 34.6577 92.1903 34.6577ZM101.225 36V25.8182H103.069V34.4538H107.554V36H101.225ZM111.273 36.1541C110.789 36.1541 110.353 36.0679 109.965 35.8956C109.581 35.7199 109.276 35.4614 109.05 35.12C108.828 34.7786 108.717 34.3577 108.717 33.8572C108.717 33.4264 108.797 33.0701 108.956 32.7884C109.115 32.5066 109.332 32.2812 109.607 32.1122C109.882 31.9432 110.192 31.8156 110.537 31.7294C110.885 31.6399 111.244 31.5753 111.616 31.5355C112.063 31.4891 112.426 31.4477 112.704 31.4112C112.983 31.3714 113.185 31.3118 113.311 31.2322C113.44 31.1494 113.505 31.0218 113.505 30.8494V30.8196C113.505 30.4451 113.394 30.1551 113.172 29.9496C112.95 29.7441 112.63 29.6413 112.212 29.6413C111.771 29.6413 111.422 29.7375 111.163 29.9297C110.908 30.1219 110.736 30.349 110.646 30.6108L108.966 30.3722C109.098 29.9081 109.317 29.5204 109.622 29.2088C109.927 28.8939 110.3 28.6586 110.741 28.5028C111.181 28.3438 111.669 28.2642 112.202 28.2642C112.57 28.2642 112.936 28.3073 113.301 28.3935C113.666 28.4796 113.999 28.6222 114.3 28.821C114.602 29.0166 114.844 29.2834 115.026 29.6214C115.212 29.9595 115.305 30.3821 115.305 30.8892V36H113.574V34.951H113.515C113.405 35.1631 113.251 35.362 113.052 35.5476C112.857 35.7299 112.61 35.8774 112.312 35.9901C112.017 36.0994 111.67 36.1541 111.273 36.1541ZM111.74 34.8317C112.101 34.8317 112.414 34.7604 112.68 34.6179C112.945 34.4721 113.148 34.2798 113.291 34.0412C113.437 33.8026 113.51 33.5424 113.51 33.2607V32.3608C113.453 32.4072 113.357 32.4503 113.221 32.4901C113.089 32.5298 112.94 32.5646 112.774 32.5945C112.608 32.6243 112.444 32.6508 112.282 32.674C112.119 32.6972 111.979 32.7171 111.859 32.7337C111.591 32.7701 111.35 32.8298 111.138 32.9126C110.926 32.9955 110.759 33.1115 110.636 33.2607C110.514 33.4065 110.452 33.5954 110.452 33.8274C110.452 34.1589 110.573 34.4091 110.815 34.5781C111.057 34.7472 111.365 34.8317 111.74 34.8317ZM118.914 31.5256V36H117.114V28.3636H118.834V29.6612H118.924C119.099 29.2337 119.38 28.8939 119.764 28.642C120.152 28.3902 120.631 28.2642 121.201 28.2642C121.728 28.2642 122.187 28.3769 122.578 28.6023C122.972 28.8277 123.277 29.1541 123.493 29.5817C123.711 30.0092 123.819 30.5279 123.816 31.1378V36H122.016V31.4162C122.016 30.9058 121.884 30.5064 121.618 30.218C121.357 29.9297 120.994 29.7855 120.53 29.7855C120.215 29.7855 119.935 29.8551 119.689 29.9943C119.448 30.1302 119.257 30.3274 119.118 30.5859C118.982 30.8445 118.914 31.1577 118.914 31.5256ZM128.966 39.0227C128.32 39.0227 127.765 38.9349 127.301 38.7592C126.837 38.5869 126.464 38.3549 126.182 38.0632C125.901 37.7715 125.705 37.4484 125.596 37.0938L127.216 36.701C127.289 36.8501 127.395 36.9976 127.535 37.1435C127.674 37.2926 127.861 37.4152 128.096 37.5114C128.335 37.6108 128.635 37.6605 128.996 37.6605C129.507 37.6605 129.929 37.5362 130.264 37.2876C130.599 37.0424 130.766 36.638 130.766 36.0746V34.6278H130.677C130.584 34.8134 130.448 35.004 130.269 35.1996C130.093 35.3951 129.86 35.5592 129.568 35.6918C129.28 35.8243 128.917 35.8906 128.479 35.8906C127.893 35.8906 127.361 35.7531 126.883 35.478C126.409 35.1996 126.032 34.7853 125.75 34.2351C125.471 33.6816 125.332 32.9889 125.332 32.157C125.332 31.3184 125.471 30.6108 125.75 30.0341C126.032 29.4541 126.411 29.0149 126.888 28.7166C127.366 28.415 127.898 28.2642 128.484 28.2642C128.932 28.2642 129.3 28.3404 129.588 28.4929C129.88 28.642 130.112 28.8227 130.284 29.0348C130.456 29.2436 130.587 29.4408 130.677 29.6264H130.776V28.3636H132.551V36.1243C132.551 36.7772 132.395 37.3175 132.084 37.745C131.772 38.1726 131.346 38.4924 130.806 38.7045C130.266 38.9167 129.653 39.0227 128.966 39.0227ZM128.981 34.4787C129.363 34.4787 129.687 34.3859 129.956 34.2003C130.224 34.0147 130.428 33.7479 130.567 33.3999C130.706 33.0518 130.776 32.6342 130.776 32.147C130.776 31.6664 130.706 31.2455 130.567 30.8842C130.431 30.523 130.229 30.2429 129.961 30.044C129.696 29.8419 129.369 29.7408 128.981 29.7408C128.58 29.7408 128.246 29.8452 127.977 30.054C127.709 30.2628 127.506 30.5495 127.371 30.9141C127.235 31.2753 127.167 31.6863 127.167 32.147C127.167 32.6143 127.235 33.0237 127.371 33.375C127.51 33.723 127.714 33.9948 127.982 34.1903C128.254 34.3826 128.587 34.4787 128.981 34.4787ZM139.263 32.7884V28.3636H141.062V36H139.317V34.6428H139.238C139.065 35.0703 138.782 35.42 138.388 35.6918C137.997 35.9635 137.514 36.0994 136.941 36.0994C136.44 36.0994 135.998 35.9884 135.613 35.7663C135.232 35.541 134.934 35.2145 134.719 34.7869C134.503 34.3561 134.395 33.8357 134.395 33.2259V28.3636H136.195V32.9474C136.195 33.4313 136.328 33.8158 136.593 34.1009C136.858 34.3859 137.206 34.5284 137.637 34.5284C137.902 34.5284 138.159 34.4638 138.407 34.3345C138.656 34.2053 138.86 34.013 139.019 33.7578C139.181 33.4993 139.263 33.1761 139.263 32.7884ZM145.11 36.1541C144.627 36.1541 144.191 36.0679 143.803 35.8956C143.418 35.7199 143.114 35.4614 142.888 35.12C142.666 34.7786 142.555 34.3577 142.555 33.8572C142.555 33.4264 142.635 33.0701 142.794 32.7884C142.953 32.5066 143.17 32.2812 143.445 32.1122C143.72 31.9432 144.03 31.8156 144.375 31.7294C144.723 31.6399 145.082 31.5753 145.453 31.5355C145.901 31.4891 146.264 31.4477 146.542 31.4112C146.821 31.3714 147.023 31.3118 147.149 31.2322C147.278 31.1494 147.343 31.0218 147.343 30.8494V30.8196C147.343 30.4451 147.232 30.1551 147.01 29.9496C146.788 29.7441 146.468 29.6413 146.05 29.6413C145.609 29.6413 145.26 29.7375 145.001 29.9297C144.746 30.1219 144.574 30.349 144.484 30.6108L142.804 30.3722C142.936 29.9081 143.155 29.5204 143.46 29.2088C143.765 28.8939 144.138 28.6586 144.578 28.5028C145.019 28.3438 145.507 28.2642 146.04 28.2642C146.408 28.2642 146.774 28.3073 147.139 28.3935C147.503 28.4796 147.837 28.6222 148.138 28.821C148.44 29.0166 148.682 29.2834 148.864 29.6214C149.05 29.9595 149.142 30.3821 149.142 30.8892V36H147.412V34.951H147.353C147.243 35.1631 147.089 35.362 146.89 35.5476C146.695 35.7299 146.448 35.8774 146.15 35.9901C145.855 36.0994 145.508 36.1541 145.11 36.1541ZM145.578 34.8317C145.939 34.8317 146.252 34.7604 146.517 34.6179C146.783 34.4721 146.986 34.2798 147.129 34.0412C147.275 33.8026 147.348 33.5424 147.348 33.2607V32.3608C147.291 32.4072 147.195 32.4503 147.059 32.4901C146.927 32.5298 146.778 32.5646 146.612 32.5945C146.446 32.6243 146.282 32.6508 146.12 32.674C145.957 32.6972 145.816 32.7171 145.697 32.7337C145.429 32.7701 145.188 32.8298 144.976 32.9126C144.764 32.9955 144.597 33.1115 144.474 33.2607C144.351 33.4065 144.29 33.5954 144.29 33.8274C144.29 34.1589 144.411 34.4091 144.653 34.5781C144.895 34.7472 145.203 34.8317 145.578 34.8317ZM154.273 39.0227C153.627 39.0227 153.072 38.9349 152.608 38.7592C152.144 38.5869 151.771 38.3549 151.489 38.0632C151.207 37.7715 151.012 37.4484 150.902 37.0938L152.523 36.701C152.596 36.8501 152.702 36.9976 152.841 37.1435C152.98 37.2926 153.168 37.4152 153.403 37.5114C153.642 37.6108 153.942 37.6605 154.303 37.6605C154.813 37.6605 155.236 37.5362 155.571 37.2876C155.905 37.0424 156.073 36.638 156.073 36.0746V34.6278H155.983C155.891 34.8134 155.755 35.004 155.576 35.1996C155.4 35.3951 155.166 35.5592 154.875 35.6918C154.586 35.8243 154.223 35.8906 153.786 35.8906C153.199 35.8906 152.667 35.7531 152.19 35.478C151.716 35.1996 151.338 34.7853 151.056 34.2351C150.778 33.6816 150.639 32.9889 150.639 32.157C150.639 31.3184 150.778 30.6108 151.056 30.0341C151.338 29.4541 151.718 29.0149 152.195 28.7166C152.672 28.415 153.204 28.2642 153.791 28.2642C154.238 28.2642 154.606 28.3404 154.895 28.4929C155.186 28.642 155.418 28.8227 155.591 29.0348C155.763 29.2436 155.894 29.4408 155.983 29.6264H156.083V28.3636H157.858V36.1243C157.858 36.7772 157.702 37.3175 157.39 37.745C157.079 38.1726 156.653 38.4924 156.113 38.7045C155.572 38.9167 154.959 39.0227 154.273 39.0227ZM154.288 34.4787C154.669 34.4787 154.994 34.3859 155.262 34.2003C155.531 34.0147 155.735 33.7479 155.874 33.3999C156.013 33.0518 156.083 32.6342 156.083 32.147C156.083 31.6664 156.013 31.2455 155.874 30.8842C155.738 30.523 155.536 30.2429 155.267 30.044C155.002 29.8419 154.676 29.7408 154.288 29.7408C153.887 29.7408 153.552 29.8452 153.284 30.054C153.015 30.2628 152.813 30.5495 152.677 30.9141C152.541 31.2753 152.473 31.6863 152.473 32.147C152.473 32.6143 152.541 33.0237 152.677 33.375C152.816 33.723 153.02 33.9948 153.289 34.1903C153.56 34.3826 153.894 34.4787 154.288 34.4787ZM163.083 36.1491C162.317 36.1491 161.656 35.9901 161.099 35.6719C160.546 35.3504 160.12 34.8963 159.821 34.3097C159.523 33.7197 159.374 33.0253 159.374 32.2266C159.374 31.4411 159.523 30.7517 159.821 30.1584C160.123 29.5618 160.544 29.0978 161.084 28.7663C161.624 28.4316 162.259 28.2642 162.988 28.2642C163.459 28.2642 163.903 28.3404 164.321 28.4929C164.742 28.642 165.113 28.8741 165.434 29.1889C165.759 29.5038 166.014 29.9048 166.2 30.392C166.386 30.8759 166.478 31.4527 166.478 32.1222V32.674H160.219V31.4609H164.753C164.75 31.1162 164.675 30.8097 164.529 30.5412C164.384 30.2694 164.18 30.0556 163.918 29.8999C163.659 29.7441 163.358 29.6662 163.013 29.6662C162.645 29.6662 162.322 29.7557 162.044 29.9347C161.765 30.1103 161.548 30.3423 161.392 30.6307C161.24 30.9157 161.162 31.2289 161.159 31.5703V32.6293C161.159 33.0734 161.24 33.4545 161.402 33.7727C161.565 34.0876 161.792 34.3295 162.083 34.4986C162.375 34.6643 162.717 34.7472 163.108 34.7472C163.369 34.7472 163.606 34.7107 163.819 34.6378C164.031 34.5616 164.215 34.4505 164.37 34.3047C164.526 34.1589 164.644 33.9782 164.723 33.7628L166.404 33.9517C166.298 34.3958 166.096 34.7836 165.797 35.1151C165.502 35.4432 165.124 35.6984 164.664 35.8807C164.203 36.0597 163.676 36.1491 163.083 36.1491ZM174.036 30.3821L172.396 30.5611C172.349 30.3954 172.268 30.2396 172.152 30.0938C172.039 29.9479 171.887 29.8303 171.695 29.7408C171.503 29.6513 171.267 29.6065 170.989 29.6065C170.614 29.6065 170.299 29.6877 170.044 29.8501C169.792 30.0125 169.668 30.223 169.671 30.4815C169.668 30.7036 169.749 30.8842 169.915 31.0234C170.084 31.1626 170.362 31.277 170.75 31.3665L172.053 31.6449C172.775 31.8007 173.312 32.0476 173.664 32.3857C174.018 32.7237 174.197 33.1662 174.2 33.7131C174.197 34.1937 174.056 34.6179 173.778 34.9858C173.503 35.3504 173.12 35.6354 172.629 35.8409C172.139 36.0464 171.575 36.1491 170.939 36.1491C170.004 36.1491 169.252 35.9536 168.682 35.5625C168.112 35.1681 167.772 34.6196 167.663 33.9169L169.418 33.7479C169.497 34.0926 169.666 34.3527 169.925 34.5284C170.183 34.7041 170.52 34.7919 170.934 34.7919C171.362 34.7919 171.705 34.7041 171.963 34.5284C172.225 34.3527 172.356 34.1357 172.356 33.8771C172.356 33.6584 172.271 33.4777 172.102 33.3352C171.937 33.1927 171.678 33.0833 171.327 33.0071L170.024 32.7337C169.292 32.5812 168.75 32.3243 168.399 31.9631C168.047 31.5985 167.873 31.1378 167.877 30.581C167.873 30.1103 168.001 29.7027 168.259 29.358C168.521 29.0099 168.884 28.7415 169.348 28.5526C169.816 28.3603 170.354 28.2642 170.964 28.2642C171.859 28.2642 172.563 28.4548 173.077 28.8359C173.594 29.2171 173.914 29.7325 174.036 30.3821Z" fill="#A140B9"/>
<circle cx="30" cy="80" r="6" fill="#F1E05A"/>
<path d="M45.0313 76H46V81.7187C46 82.2292 45.9063 82.6628 45.7188 83.0195C45.5313 83.3763 45.2669 83.6471 44.9258 83.832C44.5846 84.0169 44.1823 84.1094 43.7188 84.1094C43.2813 84.1094 42.8919 84.0299 42.5508 83.8711C42.2096 83.7096 41.9414 83.4805 41.7461 83.1836C41.5508 82.8867 41.4531 82.5339 41.4531 82.125H42.4062C42.4062 82.3516 42.4622 82.5495 42.5742 82.7187C42.6888 82.8854 42.8451 83.0156 43.043 83.1094C43.2409 83.2031 43.4661 83.25 43.7188 83.25C43.9974 83.25 44.2344 83.1914 44.4297 83.0742C44.625 82.957 44.7734 82.7852 44.875 82.5586C44.9792 82.3294 45.0313 82.0495 45.0313 81.7187V76ZM49.582 84.1406C49.2018 84.1406 48.8568 84.069 48.5469 83.9258C48.237 83.7799 47.9909 83.5703 47.8086 83.2969C47.6263 83.0208 47.5352 82.6875 47.5352 82.2969C47.5352 81.9531 47.6029 81.6745 47.7383 81.4609C47.8737 81.2448 48.0547 81.0755 48.2813 80.9531C48.5078 80.8307 48.7578 80.7396 49.0313 80.6797C49.3073 80.6172 49.5846 80.5677 49.8633 80.5313C50.2279 80.4844 50.5234 80.4492 50.75 80.4258C50.9792 80.3997 51.1458 80.3568 51.25 80.2969C51.3568 80.237 51.4102 80.1328 51.4102 79.9844V79.9531C51.4102 79.5677 51.3047 79.2682 51.0938 79.0547C50.8854 78.8411 50.569 78.7344 50.1445 78.7344C49.7044 78.7344 49.3594 78.8307 49.1094 79.0234C48.8594 79.2161 48.6836 79.4219 48.582 79.6406L47.707 79.3281C47.8633 78.9635 48.0716 78.6797 48.332 78.4766C48.5951 78.2708 48.8815 78.1276 49.1914 78.0469C49.5039 77.9635 49.8112 77.9219 50.1133 77.9219C50.306 77.9219 50.5273 77.9453 50.7773 77.9922C51.0299 78.0365 51.2734 78.1289 51.5078 78.2695C51.7448 78.4102 51.9414 78.6224 52.0977 78.9062C52.2539 79.1901 52.332 79.5703 52.332 80.0469V84H51.4102V83.1875H51.3633C51.3008 83.3177 51.1966 83.457 51.0508 83.6055C50.9049 83.7539 50.7109 83.8802 50.4688 83.9844C50.2266 84.0885 49.931 84.1406 49.582 84.1406ZM49.7227 83.3125C50.0872 83.3125 50.3945 83.2409 50.6445 83.0977C50.8971 82.9544 51.0872 82.7695 51.2148 82.543C51.3451 82.3164 51.4102 82.0781 51.4102 81.8281V80.9844C51.3711 81.0312 51.2852 81.0742 51.1523 81.1133C51.0221 81.1497 50.8711 81.1823 50.6992 81.2109C50.5299 81.237 50.3646 81.2604 50.2031 81.2812C50.0443 81.2995 49.9154 81.3151 49.8164 81.3281C49.5768 81.3594 49.3529 81.4102 49.1445 81.4805C48.9388 81.5482 48.7721 81.651 48.6445 81.7891C48.5195 81.9245 48.457 82.1094 48.457 82.3437C48.457 82.6641 48.5755 82.9062 48.8125 83.0703C49.0521 83.2318 49.3555 83.3125 49.7227 83.3125ZM58.7061 78L56.4873 84H55.5498L53.3311 78H54.3311L55.9873 82.7812H56.0498L57.7061 78H58.7061ZM61.5059 84.1406C61.1257 84.1406 60.7806 84.069 60.4707 83.9258C60.1608 83.7799 59.9147 83.5703 59.7324 83.2969C59.5501 83.0208 59.459 82.6875 59.459 82.2969C59.459 81.9531 59.5267 81.6745 59.6621 81.4609C59.7975 81.2448 59.9785 81.0755 60.2051 80.9531C60.4316 80.8307 60.6816 80.7396 60.9551 80.6797C61.2311 80.6172 61.5085 80.5677 61.7871 80.5313C62.1517 80.4844 62.4473 80.4492 62.6738 80.4258C62.903 80.3997 63.0697 80.3568 63.1738 80.2969C63.2806 80.237 63.334 80.1328 63.334 79.9844V79.9531C63.334 79.5677 63.2285 79.2682 63.0176 79.0547C62.8092 78.8411 62.4928 78.7344 62.0684 78.7344C61.6283 78.7344 61.2832 78.8307 61.0332 79.0234C60.7832 79.2161 60.6074 79.4219 60.5059 79.6406L59.6309 79.3281C59.7871 78.9635 59.9954 78.6797 60.2559 78.4766C60.5189 78.2708 60.8053 78.1276 61.1152 78.0469C61.4277 77.9635 61.735 77.9219 62.0371 77.9219C62.2298 77.9219 62.4512 77.9453 62.7012 77.9922C62.9538 78.0365 63.1973 78.1289 63.4316 78.2695C63.6686 78.4102 63.8652 78.6224 64.0215 78.9062C64.1777 79.1901 64.2559 79.5703 64.2559 80.0469V84H63.334V83.1875H63.2871C63.2246 83.3177 63.1204 83.457 62.9746 83.6055C62.8288 83.7539 62.6348 83.8802 62.3926 83.9844C62.1504 84.0885 61.8548 84.1406 61.5059 84.1406ZM61.6465 83.3125C62.0111 83.3125 62.3184 83.2409 62.5684 83.0977C62.821 82.9544 63.0111 82.7695 63.1387 82.543C63.2689 82.3164 63.334 82.0781 63.334 81.8281V80.9844C63.2949 81.0312 63.209 81.0742 63.0762 81.1133C62.946 81.1497 62.7949 81.1823 62.623 81.2109C62.4538 81.237 62.2884 81.2604 62.127 81.2812C61.9681 81.2995 61.8392 81.3151 61.7402 81.3281C61.5007 81.3594 61.2767 81.4102 61.0684 81.4805C60.8626 81.5482 60.696 81.651 60.5684 81.7891C60.4434 81.9245 60.3809 82.1094 60.3809 82.3437C60.3809 82.6641 60.4993 82.9062 60.7363 83.0703C60.9759 83.2318 61.2793 83.3125 61.6465 83.3125ZM70.1885 79.3437L69.3604 79.5781C69.3083 79.4401 69.2314 79.306 69.1299 79.1758C69.0309 79.043 68.8955 78.9336 68.7236 78.8477C68.5518 78.7617 68.3317 78.7187 68.0635 78.7187C67.6963 78.7187 67.3903 78.8034 67.1455 78.9727C66.9033 79.1393 66.7822 79.3516 66.7822 79.6094C66.7822 79.8385 66.8656 80.0195 67.0322 80.1523C67.1989 80.2852 67.4593 80.3958 67.8135 80.4844L68.7041 80.7031C69.2406 80.8333 69.6403 81.0326 69.9033 81.3008C70.1663 81.5664 70.2979 81.9089 70.2979 82.3281C70.2979 82.6719 70.1989 82.9792 70.001 83.25C69.8057 83.5208 69.5322 83.7344 69.1807 83.8906C68.8291 84.0469 68.4202 84.125 67.9541 84.125C67.3421 84.125 66.8356 83.9922 66.4346 83.7266C66.0335 83.4609 65.7796 83.0729 65.6729 82.5625L66.5479 82.3437C66.6312 82.6667 66.7887 82.9089 67.0205 83.0703C67.2549 83.2318 67.5609 83.3125 67.9385 83.3125C68.3682 83.3125 68.7093 83.2214 68.9619 83.0391C69.2171 82.8542 69.3447 82.6328 69.3447 82.375C69.3447 82.1667 69.2718 81.9922 69.126 81.8516C68.9801 81.7083 68.7562 81.6016 68.4541 81.5312L67.4541 81.2969C66.9046 81.1667 66.501 80.9648 66.2432 80.6914C65.988 80.4154 65.8604 80.0703 65.8604 79.6562C65.8604 79.3177 65.9554 79.0182 66.1455 78.7578C66.3382 78.4974 66.5999 78.293 66.9307 78.1445C67.264 77.9961 67.6416 77.9219 68.0635 77.9219C68.6572 77.9219 69.1234 78.0521 69.4619 78.3125C69.8031 78.5729 70.0452 78.9167 70.1885 79.3437ZM74.123 84.125C73.5605 84.125 73.0762 83.9922 72.6699 83.7266C72.2637 83.4609 71.9512 83.0951 71.7324 82.6289C71.5137 82.1628 71.4043 81.6302 71.4043 81.0312C71.4043 80.4219 71.5163 79.8841 71.7402 79.418C71.9668 78.9492 72.2819 78.5833 72.6855 78.3203C73.0918 78.0547 73.5658 77.9219 74.1074 77.9219C74.5293 77.9219 74.9095 78 75.248 78.1562C75.5866 78.3125 75.8639 78.5312 76.0801 78.8125C76.2962 79.0937 76.4303 79.4219 76.4824 79.7969H75.5605C75.4902 79.5234 75.334 79.2812 75.0918 79.0703C74.8522 78.8568 74.5293 78.75 74.123 78.75C73.7637 78.75 73.4486 78.8437 73.1777 79.0312C72.9095 79.2161 72.6999 79.4779 72.5488 79.8164C72.4004 80.1523 72.3262 80.5469 72.3262 81C72.3262 81.4635 72.3991 81.8672 72.5449 82.2109C72.6934 82.5547 72.9017 82.8216 73.1699 83.0117C73.4408 83.2018 73.7585 83.2969 74.123 83.2969C74.3626 83.2969 74.5801 83.2552 74.7754 83.1719C74.9707 83.0885 75.1361 82.9688 75.2715 82.8125C75.4069 82.6562 75.5033 82.4687 75.5605 82.25H76.4824C76.4303 82.6042 76.3014 82.9232 76.0957 83.207C75.8926 83.4883 75.623 83.7122 75.2871 83.8789C74.9538 84.043 74.5658 84.125 74.123 84.125ZM77.8301 84V78H78.7207V78.9062H78.7832C78.8926 78.6094 79.0905 78.3685 79.377 78.1836C79.6634 77.9987 79.9863 77.9062 80.3457 77.9062C80.4134 77.9062 80.498 77.9076 80.5996 77.9102C80.7012 77.9128 80.778 77.9167 80.8301 77.9219V78.8594C80.7988 78.8516 80.7272 78.8398 80.6152 78.8242C80.5059 78.806 80.39 78.7969 80.2676 78.7969C79.9759 78.7969 79.7155 78.8581 79.4863 78.9805C79.2598 79.1003 79.0801 79.2669 78.9473 79.4805C78.8171 79.6914 78.752 79.9323 78.752 80.2031V84H77.8301ZM81.9229 84V78H82.8447V84H81.9229ZM82.3916 77C82.2119 77 82.057 76.9388 81.9268 76.8164C81.7992 76.694 81.7354 76.5469 81.7354 76.375C81.7354 76.2031 81.7992 76.056 81.9268 75.9336C82.057 75.8112 82.2119 75.75 82.3916 75.75C82.5713 75.75 82.7249 75.8112 82.8525 75.9336C82.9827 76.056 83.0479 76.2031 83.0479 76.375C83.0479 76.5469 82.9827 76.694 82.8525 76.8164C82.7249 76.9388 82.5713 77 82.3916 77ZM84.5332 86.25V78H85.4238V78.9531H85.5332C85.6009 78.849 85.6947 78.7161 85.8145 78.5547C85.9368 78.3906 86.1113 78.2448 86.3379 78.1172C86.5671 77.987 86.877 77.9219 87.2676 77.9219C87.7728 77.9219 88.2181 78.0482 88.6035 78.3008C88.9889 78.5534 89.2897 78.9115 89.5059 79.375C89.722 79.8385 89.8301 80.3854 89.8301 81.0156C89.8301 81.651 89.722 82.2018 89.5059 82.668C89.2897 83.1315 88.9902 83.4909 88.6074 83.7461C88.2246 83.9987 87.7832 84.125 87.2832 84.125C86.8978 84.125 86.5892 84.0612 86.3574 83.9336C86.1257 83.8034 85.9473 83.6562 85.8223 83.4922C85.6973 83.3255 85.6009 83.1875 85.5332 83.0781H85.4551V86.25H84.5332ZM85.4395 81C85.4395 81.4531 85.5059 81.8529 85.6387 82.1992C85.7715 82.543 85.9655 82.8125 86.2207 83.0078C86.4759 83.2005 86.7884 83.2969 87.1582 83.2969C87.5436 83.2969 87.8652 83.1953 88.123 82.9922C88.3835 82.7865 88.5788 82.5104 88.709 82.1641C88.8418 81.8151 88.9082 81.4271 88.9082 81C88.9082 80.5781 88.8431 80.1979 88.7129 79.8594C88.5853 79.5182 88.3913 79.2487 88.1309 79.0508C87.873 78.8503 87.5488 78.75 87.1582 78.75C86.7832 78.75 86.4681 78.8451 86.2129 79.0352C85.9577 79.2227 85.765 79.4857 85.6348 79.8242C85.5046 80.1602 85.4395 80.5521 85.4395 81ZM93.8457 78V78.7812H90.7363V78H93.8457ZM91.6426 76.5625H92.5645V82.2812C92.5645 82.5417 92.6022 82.737 92.6777 82.8672C92.7559 82.9948 92.8548 83.0807 92.9746 83.125C93.097 83.1667 93.2259 83.1875 93.3613 83.1875C93.4629 83.1875 93.5462 83.1823 93.6113 83.1719C93.6764 83.1589 93.7285 83.1484 93.7676 83.1406L93.9551 83.9687C93.8926 83.9922 93.8053 84.0156 93.6934 84.0391C93.5814 84.0651 93.4395 84.0781 93.2676 84.0781C93.0072 84.0781 92.752 84.0221 92.502 83.9102C92.2546 83.7982 92.0488 83.6276 91.8848 83.3984C91.7233 83.1693 91.6426 82.8802 91.6426 82.5312V76.5625Z" fill="black"/>
<path d="M100.641 82.3594V81.5625L104.156 76H104.734V77.2344H104.344L101.688 81.4375V81.5H106.422V82.3594H100.641ZM104.406 84V82.1172V81.7461V76H105.328V84H104.406ZM108.136 84L111.714 76.9219V76.8594H107.589V76H112.714V76.9062L109.151 84H108.136ZM113.482 84.0625C113.29 84.0625 113.124 83.9935 112.986 83.8555C112.848 83.7174 112.779 83.5521 112.779 83.3594C112.779 83.1667 112.848 83.0013 112.986 82.8633C113.124 82.7253 113.29 82.6562 113.482 82.6562C113.675 82.6562 113.84 82.7253 113.979 82.8633C114.117 83.0013 114.186 83.1667 114.186 83.3594C114.186 83.487 114.153 83.6042 114.088 83.7109C114.025 83.8177 113.941 83.9036 113.834 83.9687C113.73 84.0313 113.613 84.0625 113.482 84.0625ZM118.163 84.1094C117.705 84.1094 117.292 84.0182 116.925 83.8359C116.558 83.6536 116.263 83.4036 116.042 83.0859C115.821 82.7682 115.7 82.4062 115.679 82H116.616C116.653 82.362 116.817 82.6615 117.108 82.8984C117.403 83.1328 117.754 83.25 118.163 83.25C118.491 83.25 118.783 83.1732 119.038 83.0195C119.296 82.8659 119.498 82.6549 119.644 82.3867C119.792 82.1159 119.866 81.8099 119.866 81.4687C119.866 81.1198 119.789 80.8086 119.636 80.5352C119.485 80.2591 119.276 80.0417 119.011 79.8828C118.745 79.724 118.442 79.6432 118.101 79.6406C117.856 79.638 117.604 79.6758 117.347 79.7539C117.089 79.8294 116.877 79.9271 116.71 80.0469L115.804 79.9375L116.288 76H120.444V76.8594H117.101L116.819 79.2187H116.866C117.03 79.0885 117.236 78.9805 117.483 78.8945C117.731 78.8086 117.989 78.7656 118.257 78.7656C118.746 78.7656 119.183 78.8828 119.565 79.1172C119.951 79.349 120.253 79.6667 120.472 80.0703C120.693 80.474 120.804 80.9349 120.804 81.4531C120.804 81.9635 120.689 82.4193 120.46 82.8203C120.233 83.2187 119.921 83.5339 119.522 83.7656C119.124 83.9948 118.671 84.1094 118.163 84.1094ZM126.434 82.5V82.0781C126.434 81.7865 126.493 81.5195 126.613 81.2773C126.736 81.0326 126.913 80.8372 127.145 80.6914C127.379 80.543 127.663 80.4687 127.996 80.4687C128.335 80.4687 128.618 80.543 128.848 80.6914C129.077 80.8372 129.25 81.0326 129.367 81.2773C129.484 81.5195 129.543 81.7865 129.543 82.0781V82.5C129.543 82.7917 129.483 83.0599 129.363 83.3047C129.246 83.5469 129.072 83.7422 128.84 83.8906C128.611 84.0365 128.329 84.1094 127.996 84.1094C127.658 84.1094 127.372 84.0365 127.141 83.8906C126.909 83.7422 126.733 83.5469 126.613 83.3047C126.493 83.0599 126.434 82.7917 126.434 82.5ZM127.23 82.0781V82.5C127.23 82.7422 127.288 82.9596 127.402 83.1523C127.517 83.3424 127.715 83.4375 127.996 83.4375C128.27 83.4375 128.462 83.3424 128.574 83.1523C128.689 82.9596 128.746 82.7422 128.746 82.5V82.0781C128.746 81.8359 128.691 81.6198 128.582 81.4297C128.473 81.237 128.277 81.1406 127.996 81.1406C127.723 81.1406 127.526 81.237 127.406 81.4297C127.289 81.6198 127.23 81.8359 127.23 82.0781ZM122.449 77.9219V77.5C122.449 77.2083 122.509 76.9414 122.629 76.6992C122.751 76.4544 122.928 76.2591 123.16 76.1133C123.395 75.9648 123.678 75.8906 124.012 75.8906C124.35 75.8906 124.634 75.9648 124.863 76.1133C125.092 76.2591 125.266 76.4544 125.383 76.6992C125.5 76.9414 125.559 77.2083 125.559 77.5V77.9219C125.559 78.2135 125.499 78.4818 125.379 78.7266C125.262 78.9687 125.087 79.1641 124.855 79.3125C124.626 79.4583 124.345 79.5312 124.012 79.5312C123.673 79.5312 123.388 79.4583 123.156 79.3125C122.924 79.1641 122.749 78.9687 122.629 78.7266C122.509 78.4818 122.449 78.2135 122.449 77.9219ZM123.246 77.5V77.9219C123.246 78.1641 123.303 78.3815 123.418 78.5742C123.533 78.7643 123.73 78.8594 124.012 78.8594C124.285 78.8594 124.478 78.7643 124.59 78.5742C124.704 78.3815 124.762 78.1641 124.762 77.9219V77.5C124.762 77.2578 124.707 77.0417 124.598 76.8516C124.488 76.6589 124.293 76.5625 124.012 76.5625C123.738 76.5625 123.542 76.6589 123.422 76.8516C123.305 77.0417 123.246 77.2578 123.246 77.5ZM122.746 84L128.246 76H129.137L123.637 84H122.746Z" fill="black"/>
<circle cx="166" cy="80" r="6" fill="#F05138"/>
<path d="M182.344 78C182.297 77.6042 182.107 77.2969 181.773 77.0781C181.44 76.8594 181.031 76.75 180.547 76.75C180.193 76.75 179.883 76.8073 179.617 76.9219C179.354 77.0365 179.148 77.194 179 77.3945C178.854 77.5951 178.781 77.8229 178.781 78.0781C178.781 78.2917 178.832 78.4753 178.934 78.6289C179.038 78.7799 179.171 78.9062 179.332 79.0078C179.493 79.1068 179.663 79.1888 179.84 79.2539C180.017 79.3164 180.18 79.3672 180.328 79.4062L181.141 79.625C181.349 79.6797 181.581 79.7552 181.836 79.8516C182.094 79.9479 182.34 80.0794 182.574 80.2461C182.811 80.4102 183.007 80.6211 183.16 80.8789C183.314 81.1367 183.391 81.4531 183.391 81.8281C183.391 82.2604 183.277 82.651 183.051 83C182.827 83.349 182.499 83.6263 182.066 83.832C181.637 84.0378 181.115 84.1406 180.5 84.1406C179.927 84.1406 179.431 84.0482 179.012 83.8633C178.595 83.6784 178.267 83.4206 178.027 83.0898C177.79 82.7591 177.656 82.375 177.625 81.9375H178.625C178.651 82.2396 178.753 82.4896 178.93 82.6875C179.109 82.8828 179.336 83.0286 179.609 83.125C179.885 83.2187 180.182 83.2656 180.5 83.2656C180.87 83.2656 181.202 83.2057 181.496 83.0859C181.79 82.9635 182.023 82.7943 182.195 82.5781C182.367 82.3594 182.453 82.1042 182.453 81.8125C182.453 81.5469 182.379 81.3307 182.23 81.1641C182.082 80.9974 181.887 80.862 181.645 80.7578C181.402 80.6536 181.141 80.5625 180.859 80.4844L179.875 80.2031C179.25 80.0234 178.755 79.7669 178.391 79.4336C178.026 79.1003 177.844 78.6641 177.844 78.125C177.844 77.6771 177.965 77.2865 178.207 76.9531C178.452 76.6172 178.78 76.3568 179.191 76.1719C179.605 75.9844 180.068 75.8906 180.578 75.8906C181.094 75.8906 181.552 75.9831 181.953 76.168C182.354 76.3503 182.672 76.6003 182.906 76.918C183.143 77.2357 183.268 77.5964 183.281 78H182.344ZM186.218 84L184.39 78H185.358L186.655 82.5938H186.718L187.999 78H188.983L190.249 82.5781H190.312L191.608 78H192.577L190.749 84H189.843L188.53 79.3906H188.437L187.124 84H186.218ZM193.796 84V78H194.718V84H193.796ZM194.265 77C194.085 77 193.93 76.9388 193.8 76.8164C193.672 76.694 193.608 76.5469 193.608 76.375C193.608 76.2031 193.672 76.056 193.8 75.9336C193.93 75.8112 194.085 75.75 194.265 75.75C194.444 75.75 194.598 75.8112 194.726 75.9336C194.856 76.056 194.921 76.2031 194.921 76.375C194.921 76.5469 194.856 76.694 194.726 76.8164C194.598 76.9388 194.444 77 194.265 77ZM199.078 78V78.7812H195.844V78H199.078ZM196.813 84V77.1719C196.813 76.8281 196.893 76.5417 197.055 76.3125C197.216 76.0833 197.426 75.9115 197.684 75.7969C197.941 75.6823 198.214 75.625 198.5 75.625C198.727 75.625 198.911 75.6432 199.055 75.6797C199.198 75.7161 199.305 75.75 199.375 75.7812L199.109 76.5781C199.063 76.5625 198.997 76.543 198.914 76.5195C198.833 76.4961 198.727 76.4844 198.594 76.4844C198.289 76.4844 198.069 76.5612 197.934 76.7148C197.801 76.8685 197.734 77.0937 197.734 77.3906V84H196.813ZM202.979 78V78.7812H199.87V78H202.979ZM200.776 76.5625H201.698V82.2812C201.698 82.5417 201.736 82.737 201.812 82.8672C201.89 82.9948 201.989 83.0807 202.108 83.125C202.231 83.1667 202.36 83.1875 202.495 83.1875C202.597 83.1875 202.68 83.1823 202.745 83.1719C202.81 83.1589 202.862 83.1484 202.901 83.1406L203.089 83.9687C203.026 83.9922 202.939 84.0156 202.827 84.0391C202.715 84.0651 202.573 84.0781 202.401 84.0781C202.141 84.0781 201.886 84.0221 201.636 83.9102C201.388 83.7982 201.183 83.6276 201.019 83.3984C200.857 83.1693 200.776 82.8802 200.776 82.5312V76.5625Z" fill="black"/>
<path d="M209.828 84V83.2969L212.469 80.4062C212.779 80.0677 213.034 79.7734 213.234 79.5234C213.435 79.2708 213.583 79.0339 213.68 78.8125C213.779 78.5885 213.828 78.3542 213.828 78.1094C213.828 77.8281 213.76 77.5846 213.625 77.3789C213.492 77.1732 213.31 77.0143 213.078 76.9023C212.846 76.7904 212.586 76.7344 212.297 76.7344C211.99 76.7344 211.721 76.7982 211.492 76.9258C211.266 77.0508 211.09 77.2266 210.965 77.4531C210.842 77.6797 210.781 77.9453 210.781 78.25H209.859C209.859 77.7812 209.967 77.3698 210.184 77.0156C210.4 76.6615 210.694 76.3854 211.066 76.1875C211.441 75.9896 211.862 75.8906 212.328 75.8906C212.797 75.8906 213.212 75.9896 213.574 76.1875C213.936 76.3854 214.22 76.6523 214.426 76.9883C214.632 77.3242 214.734 77.6979 214.734 78.1094C214.734 78.4036 214.681 78.6914 214.574 78.9727C214.47 79.2513 214.288 79.5625 214.027 79.9062C213.77 80.2474 213.411 80.6641 212.953 81.1562L211.156 83.0781V83.1406H214.875V84H209.828ZM219.301 76V84H218.332V77.0156H218.285L216.332 78.3125V77.3281L218.332 76H219.301ZM221.816 84.0625C221.624 84.0625 221.458 83.9935 221.32 83.8555C221.182 83.7174 221.113 83.5521 221.113 83.3594C221.113 83.1667 221.182 83.0013 221.32 82.8633C221.458 82.7253 221.624 82.6562 221.816 82.6562C222.009 82.6562 222.174 82.7253 222.313 82.8633C222.451 83.0013 222.52 83.1667 222.52 83.3594C222.52 83.487 222.487 83.6042 222.422 83.7109C222.359 83.8177 222.275 83.9036 222.168 83.9687C222.064 84.0313 221.947 84.0625 221.816 84.0625ZM226.474 84.1094C225.937 84.1094 225.463 84.0143 225.052 83.8242C224.643 83.6315 224.324 83.3672 224.095 83.0312C223.866 82.6927 223.752 82.3073 223.755 81.875C223.752 81.5365 223.819 81.224 223.954 80.9375C224.09 80.6484 224.274 80.4076 224.509 80.2148C224.746 80.0195 225.01 79.8958 225.302 79.8438V79.7969C224.919 79.6979 224.614 79.4831 224.388 79.1523C224.161 78.819 224.049 78.4401 224.052 78.0156C224.049 77.6094 224.152 77.2461 224.36 76.9258C224.569 76.6055 224.855 76.3529 225.22 76.168C225.587 75.9831 226.005 75.8906 226.474 75.8906C226.937 75.8906 227.351 75.9831 227.716 76.168C228.08 76.3529 228.367 76.6055 228.575 76.9258C228.786 77.2461 228.893 77.6094 228.896 78.0156C228.893 78.4401 228.777 78.819 228.548 79.1523C228.321 79.4831 228.021 79.6979 227.646 79.7969V79.8438C227.935 79.8958 228.195 80.0195 228.427 80.2148C228.659 80.4076 228.843 80.6484 228.981 80.9375C229.119 81.224 229.19 81.5365 229.192 81.875C229.19 82.3073 229.073 82.6927 228.841 83.0312C228.612 83.3672 228.293 83.6315 227.884 83.8242C227.478 84.0143 227.007 84.1094 226.474 84.1094ZM226.474 83.25C226.836 83.25 227.148 83.1914 227.411 83.0742C227.674 82.957 227.877 82.7917 228.021 82.5781C228.164 82.3646 228.237 82.1146 228.239 81.8281C228.237 81.526 228.159 81.2591 228.005 81.0273C227.851 80.7956 227.642 80.6133 227.376 80.4805C227.113 80.3477 226.812 80.2812 226.474 80.2812C226.132 80.2812 225.828 80.3477 225.56 80.4805C225.294 80.6133 225.084 80.7956 224.931 81.0273C224.78 81.2591 224.705 81.526 224.708 81.8281C224.705 82.1146 224.774 82.3646 224.915 82.5781C225.058 82.7917 225.263 82.957 225.528 83.0742C225.794 83.1914 226.109 83.25 226.474 83.25ZM226.474 79.4531C226.76 79.4531 227.014 79.3958 227.235 79.2812C227.459 79.1667 227.635 79.0065 227.763 78.8008C227.89 78.5951 227.955 78.3542 227.958 78.0781C227.955 77.8073 227.892 77.5716 227.767 77.3711C227.642 77.168 227.468 77.0117 227.247 76.9023C227.026 76.7904 226.768 76.7344 226.474 76.7344C226.174 76.7344 225.912 76.7904 225.688 76.9023C225.465 77.0117 225.291 77.168 225.169 77.3711C225.047 77.5716 224.987 77.8073 224.989 78.0781C224.987 78.3542 225.048 78.5951 225.173 78.8008C225.3 79.0065 225.476 79.1667 225.7 79.2812C225.924 79.3958 226.182 79.4531 226.474 79.4531ZM234.768 82.5V82.0781C234.768 81.7865 234.827 81.5195 234.947 81.2773C235.07 81.0326 235.247 80.8372 235.479 80.6914C235.713 80.543 235.997 80.4687 236.33 80.4687C236.669 80.4687 236.952 80.543 237.182 80.6914C237.411 80.8372 237.584 81.0326 237.701 81.2773C237.818 81.5195 237.877 81.7865 237.877 82.0781V82.5C237.877 82.7917 237.817 83.0599 237.697 83.3047C237.58 83.5469 237.406 83.7422 237.174 83.8906C236.945 84.0365 236.663 84.1094 236.33 84.1094C235.992 84.1094 235.706 84.0365 235.475 83.8906C235.243 83.7422 235.067 83.5469 234.947 83.3047C234.827 83.0599 234.768 82.7917 234.768 82.5ZM235.564 82.0781V82.5C235.564 82.7422 235.622 82.9596 235.736 83.1523C235.851 83.3424 236.049 83.4375 236.33 83.4375C236.604 83.4375 236.796 83.3424 236.908 83.1523C237.023 82.9596 237.08 82.7422 237.08 82.5V82.0781C237.08 81.8359 237.025 81.6198 236.916 81.4297C236.807 81.237 236.611 81.1406 236.33 81.1406C236.057 81.1406 235.86 81.237 235.74 81.4297C235.623 81.6198 235.564 81.8359 235.564 82.0781ZM230.783 77.9219V77.5C230.783 77.2083 230.843 76.9414 230.963 76.6992C231.085 76.4544 231.262 76.2591 231.494 76.1133C231.729 75.9648 232.012 75.8906 232.346 75.8906C232.684 75.8906 232.968 75.9648 233.197 76.1133C233.426 76.2591 233.6 76.4544 233.717 76.6992C233.834 76.9414 233.893 77.2083 233.893 77.5V77.9219C233.893 78.2135 233.833 78.4818 233.713 78.7266C233.596 78.9687 233.421 79.1641 233.189 79.3125C232.96 79.4583 232.679 79.5312 232.346 79.5312C232.007 79.5312 231.722 79.4583 231.49 79.3125C231.258 79.1641 231.083 78.9687 230.963 78.7266C230.843 78.4818 230.783 78.2135 230.783 77.9219ZM231.58 77.5V77.9219C231.58 78.1641 231.637 78.3815 231.752 78.5742C231.867 78.7643 232.064 78.8594 232.346 78.8594C232.619 78.8594 232.812 78.7643 232.924 78.5742C233.038 78.3815 233.096 78.1641 233.096 77.9219V77.5C233.096 77.2578 233.041 77.0417 232.932 76.8516C232.822 76.6589 232.627 76.5625 232.346 76.5625C232.072 76.5625 231.876 76.6589 231.756 76.8516C231.639 77.0417 231.58 77.2578 231.58 77.5ZM231.08 84L236.58 76H237.471L231.971 84H231.08Z" fill="black"/>
<circle cx="30" cy="132" r="6" fill="#69C486"/>
<path d="M48.7188 132C48.7188 132.844 48.5664 133.573 48.2617 134.187C47.957 134.802 47.5391 135.276 47.0078 135.609C46.4766 135.943 45.8698 136.109 45.1875 136.109C44.5052 136.109 43.8984 135.943 43.3672 135.609C42.8359 135.276 42.418 134.802 42.1133 134.187C41.8086 133.573 41.6563 132.844 41.6563 132C41.6563 131.156 41.8086 130.427 42.1133 129.812C42.418 129.198 42.8359 128.724 43.3672 128.391C43.8984 128.057 44.5052 127.891 45.1875 127.891C45.8698 127.891 46.4766 128.057 47.0078 128.391C47.5391 128.724 47.957 129.198 48.2617 129.812C48.5664 130.427 48.7188 131.156 48.7188 132ZM47.7813 132C47.7813 131.307 47.6654 130.723 47.4336 130.246C47.2044 129.77 46.8932 129.409 46.5 129.164C46.1094 128.919 45.6719 128.797 45.1875 128.797C44.7031 128.797 44.2643 128.919 43.8711 129.164C43.4805 129.409 43.1693 129.77 42.9375 130.246C42.7083 130.723 42.5938 131.307 42.5938 132C42.5938 132.693 42.7083 133.277 42.9375 133.754C43.1693 134.23 43.4805 134.591 43.8711 134.836C44.2643 135.081 44.7031 135.203 45.1875 135.203C45.6719 135.203 46.1094 135.081 46.5 134.836C46.8932 134.591 47.2044 134.23 47.4336 133.754C47.6654 133.277 47.7813 132.693 47.7813 132ZM50.3477 136V128H51.2695V130.953H51.3477C51.4154 130.849 51.5091 130.716 51.6289 130.555C51.7513 130.391 51.9258 130.245 52.1523 130.117C52.3815 129.987 52.6914 129.922 53.082 129.922C53.5872 129.922 54.0326 130.048 54.418 130.301C54.8034 130.553 55.1042 130.911 55.3203 131.375C55.5365 131.839 55.6445 132.385 55.6445 133.016C55.6445 133.651 55.5365 134.202 55.3203 134.668C55.1042 135.132 54.8047 135.491 54.4219 135.746C54.0391 135.999 53.5977 136.125 53.0977 136.125C52.7122 136.125 52.4036 136.061 52.1719 135.934C51.9401 135.803 51.7617 135.656 51.6367 135.492C51.5117 135.326 51.4154 135.187 51.3477 135.078H51.2383V136H50.3477ZM51.2539 133C51.2539 133.453 51.3203 133.853 51.4531 134.199C51.5859 134.543 51.7799 134.812 52.0352 135.008C52.2904 135.201 52.6029 135.297 52.9727 135.297C53.3581 135.297 53.6797 135.195 53.9375 134.992C54.1979 134.786 54.3932 134.51 54.5234 134.164C54.6563 133.815 54.7227 133.427 54.7227 133C54.7227 132.578 54.6576 132.198 54.5273 131.859C54.3997 131.518 54.2057 131.249 53.9453 131.051C53.6875 130.85 53.3633 130.75 52.9727 130.75C52.5977 130.75 52.2826 130.845 52.0273 131.035C51.7721 131.223 51.5794 131.486 51.4492 131.824C51.319 132.16 51.2539 132.552 51.2539 133ZM57.0547 130H57.9766V136.437C57.9766 136.807 57.9128 137.128 57.7852 137.398C57.6602 137.669 57.4701 137.879 57.2148 138.027C56.9622 138.176 56.6432 138.25 56.2578 138.25C56.2266 138.25 56.1953 138.25 56.1641 138.25C56.1328 138.25 56.1016 138.25 56.0703 138.25V137.391C56.1016 137.391 56.1302 137.391 56.1563 137.391C56.1823 137.391 56.2109 137.391 56.2422 137.391C56.5234 137.391 56.7292 137.307 56.8594 137.141C56.9896 136.977 57.0547 136.742 57.0547 136.437V130ZM57.5078 129C57.3281 129 57.1732 128.939 57.043 128.816C56.9154 128.694 56.8516 128.547 56.8516 128.375C56.8516 128.203 56.9154 128.056 57.043 127.934C57.1732 127.811 57.3281 127.75 57.5078 127.75C57.6875 127.75 57.8411 127.811 57.9688 127.934C58.099 128.056 58.1641 128.203 58.1641 128.375C58.1641 128.547 58.099 128.694 57.9688 128.816C57.8411 128.939 57.6875 129 57.5078 129ZM62.1807 136.125C61.6025 136.125 61.1038 135.997 60.6846 135.742C60.2679 135.484 59.9463 135.125 59.7197 134.664C59.4958 134.201 59.3838 133.661 59.3838 133.047C59.3838 132.432 59.4958 131.891 59.7197 131.422C59.9463 130.951 60.2614 130.583 60.665 130.32C61.0713 130.055 61.5452 129.922 62.0869 129.922C62.3994 129.922 62.708 129.974 63.0127 130.078C63.3174 130.182 63.5947 130.352 63.8447 130.586C64.0947 130.818 64.2939 131.125 64.4424 131.508C64.5908 131.891 64.665 132.362 64.665 132.922V133.312H60.04V132.516H63.7275C63.7275 132.177 63.6598 131.875 63.5244 131.609C63.3916 131.344 63.2015 131.134 62.9541 130.98C62.7093 130.827 62.4202 130.75 62.0869 130.75C61.7197 130.75 61.402 130.841 61.1338 131.023C60.8682 131.203 60.6637 131.437 60.5205 131.727C60.3773 132.016 60.3057 132.326 60.3057 132.656V133.188C60.3057 133.641 60.3838 134.025 60.54 134.34C60.6989 134.652 60.9189 134.891 61.2002 135.055C61.4814 135.216 61.8083 135.297 62.1807 135.297C62.4229 135.297 62.6416 135.263 62.8369 135.195C63.0348 135.125 63.2054 135.021 63.3486 134.883C63.4919 134.742 63.6025 134.568 63.6807 134.359L64.5713 134.609C64.4775 134.911 64.32 135.177 64.0986 135.406C63.8773 135.633 63.6038 135.81 63.2783 135.937C62.9528 136.063 62.5869 136.125 62.1807 136.125ZM68.5049 136.125C67.9424 136.125 67.458 135.992 67.0518 135.727C66.6455 135.461 66.333 135.095 66.1143 134.629C65.8955 134.163 65.7861 133.63 65.7861 133.031C65.7861 132.422 65.8981 131.884 66.1221 131.418C66.3486 130.949 66.6637 130.583 67.0674 130.32C67.4736 130.055 67.9476 129.922 68.4893 129.922C68.9111 129.922 69.2913 130 69.6299 130.156C69.9684 130.312 70.2458 130.531 70.4619 130.812C70.6781 131.094 70.8122 131.422 70.8643 131.797H69.9424C69.8721 131.523 69.7158 131.281 69.4736 131.07C69.234 130.857 68.9111 130.75 68.5049 130.75C68.1455 130.75 67.8304 130.844 67.5596 131.031C67.2913 131.216 67.0817 131.478 66.9307 131.816C66.7822 132.152 66.708 132.547 66.708 133C66.708 133.464 66.7809 133.867 66.9268 134.211C67.0752 134.555 67.2835 134.822 67.5518 135.012C67.8226 135.202 68.1403 135.297 68.5049 135.297C68.7445 135.297 68.9619 135.255 69.1572 135.172C69.3525 135.089 69.5179 134.969 69.6533 134.812C69.7887 134.656 69.8851 134.469 69.9424 134.25H70.8643C70.8122 134.604 70.6833 134.923 70.4775 135.207C70.2744 135.488 70.0049 135.712 69.6689 135.879C69.3356 136.043 68.9476 136.125 68.5049 136.125ZM74.8213 130V130.781H71.7119V130H74.8213ZM72.6182 128.562H73.54V134.281C73.54 134.542 73.5778 134.737 73.6533 134.867C73.7314 134.995 73.8304 135.081 73.9502 135.125C74.0726 135.167 74.2015 135.187 74.3369 135.187C74.4385 135.187 74.5218 135.182 74.5869 135.172C74.652 135.159 74.7041 135.148 74.7432 135.141L74.9307 135.969C74.8682 135.992 74.7809 136.016 74.6689 136.039C74.557 136.065 74.415 136.078 74.2432 136.078C73.9827 136.078 73.7275 136.022 73.4775 135.91C73.2301 135.798 73.0244 135.628 72.8604 135.398C72.6989 135.169 72.6182 134.88 72.6182 134.531V128.562ZM76.208 136V130H77.1299V136H76.208ZM76.6768 129C76.4971 129 76.3421 128.939 76.2119 128.816C76.0843 128.694 76.0205 128.547 76.0205 128.375C76.0205 128.203 76.0843 128.056 76.2119 127.934C76.3421 127.811 76.4971 127.75 76.6768 127.75C76.8564 127.75 77.0101 127.811 77.1377 127.934C77.2679 128.056 77.333 128.203 77.333 128.375C77.333 128.547 77.2679 128.694 77.1377 128.816C77.0101 128.939 76.8564 129 76.6768 129ZM83.7246 130L81.5059 136H80.5684L78.3496 130H79.3496L81.0059 134.781H81.0684L82.7246 130H83.7246ZM87.2422 136.125C86.6641 136.125 86.1654 135.997 85.7461 135.742C85.3294 135.484 85.0078 135.125 84.7813 134.664C84.5573 134.201 84.4453 133.661 84.4453 133.047C84.4453 132.432 84.5573 131.891 84.7813 131.422C85.0078 130.951 85.3229 130.583 85.7266 130.32C86.1328 130.055 86.6068 129.922 87.1484 129.922C87.4609 129.922 87.7695 129.974 88.0742 130.078C88.3789 130.182 88.6563 130.352 88.9063 130.586C89.1563 130.818 89.3555 131.125 89.5039 131.508C89.6523 131.891 89.7266 132.362 89.7266 132.922V133.312H85.1016V132.516H88.7891C88.7891 132.177 88.7214 131.875 88.5859 131.609C88.4531 131.344 88.263 131.134 88.0156 130.98C87.7708 130.827 87.4818 130.75 87.1484 130.75C86.7813 130.75 86.4635 130.841 86.1953 131.023C85.9297 131.203 85.7253 131.437 85.582 131.727C85.4388 132.016 85.3672 132.326 85.3672 132.656V133.188C85.3672 133.641 85.4453 134.025 85.6016 134.34C85.7604 134.652 85.9805 134.891 86.2617 135.055C86.543 135.216 86.8698 135.297 87.2422 135.297C87.4844 135.297 87.7031 135.263 87.8984 135.195C88.0964 135.125 88.2669 135.021 88.4102 134.883C88.5534 134.742 88.6641 134.568 88.7422 134.359L89.6328 134.609C89.5391 134.911 89.3815 135.177 89.1602 135.406C88.9388 135.633 88.6654 135.81 88.3398 135.937C88.0143 136.063 87.6484 136.125 87.2422 136.125ZM94.5664 132.141V133H91.0664V132.141H94.5664ZM102.751 130.5H101.782C101.725 130.221 101.625 129.977 101.481 129.766C101.341 129.555 101.169 129.378 100.966 129.234C100.765 129.089 100.543 128.979 100.298 128.906C100.053 128.833 99.7979 128.797 99.5322 128.797C99.0479 128.797 98.609 128.919 98.2158 129.164C97.8252 129.409 97.514 129.77 97.2822 130.246C97.0531 130.723 96.9385 131.307 96.9385 132C96.9385 132.693 97.0531 133.277 97.2822 133.754C97.514 134.23 97.8252 134.591 98.2158 134.836C98.609 135.081 99.0479 135.203 99.5322 135.203C99.7979 135.203 100.053 135.167 100.298 135.094C100.543 135.021 100.765 134.913 100.966 134.77C101.169 134.624 101.341 134.445 101.481 134.234C101.625 134.021 101.725 133.776 101.782 133.5H102.751C102.678 133.909 102.545 134.275 102.353 134.598C102.16 134.921 101.92 135.195 101.634 135.422C101.347 135.646 101.026 135.816 100.669 135.934C100.315 136.051 99.9359 136.109 99.5322 136.109C98.8499 136.109 98.2432 135.943 97.7119 135.609C97.1807 135.276 96.7627 134.802 96.458 134.187C96.1533 133.573 96.001 132.844 96.001 132C96.001 131.156 96.1533 130.427 96.458 129.812C96.7627 129.198 97.1807 128.724 97.7119 128.391C98.2432 128.057 98.8499 127.891 99.5322 127.891C99.9359 127.891 100.315 127.949 100.669 128.066C101.026 128.184 101.347 128.355 101.634 128.582C101.92 128.806 102.16 129.079 102.353 129.402C102.545 129.723 102.678 130.089 102.751 130.5Z" fill="black"/>
<path d="M112.328 136.109C111.87 136.109 111.457 136.018 111.09 135.836C110.723 135.654 110.428 135.404 110.207 135.086C109.986 134.768 109.865 134.406 109.844 134H110.781C110.818 134.362 110.982 134.661 111.273 134.898C111.568 135.133 111.919 135.25 112.328 135.25C112.656 135.25 112.948 135.173 113.203 135.02C113.461 134.866 113.663 134.655 113.809 134.387C113.957 134.116 114.031 133.81 114.031 133.469C114.031 133.12 113.954 132.809 113.801 132.535C113.65 132.259 113.441 132.042 113.176 131.883C112.91 131.724 112.607 131.643 112.266 131.641C112.021 131.638 111.77 131.676 111.512 131.754C111.254 131.829 111.042 131.927 110.875 132.047L109.969 131.937L110.453 128H114.609V128.859H111.266L110.984 131.219H111.031C111.195 131.089 111.401 130.98 111.648 130.895C111.896 130.809 112.154 130.766 112.422 130.766C112.911 130.766 113.348 130.883 113.73 131.117C114.116 131.349 114.418 131.667 114.637 132.07C114.858 132.474 114.969 132.935 114.969 133.453C114.969 133.964 114.854 134.419 114.625 134.82C114.398 135.219 114.086 135.534 113.688 135.766C113.289 135.995 112.836 136.109 112.328 136.109ZM116.907 136.063C116.715 136.063 116.549 135.993 116.411 135.855C116.273 135.717 116.204 135.552 116.204 135.359C116.204 135.167 116.273 135.001 116.411 134.863C116.549 134.725 116.715 134.656 116.907 134.656C117.1 134.656 117.265 134.725 117.403 134.863C117.541 135.001 117.61 135.167 117.61 135.359C117.61 135.487 117.578 135.604 117.513 135.711C117.45 135.818 117.366 135.904 117.259 135.969C117.155 136.031 117.037 136.063 116.907 136.063ZM121.651 136.109C121.136 136.109 120.676 136.021 120.272 135.844C119.871 135.667 119.552 135.421 119.315 135.105C119.081 134.788 118.953 134.419 118.933 134H119.917C119.938 134.258 120.026 134.48 120.183 134.668C120.339 134.853 120.543 134.996 120.796 135.098C121.049 135.199 121.328 135.25 121.636 135.25C121.979 135.25 122.284 135.19 122.55 135.07C122.815 134.951 123.024 134.784 123.175 134.57C123.326 134.357 123.401 134.109 123.401 133.828C123.401 133.534 123.328 133.275 123.183 133.051C123.037 132.824 122.823 132.647 122.542 132.52C122.261 132.392 121.917 132.328 121.511 132.328H120.87V131.469H121.511C121.828 131.469 122.107 131.411 122.347 131.297C122.589 131.182 122.778 131.021 122.913 130.812C123.051 130.604 123.12 130.359 123.12 130.078C123.12 129.807 123.06 129.572 122.94 129.371C122.821 129.171 122.651 129.014 122.433 128.902C122.216 128.79 121.961 128.734 121.667 128.734C121.391 128.734 121.131 128.785 120.886 128.887C120.644 128.986 120.446 129.13 120.292 129.32C120.138 129.508 120.055 129.734 120.042 130H119.104C119.12 129.581 119.246 129.214 119.483 128.898C119.72 128.581 120.03 128.333 120.413 128.156C120.799 127.979 121.222 127.891 121.683 127.891C122.177 127.891 122.602 127.991 122.956 128.191C123.31 128.389 123.582 128.651 123.772 128.977C123.963 129.302 124.058 129.654 124.058 130.031C124.058 130.482 123.939 130.866 123.702 131.184C123.468 131.501 123.149 131.721 122.745 131.844V131.906C123.25 131.99 123.645 132.204 123.929 132.551C124.213 132.895 124.354 133.32 124.354 133.828C124.354 134.263 124.236 134.654 123.999 135C123.765 135.344 123.444 135.615 123.038 135.812C122.632 136.01 122.17 136.109 121.651 136.109ZM130.03 134.5V134.078C130.03 133.786 130.09 133.52 130.21 133.277C130.332 133.033 130.509 132.837 130.741 132.691C130.976 132.543 131.259 132.469 131.593 132.469C131.931 132.469 132.215 132.543 132.444 132.691C132.674 132.837 132.847 133.033 132.964 133.277C133.081 133.52 133.14 133.786 133.14 134.078V134.5C133.14 134.792 133.08 135.06 132.96 135.305C132.843 135.547 132.668 135.742 132.437 135.891C132.207 136.036 131.926 136.109 131.593 136.109C131.254 136.109 130.969 136.036 130.737 135.891C130.506 135.742 130.33 135.547 130.21 135.305C130.09 135.06 130.03 134.792 130.03 134.5ZM130.827 134.078V134.5C130.827 134.742 130.884 134.96 130.999 135.152C131.114 135.342 131.312 135.437 131.593 135.437C131.866 135.437 132.059 135.342 132.171 135.152C132.285 134.96 132.343 134.742 132.343 134.5V134.078C132.343 133.836 132.288 133.62 132.179 133.43C132.069 133.237 131.874 133.141 131.593 133.141C131.319 133.141 131.123 133.237 131.003 133.43C130.886 133.62 130.827 133.836 130.827 134.078ZM126.046 129.922V129.5C126.046 129.208 126.106 128.941 126.226 128.699C126.348 128.454 126.525 128.259 126.757 128.113C126.991 127.965 127.275 127.891 127.608 127.891C127.947 127.891 128.231 127.965 128.46 128.113C128.689 128.259 128.862 128.454 128.979 128.699C129.097 128.941 129.155 129.208 129.155 129.5V129.922C129.155 130.214 129.095 130.482 128.976 130.727C128.858 130.969 128.684 131.164 128.452 131.312C128.223 131.458 127.942 131.531 127.608 131.531C127.27 131.531 126.985 131.458 126.753 131.312C126.521 131.164 126.345 130.969 126.226 130.727C126.106 130.482 126.046 130.214 126.046 129.922ZM126.843 129.5V129.922C126.843 130.164 126.9 130.382 127.015 130.574C127.129 130.764 127.327 130.859 127.608 130.859C127.882 130.859 128.075 130.764 128.187 130.574C128.301 130.382 128.358 130.164 128.358 129.922V129.5C128.358 129.258 128.304 129.042 128.194 128.852C128.085 128.659 127.89 128.562 127.608 128.562C127.335 128.562 127.138 128.659 127.019 128.852C126.901 129.042 126.843 129.258 126.843 129.5ZM126.343 136L131.843 128H132.733L127.233 136H126.343Z" fill="black"/>
<circle cx="166" cy="132" r="6" fill="#CAE552"/>
<path d="M177.969 136V128H178.938V131.562H183.203V128H184.172V136H183.203V132.422H178.938V136H177.969ZM185.674 128.859V128H191.674V128.859H189.158V136H188.189V128.859H185.674ZM193.169 128H194.325L197.044 134.641H197.138L199.856 128H201.013V136H200.106V129.922H200.028L197.528 136H196.653L194.153 129.922H194.075V136H193.169V128ZM202.955 136V128H203.924V135.141H207.643V136H202.955Z" fill="black"/>
<path d="M214.641 134.359V133.562L218.156 128H218.734V129.234H218.344L215.688 133.437V133.5H220.422V134.359H214.641ZM218.406 136V134.117V133.746V128H219.328V136H218.406ZM222.197 136.063C222.005 136.063 221.839 135.993 221.701 135.855C221.563 135.717 221.494 135.552 221.494 135.359C221.494 135.167 221.563 135.001 221.701 134.863C221.839 134.725 222.005 134.656 222.197 134.656C222.39 134.656 222.555 134.725 222.693 134.863C222.831 135.001 222.9 135.167 222.9 135.359C222.9 135.487 222.868 135.604 222.803 135.711C222.74 135.818 222.656 135.904 222.549 135.969C222.445 136.031 222.327 136.063 222.197 136.063ZM226.878 136.109C226.42 136.109 226.007 136.018 225.64 135.836C225.272 135.654 224.978 135.404 224.757 135.086C224.535 134.768 224.414 134.406 224.394 134H225.331C225.368 134.362 225.532 134.661 225.823 134.898C226.118 135.133 226.469 135.25 226.878 135.25C227.206 135.25 227.498 135.173 227.753 135.02C228.011 134.866 228.213 134.655 228.358 134.387C228.507 134.116 228.581 133.81 228.581 133.469C228.581 133.12 228.504 132.809 228.351 132.535C228.2 132.259 227.991 132.042 227.726 131.883C227.46 131.724 227.157 131.643 226.815 131.641C226.571 131.638 226.319 131.676 226.062 131.754C225.804 131.829 225.591 131.927 225.425 132.047L224.519 131.937L225.003 128H229.159V128.859H225.815L225.534 131.219H225.581C225.745 131.089 225.951 130.98 226.198 130.895C226.446 130.809 226.703 130.766 226.972 130.766C227.461 130.766 227.897 130.883 228.28 131.117C228.666 131.349 228.968 131.667 229.187 132.07C229.408 132.474 229.519 132.935 229.519 133.453C229.519 133.964 229.404 134.419 229.175 134.82C228.948 135.219 228.636 135.534 228.237 135.766C227.839 135.995 227.386 136.109 226.878 136.109ZM233.633 136.109C233.096 136.109 232.622 136.014 232.211 135.824C231.802 135.632 231.483 135.367 231.254 135.031C231.025 134.693 230.911 134.307 230.914 133.875C230.911 133.536 230.978 133.224 231.113 132.937C231.249 132.648 231.434 132.408 231.668 132.215C231.905 132.02 232.169 131.896 232.461 131.844V131.797C232.078 131.698 231.773 131.483 231.547 131.152C231.32 130.819 231.208 130.44 231.211 130.016C231.208 129.609 231.311 129.246 231.52 128.926C231.728 128.605 232.014 128.353 232.379 128.168C232.746 127.983 233.164 127.891 233.633 127.891C234.096 127.891 234.51 127.983 234.875 128.168C235.24 128.353 235.526 128.605 235.734 128.926C235.945 129.246 236.052 129.609 236.055 130.016C236.052 130.44 235.936 130.819 235.707 131.152C235.48 131.483 235.18 131.698 234.805 131.797V131.844C235.094 131.896 235.354 132.02 235.586 132.215C235.818 132.408 236.003 132.648 236.141 132.937C236.279 133.224 236.349 133.536 236.352 133.875C236.349 134.307 236.232 134.693 236 135.031C235.771 135.367 235.452 135.632 235.043 135.824C234.637 136.014 234.167 136.109 233.633 136.109ZM233.633 135.25C233.995 135.25 234.307 135.191 234.57 135.074C234.833 134.957 235.036 134.792 235.18 134.578C235.323 134.365 235.396 134.115 235.398 133.828C235.396 133.526 235.318 133.259 235.164 133.027C235.01 132.796 234.801 132.613 234.535 132.48C234.272 132.348 233.971 132.281 233.633 132.281C233.292 132.281 232.987 132.348 232.719 132.48C232.453 132.613 232.243 132.796 232.09 133.027C231.939 133.259 231.865 133.526 231.867 133.828C231.865 134.115 231.934 134.365 232.074 134.578C232.217 134.792 232.422 134.957 232.688 135.074C232.953 135.191 233.268 135.25 233.633 135.25ZM233.633 131.453C233.919 131.453 234.173 131.396 234.395 131.281C234.618 131.167 234.794 131.007 234.922 130.801C235.049 130.595 235.115 130.354 235.117 130.078C235.115 129.807 235.051 129.572 234.926 129.371C234.801 129.168 234.628 129.012 234.406 128.902C234.185 128.79 233.927 128.734 233.633 128.734C233.333 128.734 233.072 128.79 232.848 128.902C232.624 129.012 232.451 129.168 232.328 129.371C232.206 129.572 232.146 129.807 232.148 130.078C232.146 130.354 232.207 130.595 232.332 130.801C232.46 131.007 232.635 131.167 232.859 131.281C233.083 131.396 233.341 131.453 233.633 131.453ZM241.927 134.5V134.078C241.927 133.786 241.987 133.52 242.106 133.277C242.229 133.033 242.406 132.837 242.638 132.691C242.872 132.543 243.156 132.469 243.489 132.469C243.828 132.469 244.112 132.543 244.341 132.691C244.57 132.837 244.743 133.033 244.86 133.277C244.978 133.52 245.036 133.786 245.036 134.078V134.5C245.036 134.792 244.976 135.06 244.856 135.305C244.739 135.547 244.565 135.742 244.333 135.891C244.104 136.036 243.823 136.109 243.489 136.109C243.151 136.109 242.866 136.036 242.634 135.891C242.402 135.742 242.226 135.547 242.106 135.305C241.987 135.06 241.927 134.792 241.927 134.5ZM242.724 134.078V134.5C242.724 134.742 242.781 134.96 242.896 135.152C243.01 135.342 243.208 135.437 243.489 135.437C243.763 135.437 243.955 135.342 244.067 135.152C244.182 134.96 244.239 134.742 244.239 134.5V134.078C244.239 133.836 244.185 133.62 244.075 133.43C243.966 133.237 243.771 133.141 243.489 133.141C243.216 133.141 243.019 133.237 242.899 133.43C242.782 133.62 242.724 133.836 242.724 134.078ZM237.942 129.922V129.5C237.942 129.208 238.002 128.941 238.122 128.699C238.244 128.454 238.422 128.259 238.653 128.113C238.888 127.965 239.172 127.891 239.505 127.891C239.843 127.891 240.127 127.965 240.356 128.113C240.586 128.259 240.759 128.454 240.876 128.699C240.993 128.941 241.052 129.208 241.052 129.5V129.922C241.052 130.214 240.992 130.482 240.872 130.727C240.755 130.969 240.58 131.164 240.349 131.312C240.119 131.458 239.838 131.531 239.505 131.531C239.166 131.531 238.881 131.458 238.649 131.312C238.418 131.164 238.242 130.969 238.122 130.727C238.002 130.482 237.942 130.214 237.942 129.922ZM238.739 129.5V129.922C238.739 130.164 238.797 130.382 238.911 130.574C239.026 130.764 239.224 130.859 239.505 130.859C239.778 130.859 239.971 130.764 240.083 130.574C240.198 130.382 240.255 130.164 240.255 129.922V129.5C240.255 129.258 240.2 129.042 240.091 128.852C239.981 128.659 239.786 128.562 239.505 128.562C239.231 128.562 239.035 128.659 238.915 128.852C238.798 129.042 238.739 129.258 238.739 129.5ZM238.239 136L243.739 128H244.63L239.13 136H238.239Z" fill="black"/>
<circle cx="30" cy="106" r="6" fill="#3178C6"/>
<path d="M41.5313 102.859V102H47.5312V102.859H45.0156V110H44.0469V102.859H41.5313ZM48.8076 112.25C48.6514 112.25 48.512 112.237 48.3896 112.211C48.2673 112.188 48.1826 112.164 48.1357 112.141L48.3701 111.328C48.5941 111.385 48.792 111.406 48.9639 111.391C49.1357 111.375 49.2881 111.298 49.4209 111.16C49.5563 111.025 49.68 110.805 49.792 110.5L49.9639 110.031L47.7451 104H48.7451L50.4014 108.781H50.4639L52.1201 104H53.1201L50.5732 110.875C50.4587 111.185 50.3167 111.441 50.1475 111.645C49.9782 111.85 49.7816 112.003 49.5576 112.102C49.3363 112.201 49.0863 112.25 48.8076 112.25ZM54.3369 112.25V104H55.2275V104.953H55.3369C55.4046 104.849 55.4984 104.716 55.6182 104.555C55.7406 104.391 55.915 104.245 56.1416 104.117C56.3708 103.987 56.6807 103.922 57.0713 103.922C57.5765 103.922 58.0218 104.048 58.4072 104.301C58.7926 104.553 59.0934 104.911 59.3096 105.375C59.5257 105.839 59.6338 106.385 59.6338 107.016C59.6338 107.651 59.5257 108.202 59.3096 108.668C59.0934 109.132 58.7939 109.491 58.4111 109.746C58.0283 109.999 57.5869 110.125 57.0869 110.125C56.7015 110.125 56.3929 110.061 56.1611 109.934C55.9294 109.803 55.751 109.656 55.626 109.492C55.501 109.326 55.4046 109.187 55.3369 109.078H55.2588V112.25H54.3369ZM55.2432 107C55.2432 107.453 55.3096 107.853 55.4424 108.199C55.5752 108.543 55.7692 108.812 56.0244 109.008C56.2796 109.201 56.5921 109.297 56.9619 109.297C57.3473 109.297 57.6689 109.195 57.9268 108.992C58.1872 108.786 58.3825 108.51 58.5127 108.164C58.6455 107.815 58.7119 107.427 58.7119 107C58.7119 106.578 58.6468 106.198 58.5166 105.859C58.389 105.518 58.195 105.249 57.9346 105.051C57.6768 104.85 57.3525 104.75 56.9619 104.75C56.5869 104.75 56.2718 104.845 56.0166 105.035C55.7614 105.223 55.5687 105.486 55.4385 105.824C55.3083 106.16 55.2432 106.552 55.2432 107ZM63.5557 110.125C62.9775 110.125 62.4788 109.997 62.0596 109.742C61.6429 109.484 61.3213 109.125 61.0947 108.664C60.8708 108.201 60.7588 107.661 60.7588 107.047C60.7588 106.432 60.8708 105.891 61.0947 105.422C61.3213 104.951 61.6364 104.583 62.04 104.32C62.4463 104.055 62.9202 103.922 63.4619 103.922C63.7744 103.922 64.083 103.974 64.3877 104.078C64.6924 104.182 64.9697 104.352 65.2197 104.586C65.4697 104.818 65.6689 105.125 65.8174 105.508C65.9658 105.891 66.04 106.362 66.04 106.922V107.312H61.415V106.516H65.1025C65.1025 106.177 65.0348 105.875 64.8994 105.609C64.7666 105.344 64.5765 105.134 64.3291 104.98C64.0843 104.827 63.7952 104.75 63.4619 104.75C63.0947 104.75 62.777 104.841 62.5088 105.023C62.2432 105.203 62.0387 105.437 61.8955 105.727C61.7523 106.016 61.6807 106.326 61.6807 106.656V107.188C61.6807 107.641 61.7588 108.025 61.915 108.34C62.0739 108.652 62.2939 108.891 62.5752 109.055C62.8564 109.216 63.1833 109.297 63.5557 109.297C63.7979 109.297 64.0166 109.263 64.2119 109.195C64.4098 109.125 64.5804 109.021 64.7236 108.883C64.8669 108.742 64.9775 108.568 65.0557 108.359L65.9463 108.609C65.8525 108.911 65.695 109.177 65.4736 109.406C65.2523 109.633 64.9788 109.81 64.6533 109.937C64.3278 110.063 63.9619 110.125 63.5557 110.125ZM71.9424 104C71.8955 103.604 71.7054 103.297 71.3721 103.078C71.0387 102.859 70.6299 102.75 70.1455 102.75C69.7913 102.75 69.4814 102.807 69.2158 102.922C68.9528 103.036 68.7471 103.194 68.5986 103.395C68.4528 103.595 68.3799 103.823 68.3799 104.078C68.3799 104.292 68.4307 104.475 68.5322 104.629C68.6364 104.78 68.7692 104.906 68.9307 105.008C69.0921 105.107 69.2614 105.189 69.4385 105.254C69.6156 105.316 69.7783 105.367 69.9268 105.406L70.7393 105.625C70.9476 105.68 71.1794 105.755 71.4346 105.852C71.6924 105.948 71.9385 106.079 72.1729 106.246C72.4098 106.41 72.6051 106.621 72.7588 106.879C72.9124 107.137 72.9893 107.453 72.9893 107.828C72.9893 108.26 72.876 108.651 72.6494 109C72.4255 109.349 72.0973 109.626 71.665 109.832C71.2354 110.038 70.7132 110.141 70.0986 110.141C69.5257 110.141 69.0296 110.048 68.6104 109.863C68.1937 109.678 67.8656 109.421 67.626 109.09C67.389 108.759 67.2549 108.375 67.2236 107.938H68.2236C68.2497 108.24 68.3512 108.49 68.5283 108.687C68.708 108.883 68.9346 109.029 69.208 109.125C69.484 109.219 69.7809 109.266 70.0986 109.266C70.4684 109.266 70.8005 109.206 71.0947 109.086C71.389 108.964 71.6221 108.794 71.7939 108.578C71.9658 108.359 72.0518 108.104 72.0518 107.812C72.0518 107.547 71.9775 107.331 71.8291 107.164C71.6807 106.997 71.4854 106.862 71.2432 106.758C71.001 106.654 70.7393 106.562 70.458 106.484L69.4736 106.203C68.8486 106.023 68.3538 105.767 67.9893 105.434C67.6247 105.1 67.4424 104.664 67.4424 104.125C67.4424 103.677 67.5635 103.286 67.8057 102.953C68.0505 102.617 68.3786 102.357 68.79 102.172C69.2041 101.984 69.6663 101.891 70.1768 101.891C70.6924 101.891 71.1507 101.983 71.5518 102.168C71.9528 102.35 72.2705 102.6 72.5049 102.918C72.7419 103.236 72.8669 103.596 72.8799 104H71.9424ZM76.8945 110.125C76.332 110.125 75.8477 109.992 75.4414 109.727C75.0352 109.461 74.7227 109.095 74.5039 108.629C74.2852 108.163 74.1758 107.63 74.1758 107.031C74.1758 106.422 74.2878 105.884 74.5117 105.418C74.7383 104.949 75.0534 104.583 75.457 104.32C75.8633 104.055 76.3372 103.922 76.8789 103.922C77.3008 103.922 77.681 104 78.0195 104.156C78.3581 104.312 78.6354 104.531 78.8516 104.812C79.0677 105.094 79.2018 105.422 79.2539 105.797H78.332C78.2617 105.523 78.1055 105.281 77.8633 105.07C77.6237 104.857 77.3008 104.75 76.8945 104.75C76.5352 104.75 76.2201 104.844 75.9492 105.031C75.681 105.216 75.4714 105.478 75.3203 105.816C75.1719 106.152 75.0977 106.547 75.0977 107C75.0977 107.464 75.1706 107.867 75.3164 108.211C75.4648 108.555 75.6732 108.822 75.9414 109.012C76.2122 109.202 76.5299 109.297 76.8945 109.297C77.1341 109.297 77.3516 109.255 77.5469 109.172C77.7422 109.089 77.9076 108.969 78.043 108.812C78.1784 108.656 78.2747 108.469 78.332 108.25H79.2539C79.2018 108.604 79.0729 108.923 78.8672 109.207C78.6641 109.488 78.3945 109.712 78.0586 109.879C77.7253 110.043 77.3372 110.125 76.8945 110.125ZM80.6016 110V104H81.4922V104.906H81.5547C81.6641 104.609 81.862 104.368 82.1484 104.184C82.4349 103.999 82.7578 103.906 83.1172 103.906C83.1849 103.906 83.2695 103.908 83.3711 103.91C83.4727 103.913 83.5495 103.917 83.6016 103.922V104.859C83.5703 104.852 83.4987 104.84 83.3867 104.824C83.2773 104.806 83.1615 104.797 83.0391 104.797C82.7474 104.797 82.487 104.858 82.2578 104.98C82.0313 105.1 81.8516 105.267 81.7188 105.48C81.5885 105.691 81.5234 105.932 81.5234 106.203V110H80.6016ZM84.6943 110V104H85.6162V110H84.6943ZM85.1631 103C84.9834 103 84.8285 102.939 84.6982 102.816C84.5706 102.694 84.5068 102.547 84.5068 102.375C84.5068 102.203 84.5706 102.056 84.6982 101.934C84.8285 101.811 84.9834 101.75 85.1631 101.75C85.3428 101.75 85.4964 101.811 85.624 101.934C85.7542 102.056 85.8193 102.203 85.8193 102.375C85.8193 102.547 85.7542 102.694 85.624 102.816C85.4964 102.939 85.3428 103 85.1631 103ZM87.3047 112.25V104H88.1953V104.953H88.3047C88.3724 104.849 88.4661 104.716 88.5859 104.555C88.7083 104.391 88.8828 104.245 89.1094 104.117C89.3385 103.987 89.6484 103.922 90.0391 103.922C90.5443 103.922 90.9896 104.048 91.375 104.301C91.7604 104.553 92.0612 104.911 92.2773 105.375C92.4935 105.839 92.6016 106.385 92.6016 107.016C92.6016 107.651 92.4935 108.202 92.2773 108.668C92.0612 109.132 91.7617 109.491 91.3789 109.746C90.9961 109.999 90.5547 110.125 90.0547 110.125C89.6693 110.125 89.3607 110.061 89.1289 109.934C88.8971 109.803 88.7188 109.656 88.5938 109.492C88.4688 109.326 88.3724 109.187 88.3047 109.078H88.2266V112.25H87.3047ZM88.2109 107C88.2109 107.453 88.2773 107.853 88.4102 108.199C88.543 108.543 88.737 108.812 88.9922 109.008C89.2474 109.201 89.5599 109.297 89.9297 109.297C90.3151 109.297 90.6367 109.195 90.8945 108.992C91.1549 108.786 91.3503 108.51 91.4805 108.164C91.6133 107.815 91.6797 107.427 91.6797 107C91.6797 106.578 91.6146 106.198 91.4844 105.859C91.3568 105.518 91.1628 105.249 90.9023 105.051C90.6445 104.85 90.3203 104.75 89.9297 104.75C89.5547 104.75 89.2396 104.845 88.9844 105.035C88.7292 105.223 88.5365 105.486 88.4063 105.824C88.276 106.16 88.2109 106.552 88.2109 107ZM96.6172 104V104.781H93.5078V104H96.6172ZM94.4141 102.562H95.3359V108.281C95.3359 108.542 95.3737 108.737 95.4492 108.867C95.5273 108.995 95.6263 109.081 95.7461 109.125C95.8685 109.167 95.9974 109.187 96.1328 109.187C96.2344 109.187 96.3177 109.182 96.3828 109.172C96.4479 109.159 96.5 109.148 96.5391 109.141L96.7266 109.969C96.6641 109.992 96.5768 110.016 96.4648 110.039C96.3529 110.065 96.2109 110.078 96.0391 110.078C95.7786 110.078 95.5234 110.022 95.2734 109.91C95.026 109.798 94.8203 109.628 94.6562 109.398C94.4948 109.169 94.4141 108.88 94.4141 108.531V102.562Z" fill="black"/>
<path d="M103.641 102V110H102.672V103.016H102.625L100.672 104.312V103.328L102.672 102H103.641ZM108.754 102V110H107.785V103.016H107.738L105.785 104.312V103.328L107.785 102H108.754ZM111.27 110.063C111.077 110.063 110.911 109.993 110.773 109.855C110.635 109.717 110.566 109.552 110.566 109.359C110.566 109.167 110.635 109.001 110.773 108.863C110.911 108.725 111.077 108.656 111.27 108.656C111.462 108.656 111.628 108.725 111.766 108.863C111.904 109.001 111.973 109.167 111.973 109.359C111.973 109.487 111.94 109.604 111.875 109.711C111.813 109.818 111.728 109.904 111.621 109.969C111.517 110.031 111.4 110.063 111.27 110.063ZM115.468 102V110H114.499V103.016H114.452L112.499 104.312V103.328L114.499 102H115.468ZM117.769 110V109.297L120.409 106.406C120.719 106.068 120.974 105.773 121.175 105.523C121.375 105.271 121.524 105.034 121.62 104.812C121.719 104.589 121.769 104.354 121.769 104.109C121.769 103.828 121.701 103.585 121.565 103.379C121.433 103.173 121.25 103.014 121.019 102.902C120.787 102.79 120.526 102.734 120.237 102.734C119.93 102.734 119.662 102.798 119.433 102.926C119.206 103.051 119.03 103.227 118.905 103.453C118.783 103.68 118.722 103.945 118.722 104.25H117.8C117.8 103.781 117.908 103.37 118.124 103.016C118.34 102.661 118.634 102.385 119.007 102.187C119.382 101.99 119.802 101.891 120.269 101.891C120.737 101.891 121.153 101.99 121.515 102.187C121.877 102.385 122.16 102.652 122.366 102.988C122.572 103.324 122.675 103.698 122.675 104.109C122.675 104.404 122.621 104.691 122.515 104.973C122.41 105.251 122.228 105.562 121.968 105.906C121.71 106.247 121.352 106.664 120.894 107.156L119.097 109.078V109.141H122.815V110H117.769ZM128.507 108.5V108.078C128.507 107.786 128.567 107.52 128.687 107.277C128.809 107.033 128.986 106.837 129.218 106.691C129.452 106.543 129.736 106.469 130.069 106.469C130.408 106.469 130.692 106.543 130.921 106.691C131.15 106.837 131.323 107.033 131.44 107.277C131.558 107.52 131.616 107.786 131.616 108.078V108.5C131.616 108.792 131.556 109.06 131.437 109.305C131.319 109.547 131.145 109.742 130.913 109.891C130.684 110.036 130.403 110.109 130.069 110.109C129.731 110.109 129.446 110.036 129.214 109.891C128.982 109.742 128.806 109.547 128.687 109.305C128.567 109.06 128.507 108.792 128.507 108.5ZM129.304 108.078V108.5C129.304 108.742 129.361 108.96 129.476 109.152C129.59 109.342 129.788 109.437 130.069 109.437C130.343 109.437 130.535 109.342 130.647 109.152C130.762 108.96 130.819 108.742 130.819 108.5V108.078C130.819 107.836 130.765 107.62 130.655 107.43C130.546 107.237 130.351 107.141 130.069 107.141C129.796 107.141 129.599 107.237 129.479 107.43C129.362 107.62 129.304 107.836 129.304 108.078ZM124.522 103.922V103.5C124.522 103.208 124.582 102.941 124.702 102.699C124.825 102.454 125.002 102.259 125.233 102.113C125.468 101.965 125.752 101.891 126.085 101.891C126.424 101.891 126.707 101.965 126.937 102.113C127.166 102.259 127.339 102.454 127.456 102.699C127.573 102.941 127.632 103.208 127.632 103.5V103.922C127.632 104.214 127.572 104.482 127.452 104.727C127.335 104.969 127.16 105.164 126.929 105.312C126.7 105.458 126.418 105.531 126.085 105.531C125.746 105.531 125.461 105.458 125.229 105.312C124.998 105.164 124.822 104.969 124.702 104.727C124.582 104.482 124.522 104.214 124.522 103.922ZM125.319 103.5V103.922C125.319 104.164 125.377 104.382 125.491 104.574C125.606 104.764 125.804 104.859 126.085 104.859C126.358 104.859 126.551 104.764 126.663 104.574C126.778 104.382 126.835 104.164 126.835 103.922V103.5C126.835 103.258 126.78 103.042 126.671 102.852C126.562 102.659 126.366 102.562 126.085 102.562C125.812 102.562 125.615 102.659 125.495 102.852C125.378 103.042 125.319 103.258 125.319 103.5ZM124.819 110L130.319 102H131.21L125.71 110H124.819Z" fill="black"/>
<circle cx="166" cy="106" r="6" fill="#B07219"/>
<path d="M181.031 102H182V107.719C182 108.229 181.906 108.663 181.719 109.02C181.531 109.376 181.267 109.647 180.926 109.832C180.585 110.017 180.182 110.109 179.719 110.109C179.281 110.109 178.892 110.03 178.551 109.871C178.21 109.71 177.941 109.48 177.746 109.184C177.551 108.887 177.453 108.534 177.453 108.125H178.406C178.406 108.352 178.462 108.549 178.574 108.719C178.689 108.885 178.845 109.016 179.043 109.109C179.241 109.203 179.466 109.25 179.719 109.25C179.997 109.25 180.234 109.191 180.43 109.074C180.625 108.957 180.773 108.785 180.875 108.559C180.979 108.329 181.031 108.049 181.031 107.719V102ZM185.582 110.141C185.202 110.141 184.857 110.069 184.547 109.926C184.237 109.78 183.991 109.57 183.809 109.297C183.626 109.021 183.535 108.687 183.535 108.297C183.535 107.953 183.603 107.674 183.738 107.461C183.874 107.245 184.055 107.076 184.281 106.953C184.508 106.831 184.758 106.74 185.031 106.68C185.307 106.617 185.585 106.568 185.863 106.531C186.228 106.484 186.523 106.449 186.75 106.426C186.979 106.4 187.146 106.357 187.25 106.297C187.357 106.237 187.41 106.133 187.41 105.984V105.953C187.41 105.568 187.305 105.268 187.094 105.055C186.885 104.841 186.569 104.734 186.145 104.734C185.704 104.734 185.359 104.831 185.109 105.023C184.859 105.216 184.684 105.422 184.582 105.641L183.707 105.328C183.863 104.964 184.072 104.68 184.332 104.477C184.595 104.271 184.882 104.128 185.191 104.047C185.504 103.964 185.811 103.922 186.113 103.922C186.306 103.922 186.527 103.945 186.777 103.992C187.03 104.036 187.273 104.129 187.508 104.27C187.745 104.41 187.941 104.622 188.098 104.906C188.254 105.19 188.332 105.57 188.332 106.047V110H187.41V109.187H187.363C187.301 109.318 187.197 109.457 187.051 109.605C186.905 109.754 186.711 109.88 186.469 109.984C186.227 110.089 185.931 110.141 185.582 110.141ZM185.723 109.312C186.087 109.312 186.395 109.241 186.645 109.098C186.897 108.954 187.087 108.77 187.215 108.543C187.345 108.316 187.41 108.078 187.41 107.828V106.984C187.371 107.031 187.285 107.074 187.152 107.113C187.022 107.15 186.871 107.182 186.699 107.211C186.53 107.237 186.365 107.26 186.203 107.281C186.044 107.299 185.915 107.315 185.816 107.328C185.577 107.359 185.353 107.41 185.145 107.48C184.939 107.548 184.772 107.651 184.645 107.789C184.52 107.924 184.457 108.109 184.457 108.344C184.457 108.664 184.576 108.906 184.813 109.07C185.052 109.232 185.355 109.312 185.723 109.312ZM194.706 104L192.487 110H191.55L189.331 104H190.331L191.987 108.781H192.05L193.706 104H194.706ZM197.506 110.141C197.126 110.141 196.781 110.069 196.471 109.926C196.161 109.78 195.915 109.57 195.732 109.297C195.55 109.021 195.459 108.687 195.459 108.297C195.459 107.953 195.527 107.674 195.662 107.461C195.798 107.245 195.979 107.076 196.205 106.953C196.432 106.831 196.682 106.74 196.955 106.68C197.231 106.617 197.508 106.568 197.787 106.531C198.152 106.484 198.447 106.449 198.674 106.426C198.903 106.4 199.07 106.357 199.174 106.297C199.281 106.237 199.334 106.133 199.334 105.984V105.953C199.334 105.568 199.229 105.268 199.018 105.055C198.809 104.841 198.493 104.734 198.068 104.734C197.628 104.734 197.283 104.831 197.033 105.023C196.783 105.216 196.607 105.422 196.506 105.641L195.631 105.328C195.787 104.964 195.995 104.68 196.256 104.477C196.519 104.271 196.805 104.128 197.115 104.047C197.428 103.964 197.735 103.922 198.037 103.922C198.23 103.922 198.451 103.945 198.701 103.992C198.954 104.036 199.197 104.129 199.432 104.27C199.669 104.41 199.865 104.622 200.021 104.906C200.178 105.19 200.256 105.57 200.256 106.047V110H199.334V109.187H199.287C199.225 109.318 199.12 109.457 198.975 109.605C198.829 109.754 198.635 109.88 198.393 109.984C198.15 110.089 197.855 110.141 197.506 110.141ZM197.646 109.312C198.011 109.312 198.318 109.241 198.568 109.098C198.821 108.954 199.011 108.77 199.139 108.543C199.269 108.316 199.334 108.078 199.334 107.828V106.984C199.295 107.031 199.209 107.074 199.076 107.113C198.946 107.15 198.795 107.182 198.623 107.211C198.454 107.237 198.288 107.26 198.127 107.281C197.968 107.299 197.839 107.315 197.74 107.328C197.501 107.359 197.277 107.41 197.068 107.48C196.863 107.548 196.696 107.651 196.568 107.789C196.443 107.924 196.381 108.109 196.381 108.344C196.381 108.664 196.499 108.906 196.736 109.07C196.976 109.232 197.279 109.312 197.646 109.312Z" fill="black"/>
<path d="M210.375 101.891C210.703 101.893 211.031 101.956 211.359 102.078C211.688 102.201 211.987 102.404 212.258 102.687C212.529 102.969 212.746 103.353 212.91 103.84C213.074 104.327 213.156 104.937 213.156 105.672C213.156 106.383 213.089 107.014 212.953 107.566C212.82 108.116 212.628 108.579 212.375 108.957C212.125 109.335 211.82 109.621 211.461 109.816C211.104 110.012 210.701 110.109 210.25 110.109C209.802 110.109 209.402 110.021 209.051 109.844C208.702 109.664 208.415 109.415 208.191 109.098C207.97 108.777 207.828 108.406 207.766 107.984H208.719C208.805 108.352 208.975 108.655 209.23 108.895C209.488 109.132 209.828 109.25 210.25 109.25C210.867 109.25 211.354 108.98 211.711 108.441C212.07 107.902 212.25 107.141 212.25 106.156H212.188C212.042 106.375 211.868 106.564 211.668 106.723C211.467 106.882 211.245 107.004 211 107.09C210.755 107.176 210.495 107.219 210.219 107.219C209.76 107.219 209.34 107.105 208.957 106.879C208.577 106.65 208.272 106.336 208.043 105.937C207.816 105.536 207.703 105.078 207.703 104.562C207.703 104.073 207.812 103.625 208.031 103.219C208.253 102.81 208.563 102.484 208.961 102.242C209.362 102 209.833 101.883 210.375 101.891ZM210.375 102.75C210.047 102.75 209.751 102.832 209.488 102.996C209.228 103.158 209.021 103.376 208.867 103.652C208.716 103.926 208.641 104.229 208.641 104.562C208.641 104.896 208.714 105.199 208.859 105.473C209.008 105.743 209.21 105.96 209.465 106.121C209.723 106.28 210.016 106.359 210.344 106.359C210.591 106.359 210.822 106.311 211.035 106.215C211.249 106.116 211.435 105.982 211.594 105.812C211.755 105.641 211.882 105.447 211.973 105.23C212.064 105.012 212.109 104.784 212.109 104.547C212.109 104.234 212.034 103.941 211.883 103.668C211.734 103.395 211.529 103.173 211.266 103.004C211.005 102.835 210.708 102.75 210.375 102.75ZM215.101 110.063C214.908 110.063 214.743 109.993 214.604 109.855C214.466 109.717 214.397 109.552 214.397 109.359C214.397 109.167 214.466 109.001 214.604 108.863C214.743 108.725 214.908 108.656 215.101 108.656C215.293 108.656 215.459 108.725 215.597 108.863C215.735 109.001 215.804 109.167 215.804 109.359C215.804 109.487 215.771 109.604 215.706 109.711C215.644 109.818 215.559 109.904 215.452 109.969C215.348 110.031 215.231 110.063 215.101 110.063ZM217.531 110L221.109 102.922V102.859H216.984V102H222.109V102.906L218.547 110H217.531ZM227.644 108.5V108.078C227.644 107.786 227.703 107.52 227.823 107.277C227.946 107.033 228.123 106.837 228.354 106.691C228.589 106.543 228.873 106.469 229.206 106.469C229.545 106.469 229.828 106.543 230.058 106.691C230.287 106.837 230.46 107.033 230.577 107.277C230.694 107.52 230.753 107.786 230.753 108.078V108.5C230.753 108.792 230.693 109.06 230.573 109.305C230.456 109.547 230.282 109.742 230.05 109.891C229.821 110.036 229.539 110.109 229.206 110.109C228.868 110.109 228.582 110.036 228.351 109.891C228.119 109.742 227.943 109.547 227.823 109.305C227.703 109.06 227.644 108.792 227.644 108.5ZM228.44 108.078V108.5C228.44 108.742 228.498 108.96 228.612 109.152C228.727 109.342 228.925 109.437 229.206 109.437C229.479 109.437 229.672 109.342 229.784 109.152C229.899 108.96 229.956 108.742 229.956 108.5V108.078C229.956 107.836 229.901 107.62 229.792 107.43C229.683 107.237 229.487 107.141 229.206 107.141C228.933 107.141 228.736 107.237 228.616 107.43C228.499 107.62 228.44 107.836 228.44 108.078ZM223.659 103.922V103.5C223.659 103.208 223.719 102.941 223.839 102.699C223.961 102.454 224.138 102.259 224.37 102.113C224.604 101.965 224.888 101.891 225.222 101.891C225.56 101.891 225.844 101.965 226.073 102.113C226.302 102.259 226.476 102.454 226.593 102.699C226.71 102.941 226.769 103.208 226.769 103.5V103.922C226.769 104.214 226.709 104.482 226.589 104.727C226.472 104.969 226.297 105.164 226.065 105.312C225.836 105.458 225.555 105.531 225.222 105.531C224.883 105.531 224.598 105.458 224.366 105.312C224.134 105.164 223.959 104.969 223.839 104.727C223.719 104.482 223.659 104.214 223.659 103.922ZM224.456 103.5V103.922C224.456 104.164 224.513 104.382 224.628 104.574C224.743 104.764 224.94 104.859 225.222 104.859C225.495 104.859 225.688 104.764 225.8 104.574C225.914 104.382 225.972 104.164 225.972 103.922V103.5C225.972 103.258 225.917 103.042 225.808 102.852C225.698 102.659 225.503 102.562 225.222 102.562C224.948 102.562 224.752 102.659 224.632 102.852C224.515 103.042 224.456 103.258 224.456 103.5ZM223.956 110L229.456 102H230.347L224.847 110H223.956Z" fill="black"/>
<g clip-path="url(#clip0_55_50)">
<rect x="24" y="50" width="252" height="8" rx="4" fill="#F0EBEB" fill-opacity="0.8"/>
<rect x="24" y="50" width="113" height="8" fill="#F1E05A"/>
<rect x="137" y="50" width="52" height="8" fill="#F05138"/>
<rect x="189" y="50" width="28" height="8" fill="#3178C6"/>
<rect x="217" y="50" width="24" height="8" fill="#B07219"/>
<rect x="241" y="50" width="17" height="8" fill="#69C486"/>
<rect x="259" y="50" width="17" height="8" fill="#69C486"/>
<rect x="258" y="50" width="21" height="8" fill="#CAE552"/>
</g>
<defs>
<clipPath id="clip0_55_50">
<rect x="24" y="50" width="252" height="8" rx="4" fill="white"/>
</clipPath>
</defs>
</svg>
